G04 EAGLE Gerber RS-274X export*
G75*
%MOMM*%
%FSLAX34Y34*%
%LPD*%
%INTop Copper*%
%IPPOS*%
%AMOC8*
5,1,8,0,0,1.08239X$1,22.5*%
G01*
%ADD10C,4.216000*%
%ADD11C,3.816000*%
%ADD12C,1.625600*%
%ADD13C,1.409600*%
%ADD14C,1.409600*%
%ADD15P,1.539592X8X202.500000*%
%ADD16C,0.304800*%

G36*
X605556Y346206D02*
X605556Y346206D01*
X605575Y346204D01*
X605677Y346226D01*
X605779Y346242D01*
X605796Y346252D01*
X605816Y346256D01*
X605905Y346309D01*
X605996Y346358D01*
X606010Y346372D01*
X606027Y346382D01*
X606094Y346461D01*
X606166Y346536D01*
X606174Y346554D01*
X606187Y346569D01*
X606226Y346665D01*
X606269Y346759D01*
X606271Y346779D01*
X606279Y346797D01*
X606297Y346964D01*
X606297Y757936D01*
X606294Y757956D01*
X606296Y757975D01*
X606274Y758077D01*
X606258Y758179D01*
X606248Y758196D01*
X606244Y758216D01*
X606191Y758305D01*
X606142Y758396D01*
X606128Y758410D01*
X606118Y758427D01*
X606039Y758494D01*
X605964Y758566D01*
X605946Y758574D01*
X605931Y758587D01*
X605835Y758626D01*
X605741Y758669D01*
X605721Y758671D01*
X605703Y758679D01*
X605536Y758697D01*
X4064Y758697D01*
X4044Y758694D01*
X4025Y758696D01*
X3923Y758674D01*
X3821Y758658D01*
X3804Y758648D01*
X3784Y758644D01*
X3695Y758591D01*
X3604Y758542D01*
X3590Y758528D01*
X3573Y758518D01*
X3506Y758439D01*
X3434Y758364D01*
X3426Y758346D01*
X3413Y758331D01*
X3374Y758235D01*
X3331Y758141D01*
X3329Y758121D01*
X3321Y758103D01*
X3303Y757936D01*
X3303Y346964D01*
X3306Y346944D01*
X3304Y346925D01*
X3326Y346823D01*
X3342Y346721D01*
X3352Y346704D01*
X3356Y346684D01*
X3409Y346595D01*
X3458Y346504D01*
X3472Y346490D01*
X3482Y346473D01*
X3561Y346406D01*
X3636Y346334D01*
X3654Y346326D01*
X3669Y346313D01*
X3765Y346274D01*
X3859Y346231D01*
X3879Y346229D01*
X3897Y346221D01*
X4064Y346203D01*
X605536Y346203D01*
X605556Y346206D01*
G37*
%LPC*%
G36*
X48577Y374395D02*
X48577Y374395D01*
X44469Y376097D01*
X41325Y379241D01*
X39623Y383349D01*
X39623Y404051D01*
X41325Y408159D01*
X44469Y411303D01*
X45757Y411837D01*
X45857Y411899D01*
X45957Y411958D01*
X45961Y411963D01*
X45966Y411966D01*
X46041Y412057D01*
X46117Y412145D01*
X46119Y412151D01*
X46123Y412156D01*
X46165Y412264D01*
X46209Y412373D01*
X46210Y412381D01*
X46211Y412386D01*
X46212Y412404D01*
X46227Y412540D01*
X46227Y434388D01*
X46213Y434478D01*
X46205Y434569D01*
X46193Y434599D01*
X46188Y434631D01*
X46145Y434711D01*
X46109Y434795D01*
X46083Y434827D01*
X46072Y434848D01*
X46049Y434870D01*
X46004Y434926D01*
X40639Y440291D01*
X40639Y448709D01*
X46591Y454661D01*
X54179Y454661D01*
X54269Y454675D01*
X54360Y454683D01*
X54389Y454695D01*
X54421Y454700D01*
X54502Y454743D01*
X54586Y454779D01*
X54618Y454805D01*
X54639Y454816D01*
X54661Y454839D01*
X54717Y454884D01*
X61606Y461773D01*
X141594Y461773D01*
X144496Y458871D01*
X162961Y440406D01*
X163035Y440353D01*
X163105Y440293D01*
X163135Y440281D01*
X163161Y440262D01*
X163248Y440235D01*
X163333Y440201D01*
X163374Y440197D01*
X163396Y440190D01*
X163428Y440191D01*
X163499Y440183D01*
X222457Y440183D01*
X222551Y440198D01*
X222592Y440199D01*
X222604Y440203D01*
X222653Y440208D01*
X222675Y440218D01*
X222700Y440222D01*
X222787Y440269D01*
X222809Y440279D01*
X222823Y440284D01*
X222826Y440286D01*
X222877Y440309D01*
X222895Y440326D01*
X222917Y440338D01*
X222985Y440409D01*
X223057Y440476D01*
X223069Y440498D01*
X223086Y440516D01*
X223128Y440605D01*
X223175Y440692D01*
X223180Y440717D01*
X223190Y440739D01*
X223201Y440837D01*
X223218Y440934D01*
X223214Y440959D01*
X223217Y440983D01*
X223196Y441080D01*
X223181Y441178D01*
X223170Y441200D01*
X223165Y441224D01*
X223114Y441309D01*
X223101Y441333D01*
X223093Y441354D01*
X223087Y441361D01*
X223069Y441396D01*
X223051Y441414D01*
X223039Y441435D01*
X223005Y441464D01*
X222988Y441485D01*
X220040Y444433D01*
X218503Y448144D01*
X218503Y466256D01*
X220040Y469967D01*
X222881Y472808D01*
X226592Y474345D01*
X230608Y474345D01*
X234319Y472808D01*
X237160Y469967D01*
X238697Y466256D01*
X238697Y448144D01*
X237160Y444433D01*
X234249Y441522D01*
X234245Y441519D01*
X234237Y441510D01*
X234212Y441485D01*
X234187Y441450D01*
X234182Y441444D01*
X234114Y441372D01*
X234103Y441350D01*
X234087Y441331D01*
X234071Y441289D01*
X234069Y441286D01*
X234065Y441272D01*
X234052Y441238D01*
X234010Y441149D01*
X234007Y441124D01*
X233998Y441101D01*
X233994Y441002D01*
X233983Y440905D01*
X233988Y440880D01*
X233987Y440856D01*
X234014Y440761D01*
X234035Y440664D01*
X234048Y440643D01*
X234055Y440619D01*
X234111Y440538D01*
X234161Y440453D01*
X234180Y440437D01*
X234194Y440416D01*
X234273Y440357D01*
X234348Y440293D01*
X234371Y440284D01*
X234391Y440269D01*
X234442Y440252D01*
X234448Y440249D01*
X234470Y440243D01*
X234485Y440238D01*
X234576Y440201D01*
X234607Y440198D01*
X234625Y440192D01*
X234658Y440192D01*
X234683Y440189D01*
X234686Y440189D01*
X234689Y440189D01*
X234743Y440183D01*
X247857Y440183D01*
X247951Y440198D01*
X247992Y440199D01*
X248004Y440203D01*
X248053Y440208D01*
X248075Y440218D01*
X248100Y440222D01*
X248187Y440269D01*
X248209Y440279D01*
X248223Y440284D01*
X248226Y440286D01*
X248277Y440309D01*
X248295Y440326D01*
X248317Y440338D01*
X248385Y440409D01*
X248457Y440476D01*
X248469Y440498D01*
X248486Y440516D01*
X248528Y440605D01*
X248575Y440692D01*
X248580Y440717D01*
X248590Y440739D01*
X248601Y440837D01*
X248618Y440934D01*
X248614Y440959D01*
X248617Y440983D01*
X248596Y441080D01*
X248581Y441178D01*
X248570Y441200D01*
X248565Y441224D01*
X248514Y441309D01*
X248501Y441333D01*
X248493Y441354D01*
X248487Y441361D01*
X248469Y441396D01*
X248451Y441414D01*
X248439Y441435D01*
X248405Y441464D01*
X248388Y441485D01*
X245440Y444433D01*
X243903Y448144D01*
X243903Y466256D01*
X245440Y469967D01*
X248281Y472808D01*
X251992Y474345D01*
X256008Y474345D01*
X259719Y472808D01*
X262560Y469967D01*
X264097Y466256D01*
X264097Y448144D01*
X262560Y444433D01*
X259649Y441522D01*
X259645Y441519D01*
X259637Y441510D01*
X259612Y441485D01*
X259587Y441450D01*
X259582Y441444D01*
X259514Y441372D01*
X259503Y441350D01*
X259487Y441331D01*
X259471Y441289D01*
X259469Y441286D01*
X259465Y441272D01*
X259452Y441238D01*
X259410Y441149D01*
X259407Y441124D01*
X259398Y441101D01*
X259394Y441002D01*
X259383Y440905D01*
X259388Y440880D01*
X259387Y440856D01*
X259414Y440761D01*
X259435Y440664D01*
X259448Y440643D01*
X259455Y440619D01*
X259511Y440538D01*
X259561Y440453D01*
X259580Y440437D01*
X259594Y440416D01*
X259673Y440357D01*
X259748Y440293D01*
X259771Y440284D01*
X259791Y440269D01*
X259842Y440252D01*
X259848Y440249D01*
X259870Y440243D01*
X259885Y440238D01*
X259976Y440201D01*
X260007Y440198D01*
X260025Y440192D01*
X260058Y440192D01*
X260083Y440189D01*
X260086Y440189D01*
X260089Y440189D01*
X260143Y440183D01*
X273257Y440183D01*
X273351Y440198D01*
X273392Y440199D01*
X273404Y440203D01*
X273453Y440208D01*
X273475Y440218D01*
X273500Y440222D01*
X273587Y440269D01*
X273609Y440279D01*
X273623Y440284D01*
X273626Y440286D01*
X273677Y440309D01*
X273695Y440326D01*
X273717Y440338D01*
X273785Y440409D01*
X273857Y440476D01*
X273869Y440498D01*
X273886Y440516D01*
X273928Y440605D01*
X273975Y440692D01*
X273980Y440717D01*
X273990Y440739D01*
X274001Y440837D01*
X274018Y440934D01*
X274014Y440959D01*
X274017Y440983D01*
X273996Y441080D01*
X273981Y441178D01*
X273970Y441200D01*
X273965Y441224D01*
X273914Y441309D01*
X273901Y441333D01*
X273893Y441354D01*
X273887Y441361D01*
X273869Y441396D01*
X273851Y441414D01*
X273839Y441435D01*
X273805Y441464D01*
X273788Y441485D01*
X270840Y444433D01*
X269303Y448144D01*
X269303Y466256D01*
X270840Y469967D01*
X273681Y472808D01*
X277392Y474345D01*
X281408Y474345D01*
X285119Y472808D01*
X287960Y469967D01*
X289497Y466256D01*
X289497Y448144D01*
X287960Y444433D01*
X285049Y441522D01*
X285045Y441519D01*
X285037Y441510D01*
X285012Y441485D01*
X284987Y441450D01*
X284982Y441444D01*
X284914Y441372D01*
X284903Y441350D01*
X284887Y441331D01*
X284871Y441289D01*
X284869Y441286D01*
X284865Y441272D01*
X284852Y441238D01*
X284810Y441149D01*
X284807Y441124D01*
X284798Y441101D01*
X284794Y441002D01*
X284783Y440905D01*
X284788Y440880D01*
X284787Y440856D01*
X284814Y440761D01*
X284835Y440664D01*
X284848Y440643D01*
X284855Y440619D01*
X284911Y440538D01*
X284961Y440453D01*
X284980Y440437D01*
X284994Y440416D01*
X285073Y440357D01*
X285148Y440293D01*
X285171Y440284D01*
X285191Y440269D01*
X285242Y440252D01*
X285248Y440249D01*
X285270Y440243D01*
X285285Y440238D01*
X285376Y440201D01*
X285407Y440198D01*
X285425Y440192D01*
X285458Y440192D01*
X285483Y440189D01*
X285486Y440189D01*
X285489Y440189D01*
X285543Y440183D01*
X298657Y440183D01*
X298751Y440198D01*
X298792Y440199D01*
X298804Y440203D01*
X298853Y440208D01*
X298875Y440218D01*
X298900Y440222D01*
X298987Y440269D01*
X299009Y440279D01*
X299023Y440284D01*
X299026Y440286D01*
X299077Y440309D01*
X299095Y440326D01*
X299117Y440338D01*
X299185Y440409D01*
X299257Y440476D01*
X299269Y440498D01*
X299286Y440516D01*
X299328Y440605D01*
X299375Y440692D01*
X299380Y440717D01*
X299390Y440739D01*
X299401Y440837D01*
X299418Y440934D01*
X299414Y440959D01*
X299417Y440983D01*
X299396Y441080D01*
X299381Y441178D01*
X299370Y441200D01*
X299365Y441224D01*
X299314Y441309D01*
X299301Y441333D01*
X299293Y441354D01*
X299287Y441361D01*
X299269Y441396D01*
X299251Y441414D01*
X299239Y441435D01*
X299205Y441464D01*
X299188Y441485D01*
X296240Y444433D01*
X294703Y448144D01*
X294703Y466256D01*
X296240Y469967D01*
X299081Y472808D01*
X302792Y474345D01*
X306808Y474345D01*
X310519Y472808D01*
X313360Y469967D01*
X314897Y466256D01*
X314897Y448144D01*
X313360Y444433D01*
X310449Y441522D01*
X310445Y441519D01*
X310437Y441510D01*
X310412Y441485D01*
X310387Y441450D01*
X310382Y441444D01*
X310314Y441372D01*
X310303Y441350D01*
X310287Y441331D01*
X310271Y441289D01*
X310269Y441286D01*
X310265Y441272D01*
X310252Y441238D01*
X310210Y441149D01*
X310207Y441124D01*
X310198Y441101D01*
X310194Y441002D01*
X310183Y440905D01*
X310188Y440880D01*
X310187Y440856D01*
X310214Y440761D01*
X310235Y440664D01*
X310248Y440643D01*
X310255Y440619D01*
X310311Y440538D01*
X310361Y440453D01*
X310380Y440437D01*
X310394Y440416D01*
X310473Y440357D01*
X310548Y440293D01*
X310571Y440284D01*
X310591Y440269D01*
X310642Y440252D01*
X310648Y440249D01*
X310670Y440243D01*
X310685Y440238D01*
X310776Y440201D01*
X310807Y440198D01*
X310825Y440192D01*
X310858Y440192D01*
X310883Y440189D01*
X310886Y440189D01*
X310889Y440189D01*
X310943Y440183D01*
X312751Y440183D01*
X312841Y440197D01*
X312932Y440205D01*
X312961Y440217D01*
X312993Y440222D01*
X313074Y440265D01*
X313158Y440301D01*
X313190Y440327D01*
X313211Y440338D01*
X313233Y440361D01*
X313289Y440406D01*
X320014Y447131D01*
X320082Y447225D01*
X320152Y447320D01*
X320154Y447326D01*
X320158Y447331D01*
X320192Y447442D01*
X320228Y447554D01*
X320228Y447560D01*
X320230Y447566D01*
X320227Y447682D01*
X320226Y447799D01*
X320224Y447807D01*
X320224Y447812D01*
X320217Y447829D01*
X320179Y447961D01*
X320103Y448144D01*
X320103Y466256D01*
X321640Y469967D01*
X324481Y472808D01*
X328192Y474345D01*
X332208Y474345D01*
X335919Y472808D01*
X338760Y469967D01*
X340297Y466256D01*
X340297Y448144D01*
X338760Y444433D01*
X335919Y441592D01*
X332208Y440055D01*
X328192Y440055D01*
X327021Y440540D01*
X326958Y440555D01*
X326897Y440579D01*
X326827Y440587D01*
X326794Y440595D01*
X326788Y440595D01*
X326782Y440596D01*
X326762Y440594D01*
X326731Y440598D01*
X326730Y440598D01*
X326642Y440583D01*
X326549Y440576D01*
X326543Y440574D01*
X326537Y440573D01*
X326512Y440562D01*
X326487Y440558D01*
X326408Y440516D01*
X326323Y440480D01*
X326317Y440475D01*
X326312Y440473D01*
X326299Y440460D01*
X326290Y440454D01*
X326270Y440443D01*
X326248Y440420D01*
X326192Y440375D01*
X317139Y431322D01*
X317097Y431264D01*
X317048Y431212D01*
X317026Y431165D01*
X316996Y431123D01*
X316974Y431054D01*
X316944Y430989D01*
X316938Y430937D01*
X316923Y430887D01*
X316925Y430816D01*
X316917Y430745D01*
X316928Y430694D01*
X316930Y430642D01*
X316954Y430574D01*
X316969Y430504D01*
X316996Y430460D01*
X317014Y430411D01*
X317059Y430355D01*
X317096Y430293D01*
X317135Y430259D01*
X317168Y430219D01*
X317228Y430180D01*
X317282Y430133D01*
X317331Y430114D01*
X317375Y430086D01*
X317444Y430068D01*
X317511Y430041D01*
X317582Y430033D01*
X317613Y430025D01*
X317636Y430027D01*
X317677Y430023D01*
X347041Y430023D01*
X347131Y430037D01*
X347222Y430045D01*
X347251Y430057D01*
X347283Y430062D01*
X347364Y430105D01*
X347448Y430141D01*
X347480Y430167D01*
X347501Y430178D01*
X347523Y430201D01*
X347579Y430246D01*
X356089Y438756D01*
X356131Y438814D01*
X356180Y438866D01*
X356202Y438913D01*
X356232Y438955D01*
X356254Y439024D01*
X356284Y439089D01*
X356290Y439141D01*
X356305Y439191D01*
X356303Y439262D01*
X356311Y439333D01*
X356300Y439384D01*
X356298Y439436D01*
X356274Y439504D01*
X356259Y439574D01*
X356232Y439618D01*
X356214Y439667D01*
X356169Y439723D01*
X356132Y439785D01*
X356093Y439819D01*
X356060Y439859D01*
X356000Y439898D01*
X355946Y439945D01*
X355897Y439964D01*
X355853Y439992D01*
X355784Y440010D01*
X355717Y440037D01*
X355646Y440045D01*
X355615Y440053D01*
X355592Y440051D01*
X355551Y440055D01*
X353592Y440055D01*
X349881Y441592D01*
X347040Y444433D01*
X345503Y448144D01*
X345503Y466256D01*
X347040Y469967D01*
X349881Y472808D01*
X353592Y474345D01*
X357608Y474345D01*
X361319Y472808D01*
X364160Y469967D01*
X365697Y466256D01*
X365697Y450201D01*
X365708Y450131D01*
X365710Y450059D01*
X365728Y450010D01*
X365736Y449959D01*
X365770Y449895D01*
X365795Y449828D01*
X365827Y449787D01*
X365852Y449741D01*
X365903Y449692D01*
X365948Y449636D01*
X365992Y449608D01*
X366030Y449572D01*
X366095Y449542D01*
X366155Y449503D01*
X366206Y449490D01*
X366253Y449468D01*
X366324Y449460D01*
X366394Y449443D01*
X366446Y449447D01*
X366497Y449441D01*
X366568Y449456D01*
X366639Y449462D01*
X366687Y449482D01*
X366738Y449493D01*
X366799Y449530D01*
X366865Y449558D01*
X366921Y449603D01*
X366949Y449620D01*
X366964Y449637D01*
X366996Y449663D01*
X370680Y453347D01*
X370733Y453421D01*
X370793Y453491D01*
X370805Y453521D01*
X370824Y453547D01*
X370851Y453634D01*
X370885Y453719D01*
X370889Y453760D01*
X370896Y453782D01*
X370895Y453814D01*
X370903Y453885D01*
X370903Y466256D01*
X372440Y469967D01*
X375281Y472808D01*
X378992Y474345D01*
X383008Y474345D01*
X386719Y472808D01*
X389560Y469967D01*
X391097Y466256D01*
X391097Y448144D01*
X389560Y444433D01*
X386719Y441592D01*
X383008Y440055D01*
X378992Y440055D01*
X375281Y441592D01*
X374108Y442765D01*
X374092Y442776D01*
X374080Y442792D01*
X373992Y442848D01*
X373909Y442908D01*
X373890Y442914D01*
X373873Y442925D01*
X373772Y442950D01*
X373673Y442981D01*
X373653Y442980D01*
X373634Y442985D01*
X373531Y442977D01*
X373428Y442974D01*
X373409Y442968D01*
X373389Y442966D01*
X373294Y442926D01*
X373197Y442890D01*
X373181Y442877D01*
X373163Y442870D01*
X373032Y442765D01*
X354046Y423779D01*
X351429Y421162D01*
X351387Y421104D01*
X351338Y421052D01*
X351316Y421005D01*
X351286Y420963D01*
X351264Y420894D01*
X351234Y420829D01*
X351229Y420777D01*
X351213Y420727D01*
X351215Y420656D01*
X351207Y420585D01*
X351218Y420534D01*
X351220Y420482D01*
X351244Y420414D01*
X351259Y420344D01*
X351286Y420299D01*
X351304Y420251D01*
X351349Y420195D01*
X351386Y420133D01*
X351425Y420099D01*
X351458Y420059D01*
X351518Y420020D01*
X351572Y419973D01*
X351621Y419954D01*
X351665Y419926D01*
X351734Y419908D01*
X351801Y419881D01*
X351872Y419873D01*
X351903Y419865D01*
X351926Y419867D01*
X351967Y419863D01*
X418161Y419863D01*
X418251Y419877D01*
X418342Y419885D01*
X418371Y419897D01*
X418403Y419902D01*
X418484Y419945D01*
X418568Y419981D01*
X418600Y420007D01*
X418621Y420018D01*
X418643Y420041D01*
X418699Y420086D01*
X446880Y448267D01*
X446933Y448341D01*
X446993Y448411D01*
X447005Y448441D01*
X447024Y448467D01*
X447051Y448554D01*
X447085Y448639D01*
X447089Y448680D01*
X447096Y448702D01*
X447095Y448734D01*
X447103Y448805D01*
X447103Y466256D01*
X448640Y469967D01*
X451481Y472808D01*
X455192Y474345D01*
X459208Y474345D01*
X462919Y472808D01*
X465760Y469967D01*
X467297Y466256D01*
X467297Y448144D01*
X465760Y444433D01*
X462919Y441592D01*
X459208Y440055D01*
X455192Y440055D01*
X453123Y440912D01*
X453010Y440939D01*
X452896Y440967D01*
X452890Y440967D01*
X452884Y440968D01*
X452767Y440957D01*
X452651Y440948D01*
X452645Y440946D01*
X452639Y440945D01*
X452531Y440897D01*
X452425Y440852D01*
X452419Y440847D01*
X452414Y440845D01*
X452401Y440832D01*
X452294Y440747D01*
X425166Y413619D01*
X422549Y411002D01*
X422507Y410944D01*
X422458Y410892D01*
X422436Y410845D01*
X422406Y410803D01*
X422384Y410734D01*
X422354Y410669D01*
X422349Y410617D01*
X422333Y410567D01*
X422335Y410496D01*
X422327Y410425D01*
X422338Y410374D01*
X422340Y410322D01*
X422364Y410254D01*
X422379Y410184D01*
X422406Y410139D01*
X422424Y410091D01*
X422469Y410035D01*
X422506Y409973D01*
X422545Y409939D01*
X422578Y409899D01*
X422638Y409860D01*
X422692Y409813D01*
X422741Y409794D01*
X422785Y409766D01*
X422854Y409748D01*
X422921Y409721D01*
X422992Y409713D01*
X423023Y409705D01*
X423046Y409707D01*
X423087Y409703D01*
X438481Y409703D01*
X438571Y409717D01*
X438662Y409725D01*
X438691Y409737D01*
X438723Y409742D01*
X438804Y409785D01*
X438888Y409821D01*
X438920Y409847D01*
X438941Y409858D01*
X438963Y409881D01*
X439019Y409926D01*
X473530Y444437D01*
X473598Y444531D01*
X473668Y444626D01*
X473670Y444632D01*
X473674Y444637D01*
X473708Y444747D01*
X473744Y444859D01*
X473744Y444866D01*
X473746Y444872D01*
X473743Y444988D01*
X473742Y445105D01*
X473740Y445113D01*
X473740Y445118D01*
X473733Y445135D01*
X473695Y445266D01*
X472503Y448144D01*
X472503Y466256D01*
X474040Y469967D01*
X476881Y472808D01*
X480592Y474345D01*
X484608Y474345D01*
X488319Y472808D01*
X491160Y469967D01*
X492697Y466256D01*
X492697Y448144D01*
X491160Y444433D01*
X488319Y441592D01*
X484608Y440055D01*
X482397Y440055D01*
X482307Y440041D01*
X482216Y440033D01*
X482187Y440021D01*
X482155Y440016D01*
X482074Y439973D01*
X481990Y439937D01*
X481958Y439911D01*
X481937Y439900D01*
X481915Y439877D01*
X481859Y439832D01*
X445486Y403459D01*
X442584Y400557D01*
X216839Y400557D01*
X216749Y400543D01*
X216658Y400535D01*
X216629Y400523D01*
X216597Y400518D01*
X216516Y400475D01*
X216432Y400439D01*
X216400Y400413D01*
X216379Y400402D01*
X216357Y400379D01*
X216301Y400334D01*
X214600Y398633D01*
X214547Y398559D01*
X214487Y398489D01*
X214475Y398459D01*
X214456Y398433D01*
X214429Y398346D01*
X214395Y398261D01*
X214391Y398220D01*
X214384Y398198D01*
X214385Y398166D01*
X214377Y398095D01*
X214377Y383349D01*
X212675Y379241D01*
X209531Y376097D01*
X205423Y374395D01*
X200977Y374395D01*
X196869Y376097D01*
X193725Y379241D01*
X192023Y383349D01*
X192023Y404051D01*
X193725Y408159D01*
X194983Y409418D01*
X195025Y409476D01*
X195075Y409528D01*
X195097Y409575D01*
X195127Y409617D01*
X195148Y409686D01*
X195178Y409751D01*
X195184Y409803D01*
X195199Y409853D01*
X195197Y409924D01*
X195205Y409995D01*
X195194Y410046D01*
X195193Y410098D01*
X195168Y410166D01*
X195153Y410236D01*
X195126Y410281D01*
X195109Y410329D01*
X195064Y410385D01*
X195027Y410447D01*
X194987Y410481D01*
X194955Y410521D01*
X194895Y410560D01*
X194840Y410607D01*
X194792Y410626D01*
X194748Y410654D01*
X194678Y410672D01*
X194612Y410699D01*
X194541Y410707D01*
X194509Y410715D01*
X194486Y410713D01*
X194445Y410717D01*
X192709Y410717D01*
X192619Y410703D01*
X192528Y410695D01*
X192499Y410683D01*
X192467Y410678D01*
X192386Y410635D01*
X192302Y410599D01*
X192270Y410573D01*
X192249Y410562D01*
X192227Y410539D01*
X192171Y410494D01*
X188385Y406708D01*
X188317Y406614D01*
X188247Y406519D01*
X188245Y406513D01*
X188241Y406508D01*
X188207Y406397D01*
X188171Y406286D01*
X188171Y406279D01*
X188169Y406273D01*
X188172Y406156D01*
X188173Y406040D01*
X188175Y406032D01*
X188175Y406027D01*
X188182Y406010D01*
X188220Y405878D01*
X188977Y404051D01*
X188977Y383349D01*
X187275Y379241D01*
X184131Y376097D01*
X180023Y374395D01*
X175577Y374395D01*
X171469Y376097D01*
X168325Y379241D01*
X166623Y383349D01*
X166623Y404051D01*
X168325Y408159D01*
X171469Y411303D01*
X175577Y413005D01*
X180023Y413005D01*
X180773Y412694D01*
X180886Y412668D01*
X181000Y412639D01*
X181006Y412639D01*
X181012Y412638D01*
X181129Y412649D01*
X181245Y412658D01*
X181251Y412661D01*
X181257Y412661D01*
X181365Y412709D01*
X181471Y412754D01*
X181477Y412759D01*
X181482Y412761D01*
X181496Y412774D01*
X181602Y412859D01*
X185704Y416961D01*
X188321Y419578D01*
X188363Y419636D01*
X188412Y419688D01*
X188434Y419735D01*
X188464Y419777D01*
X188486Y419846D01*
X188516Y419911D01*
X188521Y419963D01*
X188537Y420013D01*
X188535Y420084D01*
X188543Y420155D01*
X188532Y420206D01*
X188530Y420258D01*
X188506Y420326D01*
X188491Y420396D01*
X188464Y420441D01*
X188446Y420489D01*
X188401Y420545D01*
X188364Y420607D01*
X188325Y420641D01*
X188292Y420681D01*
X188232Y420720D01*
X188178Y420767D01*
X188129Y420786D01*
X188085Y420814D01*
X188016Y420832D01*
X187949Y420859D01*
X187878Y420867D01*
X187847Y420875D01*
X187824Y420873D01*
X187783Y420877D01*
X84759Y420877D01*
X84669Y420863D01*
X84578Y420855D01*
X84549Y420843D01*
X84517Y420838D01*
X84436Y420795D01*
X84352Y420759D01*
X84320Y420733D01*
X84299Y420722D01*
X84277Y420699D01*
X84221Y420654D01*
X80996Y417429D01*
X80943Y417355D01*
X80883Y417285D01*
X80871Y417255D01*
X80852Y417229D01*
X80825Y417142D01*
X80791Y417057D01*
X80787Y417016D01*
X80780Y416994D01*
X80781Y416962D01*
X80773Y416891D01*
X80773Y412540D01*
X80792Y412425D01*
X80809Y412309D01*
X80811Y412304D01*
X80812Y412297D01*
X80867Y412195D01*
X80920Y412090D01*
X80925Y412086D01*
X80928Y412080D01*
X81012Y412000D01*
X81096Y411918D01*
X81102Y411914D01*
X81106Y411911D01*
X81123Y411903D01*
X81243Y411837D01*
X82531Y411303D01*
X85675Y408159D01*
X87377Y404051D01*
X87377Y383349D01*
X85675Y379241D01*
X82531Y376097D01*
X78423Y374395D01*
X73977Y374395D01*
X69869Y376097D01*
X66725Y379241D01*
X65023Y383349D01*
X65023Y404051D01*
X66725Y408159D01*
X69869Y411303D01*
X71157Y411837D01*
X71257Y411899D01*
X71357Y411958D01*
X71361Y411963D01*
X71366Y411966D01*
X71441Y412057D01*
X71517Y412145D01*
X71519Y412151D01*
X71523Y412156D01*
X71565Y412264D01*
X71609Y412373D01*
X71610Y412381D01*
X71611Y412386D01*
X71612Y412404D01*
X71627Y412540D01*
X71627Y420994D01*
X80656Y430023D01*
X158573Y430023D01*
X158643Y430034D01*
X158715Y430036D01*
X158764Y430054D01*
X158815Y430062D01*
X158879Y430096D01*
X158946Y430121D01*
X158987Y430153D01*
X159033Y430178D01*
X159082Y430230D01*
X159138Y430274D01*
X159166Y430318D01*
X159202Y430356D01*
X159232Y430421D01*
X159271Y430481D01*
X159284Y430532D01*
X159306Y430579D01*
X159314Y430650D01*
X159331Y430720D01*
X159327Y430772D01*
X159333Y430823D01*
X159318Y430894D01*
X159312Y430965D01*
X159292Y431013D01*
X159281Y431064D01*
X159244Y431125D01*
X159216Y431191D01*
X159171Y431247D01*
X159154Y431275D01*
X159137Y431290D01*
X159111Y431322D01*
X156494Y433939D01*
X138029Y452404D01*
X137955Y452457D01*
X137885Y452517D01*
X137855Y452529D01*
X137829Y452548D01*
X137742Y452575D01*
X137657Y452609D01*
X137616Y452613D01*
X137594Y452620D01*
X137562Y452619D01*
X137491Y452627D01*
X135080Y452627D01*
X135009Y452616D01*
X134938Y452614D01*
X134889Y452596D01*
X134837Y452588D01*
X134774Y452554D01*
X134707Y452529D01*
X134666Y452497D01*
X134620Y452472D01*
X134570Y452420D01*
X134514Y452376D01*
X134486Y452332D01*
X134450Y452294D01*
X134420Y452229D01*
X134381Y452169D01*
X134369Y452118D01*
X134347Y452071D01*
X134339Y452000D01*
X134321Y451930D01*
X134325Y451878D01*
X134320Y451827D01*
X134335Y451756D01*
X134341Y451685D01*
X134361Y451637D01*
X134372Y451586D01*
X134409Y451525D01*
X134437Y451459D01*
X134482Y451403D01*
X134498Y451375D01*
X134516Y451360D01*
X134542Y451328D01*
X137161Y448709D01*
X137161Y440291D01*
X131209Y434339D01*
X122791Y434339D01*
X116839Y440291D01*
X116839Y448709D01*
X119458Y451328D01*
X119500Y451386D01*
X119550Y451438D01*
X119571Y451485D01*
X119602Y451527D01*
X119623Y451596D01*
X119653Y451661D01*
X119659Y451713D01*
X119674Y451763D01*
X119672Y451834D01*
X119680Y451905D01*
X119669Y451956D01*
X119668Y452008D01*
X119643Y452076D01*
X119628Y452146D01*
X119601Y452191D01*
X119583Y452239D01*
X119539Y452295D01*
X119502Y452357D01*
X119462Y452391D01*
X119430Y452431D01*
X119369Y452470D01*
X119315Y452517D01*
X119267Y452536D01*
X119223Y452564D01*
X119153Y452582D01*
X119087Y452609D01*
X119015Y452617D01*
X118984Y452625D01*
X118961Y452623D01*
X118920Y452627D01*
X65709Y452627D01*
X65619Y452613D01*
X65528Y452605D01*
X65499Y452593D01*
X65467Y452588D01*
X65386Y452545D01*
X65302Y452509D01*
X65270Y452483D01*
X65249Y452472D01*
X65227Y452449D01*
X65171Y452404D01*
X61184Y448417D01*
X61131Y448343D01*
X61071Y448273D01*
X61059Y448243D01*
X61040Y448217D01*
X61013Y448130D01*
X60979Y448045D01*
X60975Y448004D01*
X60968Y447982D01*
X60969Y447950D01*
X60961Y447879D01*
X60961Y440291D01*
X55596Y434926D01*
X55543Y434852D01*
X55483Y434783D01*
X55471Y434753D01*
X55452Y434727D01*
X55425Y434640D01*
X55391Y434555D01*
X55387Y434514D01*
X55380Y434491D01*
X55381Y434459D01*
X55373Y434388D01*
X55373Y412540D01*
X55392Y412425D01*
X55409Y412309D01*
X55411Y412304D01*
X55412Y412297D01*
X55467Y412195D01*
X55520Y412090D01*
X55525Y412086D01*
X55528Y412080D01*
X55612Y412000D01*
X55696Y411918D01*
X55702Y411914D01*
X55706Y411911D01*
X55723Y411903D01*
X55843Y411837D01*
X57131Y411303D01*
X60275Y408159D01*
X61977Y404051D01*
X61977Y383349D01*
X60275Y379241D01*
X57131Y376097D01*
X53023Y374395D01*
X48577Y374395D01*
G37*
%LPD*%
%LPC*%
G36*
X131200Y534671D02*
X131200Y534671D01*
X122332Y538345D01*
X115545Y545132D01*
X111871Y554000D01*
X111871Y563600D01*
X115444Y572225D01*
X115471Y572338D01*
X115499Y572452D01*
X115499Y572458D01*
X115500Y572464D01*
X115489Y572581D01*
X115480Y572697D01*
X115478Y572703D01*
X115477Y572709D01*
X115429Y572817D01*
X115384Y572923D01*
X115379Y572929D01*
X115377Y572934D01*
X115364Y572948D01*
X115279Y573054D01*
X36429Y651904D01*
X33527Y654806D01*
X33527Y687694D01*
X43972Y698139D01*
X44017Y698201D01*
X44048Y698233D01*
X44053Y698246D01*
X44085Y698283D01*
X44097Y698313D01*
X44116Y698339D01*
X44143Y698426D01*
X44177Y698511D01*
X44181Y698552D01*
X44188Y698574D01*
X44187Y698606D01*
X44195Y698677D01*
X44195Y700723D01*
X45897Y704831D01*
X49041Y707975D01*
X53149Y709677D01*
X73851Y709677D01*
X77959Y707975D01*
X81103Y704831D01*
X81637Y703543D01*
X81699Y703442D01*
X81758Y703343D01*
X81763Y703339D01*
X81766Y703334D01*
X81857Y703259D01*
X81945Y703183D01*
X81951Y703181D01*
X81956Y703177D01*
X82064Y703135D01*
X82173Y703091D01*
X82181Y703090D01*
X82186Y703089D01*
X82204Y703088D01*
X82340Y703073D01*
X108160Y703073D01*
X108275Y703092D01*
X108391Y703109D01*
X108396Y703111D01*
X108403Y703112D01*
X108505Y703167D01*
X108610Y703220D01*
X108614Y703225D01*
X108620Y703228D01*
X108700Y703312D01*
X108782Y703396D01*
X108786Y703402D01*
X108789Y703406D01*
X108797Y703423D01*
X108863Y703543D01*
X109397Y704831D01*
X112541Y707975D01*
X116649Y709677D01*
X137351Y709677D01*
X141459Y707975D01*
X144603Y704831D01*
X145137Y703543D01*
X145199Y703442D01*
X145258Y703343D01*
X145263Y703339D01*
X145266Y703334D01*
X145357Y703259D01*
X145445Y703183D01*
X145451Y703181D01*
X145456Y703177D01*
X145564Y703135D01*
X145673Y703091D01*
X145681Y703090D01*
X145686Y703089D01*
X145704Y703088D01*
X145840Y703073D01*
X171660Y703073D01*
X171775Y703092D01*
X171891Y703109D01*
X171896Y703111D01*
X171903Y703112D01*
X172005Y703167D01*
X172110Y703220D01*
X172114Y703225D01*
X172120Y703228D01*
X172200Y703312D01*
X172282Y703396D01*
X172286Y703402D01*
X172289Y703406D01*
X172297Y703423D01*
X172363Y703543D01*
X172897Y704831D01*
X176041Y707975D01*
X180149Y709677D01*
X200851Y709677D01*
X204959Y707975D01*
X208103Y704831D01*
X208637Y703543D01*
X208699Y703442D01*
X208758Y703343D01*
X208763Y703339D01*
X208766Y703334D01*
X208857Y703259D01*
X208945Y703183D01*
X208951Y703181D01*
X208956Y703177D01*
X209064Y703135D01*
X209173Y703091D01*
X209181Y703090D01*
X209186Y703089D01*
X209204Y703088D01*
X209340Y703073D01*
X235160Y703073D01*
X235275Y703092D01*
X235391Y703109D01*
X235396Y703111D01*
X235403Y703112D01*
X235505Y703167D01*
X235610Y703220D01*
X235614Y703225D01*
X235620Y703228D01*
X235700Y703312D01*
X235782Y703396D01*
X235786Y703402D01*
X235789Y703406D01*
X235797Y703423D01*
X235863Y703543D01*
X236397Y704831D01*
X239541Y707975D01*
X243649Y709677D01*
X264351Y709677D01*
X268459Y707975D01*
X271603Y704831D01*
X273305Y700723D01*
X273305Y696277D01*
X271603Y692169D01*
X268459Y689025D01*
X264351Y687323D01*
X243649Y687323D01*
X239541Y689025D01*
X236397Y692169D01*
X235863Y693457D01*
X235801Y693557D01*
X235742Y693657D01*
X235737Y693661D01*
X235734Y693666D01*
X235643Y693741D01*
X235555Y693817D01*
X235549Y693819D01*
X235544Y693823D01*
X235436Y693865D01*
X235327Y693909D01*
X235319Y693910D01*
X235314Y693911D01*
X235296Y693912D01*
X235160Y693927D01*
X209340Y693927D01*
X209225Y693908D01*
X209109Y693891D01*
X209104Y693889D01*
X209097Y693888D01*
X208995Y693833D01*
X208890Y693780D01*
X208886Y693775D01*
X208880Y693772D01*
X208800Y693688D01*
X208718Y693604D01*
X208714Y693598D01*
X208711Y693594D01*
X208703Y693577D01*
X208637Y693457D01*
X208103Y692169D01*
X204959Y689025D01*
X200851Y687323D01*
X180149Y687323D01*
X176041Y689025D01*
X172897Y692169D01*
X172363Y693457D01*
X172301Y693557D01*
X172242Y693657D01*
X172237Y693661D01*
X172234Y693666D01*
X172143Y693741D01*
X172055Y693817D01*
X172049Y693819D01*
X172044Y693823D01*
X171936Y693865D01*
X171827Y693909D01*
X171819Y693910D01*
X171814Y693911D01*
X171796Y693912D01*
X171660Y693927D01*
X145840Y693927D01*
X145725Y693908D01*
X145609Y693891D01*
X145604Y693889D01*
X145597Y693888D01*
X145495Y693833D01*
X145390Y693780D01*
X145386Y693775D01*
X145380Y693772D01*
X145300Y693688D01*
X145218Y693604D01*
X145214Y693598D01*
X145211Y693594D01*
X145203Y693577D01*
X145137Y693457D01*
X144603Y692169D01*
X141459Y689025D01*
X137351Y687323D01*
X116649Y687323D01*
X112541Y689025D01*
X109397Y692169D01*
X108863Y693457D01*
X108801Y693557D01*
X108742Y693657D01*
X108737Y693661D01*
X108734Y693666D01*
X108643Y693741D01*
X108555Y693817D01*
X108549Y693819D01*
X108544Y693823D01*
X108436Y693865D01*
X108327Y693909D01*
X108319Y693910D01*
X108314Y693911D01*
X108296Y693912D01*
X108160Y693927D01*
X82340Y693927D01*
X82225Y693908D01*
X82109Y693891D01*
X82104Y693889D01*
X82097Y693888D01*
X81995Y693833D01*
X81890Y693780D01*
X81886Y693775D01*
X81880Y693772D01*
X81800Y693688D01*
X81718Y693604D01*
X81714Y693598D01*
X81711Y693594D01*
X81703Y693577D01*
X81637Y693457D01*
X81103Y692169D01*
X77959Y689025D01*
X73851Y687323D01*
X53149Y687323D01*
X49041Y689025D01*
X48955Y689111D01*
X48938Y689123D01*
X48926Y689138D01*
X48839Y689194D01*
X48755Y689255D01*
X48736Y689261D01*
X48719Y689271D01*
X48619Y689297D01*
X48520Y689327D01*
X48500Y689327D01*
X48480Y689331D01*
X48377Y689323D01*
X48274Y689321D01*
X48255Y689314D01*
X48235Y689312D01*
X48140Y689272D01*
X48043Y689236D01*
X48027Y689224D01*
X48009Y689216D01*
X47878Y689111D01*
X42896Y684129D01*
X42843Y684055D01*
X42783Y683985D01*
X42771Y683955D01*
X42752Y683929D01*
X42725Y683842D01*
X42691Y683757D01*
X42687Y683716D01*
X42680Y683694D01*
X42681Y683662D01*
X42673Y683591D01*
X42673Y658909D01*
X42687Y658819D01*
X42695Y658728D01*
X42707Y658699D01*
X42712Y658667D01*
X42755Y658586D01*
X42791Y658502D01*
X42817Y658470D01*
X42828Y658449D01*
X42851Y658427D01*
X42896Y658371D01*
X121746Y579521D01*
X121840Y579454D01*
X121934Y579383D01*
X121940Y579381D01*
X121945Y579378D01*
X122056Y579343D01*
X122168Y579307D01*
X122175Y579307D01*
X122181Y579305D01*
X122297Y579308D01*
X122414Y579309D01*
X122421Y579311D01*
X122426Y579312D01*
X122444Y579318D01*
X122575Y579356D01*
X131200Y582929D01*
X140800Y582929D01*
X149668Y579255D01*
X156455Y572468D01*
X160129Y563600D01*
X160129Y554000D01*
X156455Y545132D01*
X149668Y538345D01*
X140800Y534671D01*
X131200Y534671D01*
G37*
%LPD*%
%LPC*%
G36*
X567016Y358459D02*
X567016Y358459D01*
X558732Y361891D01*
X552391Y368232D01*
X548959Y376516D01*
X548959Y385484D01*
X552391Y393768D01*
X558732Y400109D01*
X567016Y403541D01*
X575984Y403541D01*
X584268Y400109D01*
X590609Y393768D01*
X594041Y385484D01*
X594041Y376516D01*
X590609Y368232D01*
X584268Y361891D01*
X575984Y358459D01*
X567016Y358459D01*
G37*
%LPD*%
%LPC*%
G36*
X325716Y701359D02*
X325716Y701359D01*
X317432Y704791D01*
X311091Y711132D01*
X307659Y719416D01*
X307659Y728384D01*
X311091Y736668D01*
X317432Y743009D01*
X325716Y746441D01*
X334684Y746441D01*
X342968Y743009D01*
X349309Y736668D01*
X352741Y728384D01*
X352741Y719416D01*
X349309Y711132D01*
X342968Y704791D01*
X334684Y701359D01*
X325716Y701359D01*
G37*
%LPD*%
%LPC*%
G36*
X567016Y701359D02*
X567016Y701359D01*
X558732Y704791D01*
X552391Y711132D01*
X548959Y719416D01*
X548959Y728384D01*
X552391Y736668D01*
X558732Y743009D01*
X567016Y746441D01*
X575984Y746441D01*
X584268Y743009D01*
X590609Y736668D01*
X594041Y728384D01*
X594041Y719416D01*
X590609Y711132D01*
X584268Y704791D01*
X575984Y701359D01*
X567016Y701359D01*
G37*
%LPD*%
%LPC*%
G36*
X150177Y374395D02*
X150177Y374395D01*
X146069Y376097D01*
X142925Y379241D01*
X141223Y383349D01*
X141223Y404051D01*
X142925Y408159D01*
X146069Y411303D01*
X150177Y413005D01*
X154623Y413005D01*
X158731Y411303D01*
X161875Y408159D01*
X163577Y404051D01*
X163577Y383349D01*
X161875Y379241D01*
X158731Y376097D01*
X154623Y374395D01*
X150177Y374395D01*
G37*
%LPD*%
%LPC*%
G36*
X99377Y374395D02*
X99377Y374395D01*
X95269Y376097D01*
X92125Y379241D01*
X90423Y383349D01*
X90423Y404051D01*
X92125Y408159D01*
X95269Y411303D01*
X99377Y413005D01*
X103823Y413005D01*
X107931Y411303D01*
X111075Y408159D01*
X112777Y404051D01*
X112777Y383349D01*
X111075Y379241D01*
X107931Y376097D01*
X103823Y374395D01*
X99377Y374395D01*
G37*
%LPD*%
%LPC*%
G36*
X116649Y661923D02*
X116649Y661923D01*
X112541Y663625D01*
X109397Y666769D01*
X107695Y670877D01*
X107695Y675323D01*
X109397Y679431D01*
X112541Y682575D01*
X116649Y684277D01*
X137351Y684277D01*
X141459Y682575D01*
X144603Y679431D01*
X146305Y675323D01*
X146305Y670877D01*
X144603Y666769D01*
X141459Y663625D01*
X137351Y661923D01*
X116649Y661923D01*
G37*
%LPD*%
%LPC*%
G36*
X180149Y661923D02*
X180149Y661923D01*
X176041Y663625D01*
X172897Y666769D01*
X171195Y670877D01*
X171195Y675323D01*
X172897Y679431D01*
X176041Y682575D01*
X180149Y684277D01*
X200851Y684277D01*
X204959Y682575D01*
X208103Y679431D01*
X209805Y675323D01*
X209805Y670877D01*
X208103Y666769D01*
X204959Y663625D01*
X200851Y661923D01*
X180149Y661923D01*
G37*
%LPD*%
%LPC*%
G36*
X243649Y661923D02*
X243649Y661923D01*
X239541Y663625D01*
X236397Y666769D01*
X234695Y670877D01*
X234695Y675323D01*
X236397Y679431D01*
X239541Y682575D01*
X243649Y684277D01*
X264351Y684277D01*
X268459Y682575D01*
X271603Y679431D01*
X273305Y675323D01*
X273305Y670877D01*
X271603Y666769D01*
X268459Y663625D01*
X264351Y661923D01*
X243649Y661923D01*
G37*
%LPD*%
%LPC*%
G36*
X53149Y661923D02*
X53149Y661923D01*
X49041Y663625D01*
X45897Y666769D01*
X44195Y670877D01*
X44195Y675323D01*
X45897Y679431D01*
X49041Y682575D01*
X53149Y684277D01*
X73851Y684277D01*
X77959Y682575D01*
X81103Y679431D01*
X82805Y675323D01*
X82805Y670877D01*
X81103Y666769D01*
X77959Y663625D01*
X73851Y661923D01*
X53149Y661923D01*
G37*
%LPD*%
%LPC*%
G36*
X302792Y592455D02*
X302792Y592455D01*
X299081Y593992D01*
X296240Y596833D01*
X294703Y600544D01*
X294703Y618656D01*
X296240Y622367D01*
X299081Y625208D01*
X302792Y626745D01*
X306808Y626745D01*
X310519Y625208D01*
X313360Y622367D01*
X314897Y618656D01*
X314897Y600544D01*
X313360Y596833D01*
X310519Y593992D01*
X306808Y592455D01*
X302792Y592455D01*
G37*
%LPD*%
%LPC*%
G36*
X277392Y592455D02*
X277392Y592455D01*
X273681Y593992D01*
X270840Y596833D01*
X269303Y600544D01*
X269303Y618656D01*
X270840Y622367D01*
X273681Y625208D01*
X277392Y626745D01*
X281408Y626745D01*
X285119Y625208D01*
X287960Y622367D01*
X289497Y618656D01*
X289497Y600544D01*
X287960Y596833D01*
X285119Y593992D01*
X281408Y592455D01*
X277392Y592455D01*
G37*
%LPD*%
%LPC*%
G36*
X582192Y440055D02*
X582192Y440055D01*
X578481Y441592D01*
X575640Y444433D01*
X574103Y448144D01*
X574103Y466256D01*
X575640Y469967D01*
X578481Y472808D01*
X582192Y474345D01*
X586208Y474345D01*
X589919Y472808D01*
X592760Y469967D01*
X594297Y466256D01*
X594297Y448144D01*
X592760Y444433D01*
X589919Y441592D01*
X586208Y440055D01*
X582192Y440055D01*
G37*
%LPD*%
%LPC*%
G36*
X404392Y440055D02*
X404392Y440055D01*
X400681Y441592D01*
X397840Y444433D01*
X396303Y448144D01*
X396303Y466256D01*
X397840Y469967D01*
X400681Y472808D01*
X404392Y474345D01*
X408408Y474345D01*
X412119Y472808D01*
X414960Y469967D01*
X416497Y466256D01*
X416497Y448144D01*
X414960Y444433D01*
X412119Y441592D01*
X408408Y440055D01*
X404392Y440055D01*
G37*
%LPD*%
%LPC*%
G36*
X531392Y440055D02*
X531392Y440055D01*
X527681Y441592D01*
X524840Y444433D01*
X523303Y448144D01*
X523303Y466256D01*
X524840Y469967D01*
X527681Y472808D01*
X531392Y474345D01*
X535408Y474345D01*
X539119Y472808D01*
X541960Y469967D01*
X543497Y466256D01*
X543497Y448144D01*
X541960Y444433D01*
X539119Y441592D01*
X535408Y440055D01*
X531392Y440055D01*
G37*
%LPD*%
%LPC*%
G36*
X505992Y440055D02*
X505992Y440055D01*
X502281Y441592D01*
X499440Y444433D01*
X497903Y448144D01*
X497903Y466256D01*
X499440Y469967D01*
X502281Y472808D01*
X505992Y474345D01*
X510008Y474345D01*
X513719Y472808D01*
X516560Y469967D01*
X518097Y466256D01*
X518097Y448144D01*
X516560Y444433D01*
X513719Y441592D01*
X510008Y440055D01*
X505992Y440055D01*
G37*
%LPD*%
%LPC*%
G36*
X429792Y440055D02*
X429792Y440055D01*
X426081Y441592D01*
X423240Y444433D01*
X421703Y448144D01*
X421703Y466256D01*
X423240Y469967D01*
X426081Y472808D01*
X429792Y474345D01*
X433808Y474345D01*
X437519Y472808D01*
X440360Y469967D01*
X441897Y466256D01*
X441897Y448144D01*
X440360Y444433D01*
X437519Y441592D01*
X433808Y440055D01*
X429792Y440055D01*
G37*
%LPD*%
%LPC*%
G36*
X226592Y592455D02*
X226592Y592455D01*
X222881Y593992D01*
X220040Y596833D01*
X218503Y600544D01*
X218503Y618656D01*
X220040Y622367D01*
X222881Y625208D01*
X226592Y626745D01*
X230608Y626745D01*
X234319Y625208D01*
X237160Y622367D01*
X238697Y618656D01*
X238697Y600544D01*
X237160Y596833D01*
X234319Y593992D01*
X230608Y592455D01*
X226592Y592455D01*
G37*
%LPD*%
%LPC*%
G36*
X556792Y440055D02*
X556792Y440055D01*
X553081Y441592D01*
X550240Y444433D01*
X548703Y448144D01*
X548703Y466256D01*
X550240Y469967D01*
X553081Y472808D01*
X556792Y474345D01*
X560808Y474345D01*
X564519Y472808D01*
X567360Y469967D01*
X568897Y466256D01*
X568897Y448144D01*
X567360Y444433D01*
X564519Y441592D01*
X560808Y440055D01*
X556792Y440055D01*
G37*
%LPD*%
%LPC*%
G36*
X328192Y592455D02*
X328192Y592455D01*
X324481Y593992D01*
X321640Y596833D01*
X320103Y600544D01*
X320103Y618656D01*
X321640Y622367D01*
X324481Y625208D01*
X328192Y626745D01*
X332208Y626745D01*
X335919Y625208D01*
X338760Y622367D01*
X340297Y618656D01*
X340297Y600544D01*
X338760Y596833D01*
X335919Y593992D01*
X332208Y592455D01*
X328192Y592455D01*
G37*
%LPD*%
%LPC*%
G36*
X353592Y592455D02*
X353592Y592455D01*
X349881Y593992D01*
X347040Y596833D01*
X345503Y600544D01*
X345503Y618656D01*
X347040Y622367D01*
X349881Y625208D01*
X353592Y626745D01*
X357608Y626745D01*
X361319Y625208D01*
X364160Y622367D01*
X365697Y618656D01*
X365697Y600544D01*
X364160Y596833D01*
X361319Y593992D01*
X357608Y592455D01*
X353592Y592455D01*
G37*
%LPD*%
%LPC*%
G36*
X378992Y592455D02*
X378992Y592455D01*
X375281Y593992D01*
X372440Y596833D01*
X370903Y600544D01*
X370903Y618656D01*
X372440Y622367D01*
X375281Y625208D01*
X378992Y626745D01*
X383008Y626745D01*
X386719Y625208D01*
X389560Y622367D01*
X391097Y618656D01*
X391097Y600544D01*
X389560Y596833D01*
X386719Y593992D01*
X383008Y592455D01*
X378992Y592455D01*
G37*
%LPD*%
%LPC*%
G36*
X404392Y592455D02*
X404392Y592455D01*
X400681Y593992D01*
X397840Y596833D01*
X396303Y600544D01*
X396303Y618656D01*
X397840Y622367D01*
X400681Y625208D01*
X404392Y626745D01*
X408408Y626745D01*
X412119Y625208D01*
X414960Y622367D01*
X416497Y618656D01*
X416497Y600544D01*
X414960Y596833D01*
X412119Y593992D01*
X408408Y592455D01*
X404392Y592455D01*
G37*
%LPD*%
%LPC*%
G36*
X429792Y592455D02*
X429792Y592455D01*
X426081Y593992D01*
X423240Y596833D01*
X421703Y600544D01*
X421703Y618656D01*
X423240Y622367D01*
X426081Y625208D01*
X429792Y626745D01*
X433808Y626745D01*
X437519Y625208D01*
X440360Y622367D01*
X441897Y618656D01*
X441897Y600544D01*
X440360Y596833D01*
X437519Y593992D01*
X433808Y592455D01*
X429792Y592455D01*
G37*
%LPD*%
%LPC*%
G36*
X455192Y592455D02*
X455192Y592455D01*
X451481Y593992D01*
X448640Y596833D01*
X447103Y600544D01*
X447103Y618656D01*
X448640Y622367D01*
X451481Y625208D01*
X455192Y626745D01*
X459208Y626745D01*
X462919Y625208D01*
X465760Y622367D01*
X467297Y618656D01*
X467297Y600544D01*
X465760Y596833D01*
X462919Y593992D01*
X459208Y592455D01*
X455192Y592455D01*
G37*
%LPD*%
%LPC*%
G36*
X531392Y592455D02*
X531392Y592455D01*
X527681Y593992D01*
X524840Y596833D01*
X523303Y600544D01*
X523303Y618656D01*
X524840Y622367D01*
X527681Y625208D01*
X531392Y626745D01*
X535408Y626745D01*
X539119Y625208D01*
X541960Y622367D01*
X543497Y618656D01*
X543497Y600544D01*
X541960Y596833D01*
X539119Y593992D01*
X535408Y592455D01*
X531392Y592455D01*
G37*
%LPD*%
%LPC*%
G36*
X505992Y592455D02*
X505992Y592455D01*
X502281Y593992D01*
X499440Y596833D01*
X497903Y600544D01*
X497903Y618656D01*
X499440Y622367D01*
X502281Y625208D01*
X505992Y626745D01*
X510008Y626745D01*
X513719Y625208D01*
X516560Y622367D01*
X518097Y618656D01*
X518097Y600544D01*
X516560Y596833D01*
X513719Y593992D01*
X510008Y592455D01*
X505992Y592455D01*
G37*
%LPD*%
%LPC*%
G36*
X480592Y592455D02*
X480592Y592455D01*
X476881Y593992D01*
X474040Y596833D01*
X472503Y600544D01*
X472503Y618656D01*
X474040Y622367D01*
X476881Y625208D01*
X480592Y626745D01*
X484608Y626745D01*
X488319Y625208D01*
X491160Y622367D01*
X492697Y618656D01*
X492697Y600544D01*
X491160Y596833D01*
X488319Y593992D01*
X484608Y592455D01*
X480592Y592455D01*
G37*
%LPD*%
%LPC*%
G36*
X582192Y592455D02*
X582192Y592455D01*
X578481Y593992D01*
X575640Y596833D01*
X574103Y600544D01*
X574103Y618656D01*
X575640Y622367D01*
X578481Y625208D01*
X582192Y626745D01*
X586208Y626745D01*
X589919Y625208D01*
X592760Y622367D01*
X594297Y618656D01*
X594297Y600544D01*
X592760Y596833D01*
X589919Y593992D01*
X586208Y592455D01*
X582192Y592455D01*
G37*
%LPD*%
%LPC*%
G36*
X556792Y592455D02*
X556792Y592455D01*
X553081Y593992D01*
X550240Y596833D01*
X548703Y600544D01*
X548703Y618656D01*
X550240Y622367D01*
X553081Y625208D01*
X556792Y626745D01*
X560808Y626745D01*
X564519Y625208D01*
X567360Y622367D01*
X568897Y618656D01*
X568897Y600544D01*
X567360Y596833D01*
X564519Y593992D01*
X560808Y592455D01*
X556792Y592455D01*
G37*
%LPD*%
%LPC*%
G36*
X239292Y548703D02*
X239292Y548703D01*
X235581Y550240D01*
X232740Y553081D01*
X231203Y556792D01*
X231203Y560808D01*
X232740Y564519D01*
X235581Y567360D01*
X239292Y568897D01*
X243308Y568897D01*
X247019Y567360D01*
X249860Y564519D01*
X251397Y560808D01*
X251397Y556792D01*
X249860Y553081D01*
X247019Y550240D01*
X243308Y548703D01*
X239292Y548703D01*
G37*
%LPD*%
%LPC*%
G36*
X213892Y548703D02*
X213892Y548703D01*
X210181Y550240D01*
X207340Y553081D01*
X205803Y556792D01*
X205803Y560808D01*
X207340Y564519D01*
X210181Y567360D01*
X213892Y568897D01*
X217908Y568897D01*
X221619Y567360D01*
X224460Y564519D01*
X225997Y560808D01*
X225997Y556792D01*
X224460Y553081D01*
X221619Y550240D01*
X217908Y548703D01*
X213892Y548703D01*
G37*
%LPD*%
%LPC*%
G36*
X239292Y523303D02*
X239292Y523303D01*
X235581Y524840D01*
X232740Y527681D01*
X231203Y531392D01*
X231203Y535408D01*
X232740Y539119D01*
X235581Y541960D01*
X239292Y543497D01*
X243308Y543497D01*
X247019Y541960D01*
X249860Y539119D01*
X251397Y535408D01*
X251397Y531392D01*
X249860Y527681D01*
X247019Y524840D01*
X243308Y523303D01*
X239292Y523303D01*
G37*
%LPD*%
%LPC*%
G36*
X213892Y497903D02*
X213892Y497903D01*
X210181Y499440D01*
X207340Y502281D01*
X205803Y505992D01*
X205803Y510008D01*
X207340Y513719D01*
X210181Y516560D01*
X213892Y518097D01*
X217908Y518097D01*
X221619Y516560D01*
X224460Y513719D01*
X225997Y510008D01*
X225997Y505992D01*
X224460Y502281D01*
X221619Y499440D01*
X217908Y497903D01*
X213892Y497903D01*
G37*
%LPD*%
%LPC*%
G36*
X239292Y497903D02*
X239292Y497903D01*
X235581Y499440D01*
X232740Y502281D01*
X231203Y505992D01*
X231203Y510008D01*
X232740Y513719D01*
X235581Y516560D01*
X239292Y518097D01*
X243308Y518097D01*
X247019Y516560D01*
X249860Y513719D01*
X251397Y510008D01*
X251397Y505992D01*
X249860Y502281D01*
X247019Y499440D01*
X243308Y497903D01*
X239292Y497903D01*
G37*
%LPD*%
%LPC*%
G36*
X213892Y523303D02*
X213892Y523303D01*
X210181Y524840D01*
X207340Y527681D01*
X205803Y531392D01*
X205803Y535408D01*
X207340Y539119D01*
X210181Y541960D01*
X213892Y543497D01*
X217908Y543497D01*
X221619Y541960D01*
X224460Y539119D01*
X225997Y535408D01*
X225997Y531392D01*
X224460Y527681D01*
X221619Y524840D01*
X217908Y523303D01*
X213892Y523303D01*
G37*
%LPD*%
%LPC*%
G36*
X109023Y512323D02*
X109023Y512323D01*
X109023Y532407D01*
X111727Y532051D01*
X114465Y531317D01*
X117083Y530233D01*
X119538Y528816D01*
X121786Y527090D01*
X123790Y525086D01*
X125516Y522838D01*
X126933Y520383D01*
X128017Y517765D01*
X128751Y515027D01*
X129107Y512323D01*
X109023Y512323D01*
G37*
%LPD*%
%LPC*%
G36*
X75023Y560323D02*
X75023Y560323D01*
X75023Y580407D01*
X77727Y580051D01*
X80465Y579317D01*
X83083Y578233D01*
X85538Y576816D01*
X87786Y575090D01*
X89790Y573086D01*
X91516Y570838D01*
X92933Y568383D01*
X94017Y565765D01*
X94751Y563027D01*
X95107Y560323D01*
X75023Y560323D01*
G37*
%LPD*%
%LPC*%
G36*
X109023Y509277D02*
X109023Y509277D01*
X129107Y509277D01*
X128751Y506573D01*
X128017Y503835D01*
X126933Y501217D01*
X125516Y498762D01*
X123790Y496514D01*
X121786Y494510D01*
X119538Y492784D01*
X117083Y491367D01*
X114465Y490283D01*
X111727Y489549D01*
X109023Y489193D01*
X109023Y509277D01*
G37*
%LPD*%
%LPC*%
G36*
X85893Y512323D02*
X85893Y512323D01*
X86249Y515027D01*
X86983Y517765D01*
X88067Y520383D01*
X89484Y522838D01*
X91210Y525086D01*
X93214Y527090D01*
X95462Y528816D01*
X97917Y530233D01*
X100535Y531317D01*
X103273Y532051D01*
X105977Y532407D01*
X105977Y512323D01*
X85893Y512323D01*
G37*
%LPD*%
%LPC*%
G36*
X51893Y560323D02*
X51893Y560323D01*
X52249Y563027D01*
X52983Y565765D01*
X54067Y568383D01*
X55484Y570838D01*
X57210Y573086D01*
X59214Y575090D01*
X61462Y576816D01*
X63917Y578233D01*
X66535Y579317D01*
X69273Y580051D01*
X71977Y580407D01*
X71977Y560323D01*
X51893Y560323D01*
G37*
%LPD*%
%LPC*%
G36*
X75023Y557277D02*
X75023Y557277D01*
X95107Y557277D01*
X94751Y554573D01*
X94017Y551835D01*
X92933Y549217D01*
X91516Y546762D01*
X89790Y544514D01*
X87786Y542510D01*
X85538Y540784D01*
X83083Y539367D01*
X80465Y538283D01*
X77727Y537549D01*
X75023Y537193D01*
X75023Y557277D01*
G37*
%LPD*%
%LPC*%
G36*
X69273Y537549D02*
X69273Y537549D01*
X66535Y538283D01*
X63917Y539367D01*
X61462Y540784D01*
X59214Y542510D01*
X57210Y544514D01*
X55484Y546762D01*
X54067Y549217D01*
X52983Y551835D01*
X52249Y554573D01*
X51893Y557277D01*
X71977Y557277D01*
X71977Y537193D01*
X69273Y537549D01*
G37*
%LPD*%
%LPC*%
G36*
X103273Y489549D02*
X103273Y489549D01*
X100535Y490283D01*
X97917Y491367D01*
X95462Y492784D01*
X93214Y494510D01*
X91210Y496514D01*
X89484Y498762D01*
X88067Y501217D01*
X86983Y503835D01*
X86249Y506573D01*
X85893Y509277D01*
X105977Y509277D01*
X105977Y489193D01*
X103273Y489549D01*
G37*
%LPD*%
%LPC*%
G36*
X128523Y725423D02*
X128523Y725423D01*
X128523Y734569D01*
X135968Y734569D01*
X137626Y734306D01*
X139223Y733787D01*
X140720Y733025D01*
X142078Y732038D01*
X143266Y730850D01*
X144253Y729492D01*
X145015Y727995D01*
X145534Y726398D01*
X145688Y725423D01*
X128523Y725423D01*
G37*
%LPD*%
%LPC*%
G36*
X192023Y725423D02*
X192023Y725423D01*
X192023Y734569D01*
X199468Y734569D01*
X201126Y734306D01*
X202723Y733787D01*
X204220Y733025D01*
X205578Y732038D01*
X206766Y730850D01*
X207753Y729492D01*
X208515Y727995D01*
X209034Y726398D01*
X209188Y725423D01*
X192023Y725423D01*
G37*
%LPD*%
%LPC*%
G36*
X255523Y725423D02*
X255523Y725423D01*
X255523Y734569D01*
X262968Y734569D01*
X264626Y734306D01*
X266223Y733787D01*
X267720Y733025D01*
X269078Y732038D01*
X270266Y730850D01*
X271253Y729492D01*
X272015Y727995D01*
X272534Y726398D01*
X272688Y725423D01*
X255523Y725423D01*
G37*
%LPD*%
%LPC*%
G36*
X65023Y725423D02*
X65023Y725423D01*
X65023Y734569D01*
X72468Y734569D01*
X74126Y734306D01*
X75723Y733787D01*
X77220Y733025D01*
X78578Y732038D01*
X79766Y730850D01*
X80753Y729492D01*
X81515Y727995D01*
X82034Y726398D01*
X82188Y725423D01*
X65023Y725423D01*
G37*
%LPD*%
%LPC*%
G36*
X128523Y395223D02*
X128523Y395223D01*
X128523Y412388D01*
X129498Y412234D01*
X131095Y411715D01*
X132592Y410953D01*
X133950Y409966D01*
X135138Y408778D01*
X136125Y407420D01*
X136887Y405923D01*
X137406Y404326D01*
X137669Y402668D01*
X137669Y395223D01*
X128523Y395223D01*
G37*
%LPD*%
%LPC*%
G36*
X171812Y725423D02*
X171812Y725423D01*
X171966Y726398D01*
X172485Y727995D01*
X173247Y729492D01*
X174234Y730850D01*
X175422Y732038D01*
X176780Y733025D01*
X178277Y733787D01*
X179874Y734306D01*
X181532Y734569D01*
X188977Y734569D01*
X188977Y725423D01*
X171812Y725423D01*
G37*
%LPD*%
%LPC*%
G36*
X44812Y725423D02*
X44812Y725423D01*
X44966Y726398D01*
X45485Y727995D01*
X46247Y729492D01*
X47234Y730850D01*
X48422Y732038D01*
X49780Y733025D01*
X51277Y733787D01*
X52874Y734306D01*
X54532Y734569D01*
X61977Y734569D01*
X61977Y725423D01*
X44812Y725423D01*
G37*
%LPD*%
%LPC*%
G36*
X235312Y725423D02*
X235312Y725423D01*
X235466Y726398D01*
X235985Y727995D01*
X236747Y729492D01*
X237734Y730850D01*
X238922Y732038D01*
X240280Y733025D01*
X241777Y733787D01*
X243374Y734306D01*
X245032Y734569D01*
X252477Y734569D01*
X252477Y725423D01*
X235312Y725423D01*
G37*
%LPD*%
%LPC*%
G36*
X128523Y392177D02*
X128523Y392177D01*
X137669Y392177D01*
X137669Y384732D01*
X137406Y383074D01*
X136887Y381477D01*
X136125Y379980D01*
X135138Y378622D01*
X133950Y377434D01*
X132592Y376447D01*
X131095Y375685D01*
X129498Y375166D01*
X128523Y375012D01*
X128523Y392177D01*
G37*
%LPD*%
%LPC*%
G36*
X108312Y725423D02*
X108312Y725423D01*
X108466Y726398D01*
X108985Y727995D01*
X109747Y729492D01*
X110734Y730850D01*
X111922Y732038D01*
X113280Y733025D01*
X114777Y733787D01*
X116374Y734306D01*
X118032Y734569D01*
X125477Y734569D01*
X125477Y725423D01*
X108312Y725423D01*
G37*
%LPD*%
%LPC*%
G36*
X192023Y713231D02*
X192023Y713231D01*
X192023Y722377D01*
X209188Y722377D01*
X209034Y721402D01*
X208515Y719805D01*
X207753Y718308D01*
X206766Y716950D01*
X205578Y715762D01*
X204220Y714775D01*
X202723Y714013D01*
X201126Y713494D01*
X199468Y713231D01*
X192023Y713231D01*
G37*
%LPD*%
%LPC*%
G36*
X116331Y395223D02*
X116331Y395223D01*
X116331Y402668D01*
X116594Y404326D01*
X117113Y405923D01*
X117875Y407420D01*
X118862Y408778D01*
X120050Y409966D01*
X121408Y410953D01*
X122905Y411715D01*
X124502Y412234D01*
X125477Y412388D01*
X125477Y395223D01*
X116331Y395223D01*
G37*
%LPD*%
%LPC*%
G36*
X128523Y713231D02*
X128523Y713231D01*
X128523Y722377D01*
X145688Y722377D01*
X145534Y721402D01*
X145015Y719805D01*
X144253Y718308D01*
X143266Y716950D01*
X142078Y715762D01*
X140720Y714775D01*
X139223Y714013D01*
X137626Y713494D01*
X135968Y713231D01*
X128523Y713231D01*
G37*
%LPD*%
%LPC*%
G36*
X255523Y713231D02*
X255523Y713231D01*
X255523Y722377D01*
X272688Y722377D01*
X272534Y721402D01*
X272015Y719805D01*
X271253Y718308D01*
X270266Y716950D01*
X269078Y715762D01*
X267720Y714775D01*
X266223Y714013D01*
X264626Y713494D01*
X262968Y713231D01*
X255523Y713231D01*
G37*
%LPD*%
%LPC*%
G36*
X65023Y713231D02*
X65023Y713231D01*
X65023Y722377D01*
X82188Y722377D01*
X82034Y721402D01*
X81515Y719805D01*
X80753Y718308D01*
X79766Y716950D01*
X78578Y715762D01*
X77220Y714775D01*
X75723Y714013D01*
X74126Y713494D01*
X72468Y713231D01*
X65023Y713231D01*
G37*
%LPD*%
%LPC*%
G36*
X245032Y713231D02*
X245032Y713231D01*
X243374Y713494D01*
X241777Y714013D01*
X240280Y714775D01*
X238922Y715762D01*
X237734Y716950D01*
X236747Y718308D01*
X235985Y719805D01*
X235466Y721402D01*
X235312Y722377D01*
X252477Y722377D01*
X252477Y713231D01*
X245032Y713231D01*
G37*
%LPD*%
%LPC*%
G36*
X54532Y713231D02*
X54532Y713231D01*
X52874Y713494D01*
X51277Y714013D01*
X49780Y714775D01*
X48422Y715762D01*
X47234Y716950D01*
X46247Y718308D01*
X45485Y719805D01*
X44966Y721402D01*
X44812Y722377D01*
X61977Y722377D01*
X61977Y713231D01*
X54532Y713231D01*
G37*
%LPD*%
%LPC*%
G36*
X118032Y713231D02*
X118032Y713231D01*
X116374Y713494D01*
X114777Y714013D01*
X113280Y714775D01*
X111922Y715762D01*
X110734Y716950D01*
X109747Y718308D01*
X108985Y719805D01*
X108466Y721402D01*
X108312Y722377D01*
X125477Y722377D01*
X125477Y713231D01*
X118032Y713231D01*
G37*
%LPD*%
%LPC*%
G36*
X181532Y713231D02*
X181532Y713231D01*
X179874Y713494D01*
X178277Y714013D01*
X176780Y714775D01*
X175422Y715762D01*
X174234Y716950D01*
X173247Y718308D01*
X172485Y719805D01*
X171966Y721402D01*
X171812Y722377D01*
X188977Y722377D01*
X188977Y713231D01*
X181532Y713231D01*
G37*
%LPD*%
%LPC*%
G36*
X124502Y375166D02*
X124502Y375166D01*
X122905Y375685D01*
X121408Y376447D01*
X120050Y377434D01*
X118862Y378622D01*
X117875Y379980D01*
X117113Y381477D01*
X116594Y383074D01*
X116331Y384732D01*
X116331Y392177D01*
X125477Y392177D01*
X125477Y375012D01*
X124502Y375166D01*
G37*
%LPD*%
%LPC*%
G36*
X255523Y611123D02*
X255523Y611123D01*
X255523Y626115D01*
X256245Y626001D01*
X257681Y625534D01*
X259025Y624849D01*
X260247Y623962D01*
X261314Y622895D01*
X262201Y621673D01*
X262886Y620329D01*
X263353Y618893D01*
X263589Y617403D01*
X263589Y611123D01*
X255523Y611123D01*
G37*
%LPD*%
%LPC*%
G36*
X255523Y608077D02*
X255523Y608077D01*
X263589Y608077D01*
X263589Y601797D01*
X263353Y600307D01*
X262886Y598871D01*
X262201Y597527D01*
X261314Y596305D01*
X260247Y595238D01*
X259025Y594351D01*
X257681Y593666D01*
X256245Y593199D01*
X255523Y593085D01*
X255523Y608077D01*
G37*
%LPD*%
%LPC*%
G36*
X244411Y611123D02*
X244411Y611123D01*
X244411Y617403D01*
X244647Y618893D01*
X245114Y620329D01*
X245799Y621673D01*
X246686Y622895D01*
X247753Y623962D01*
X248975Y624849D01*
X250319Y625534D01*
X251755Y626001D01*
X252477Y626115D01*
X252477Y611123D01*
X244411Y611123D01*
G37*
%LPD*%
%LPC*%
G36*
X251755Y593199D02*
X251755Y593199D01*
X250319Y593666D01*
X248975Y594351D01*
X247753Y595238D01*
X246686Y596305D01*
X245799Y597527D01*
X245114Y598871D01*
X244647Y600307D01*
X244411Y601797D01*
X244411Y608077D01*
X252477Y608077D01*
X252477Y593085D01*
X251755Y593199D01*
G37*
%LPD*%
%LPC*%
G36*
X107499Y510799D02*
X107499Y510799D01*
X107499Y510801D01*
X107501Y510801D01*
X107501Y510799D01*
X107499Y510799D01*
G37*
%LPD*%
%LPC*%
G36*
X253999Y609599D02*
X253999Y609599D01*
X253999Y609601D01*
X254001Y609601D01*
X254001Y609599D01*
X253999Y609599D01*
G37*
%LPD*%
%LPC*%
G36*
X73499Y558799D02*
X73499Y558799D01*
X73499Y558801D01*
X73501Y558801D01*
X73501Y558799D01*
X73499Y558799D01*
G37*
%LPD*%
%LPC*%
G36*
X190499Y723899D02*
X190499Y723899D01*
X190499Y723901D01*
X190501Y723901D01*
X190501Y723899D01*
X190499Y723899D01*
G37*
%LPD*%
%LPC*%
G36*
X253999Y723899D02*
X253999Y723899D01*
X253999Y723901D01*
X254001Y723901D01*
X254001Y723899D01*
X253999Y723899D01*
G37*
%LPD*%
%LPC*%
G36*
X126999Y393699D02*
X126999Y393699D01*
X126999Y393701D01*
X127001Y393701D01*
X127001Y393699D01*
X126999Y393699D01*
G37*
%LPD*%
%LPC*%
G36*
X63499Y723899D02*
X63499Y723899D01*
X63499Y723901D01*
X63501Y723901D01*
X63501Y723899D01*
X63499Y723899D01*
G37*
%LPD*%
%LPC*%
G36*
X126999Y723899D02*
X126999Y723899D01*
X126999Y723901D01*
X127001Y723901D01*
X127001Y723899D01*
X126999Y723899D01*
G37*
%LPD*%
D10*
X136000Y558800D03*
D11*
X73500Y558800D03*
X107500Y510800D03*
D12*
X182372Y673100D02*
X198628Y673100D01*
X198628Y698500D02*
X182372Y698500D01*
X182372Y723900D02*
X198628Y723900D01*
X245872Y673100D02*
X262128Y673100D01*
X262128Y698500D02*
X245872Y698500D01*
X245872Y723900D02*
X262128Y723900D01*
X135128Y673100D02*
X118872Y673100D01*
X118872Y698500D02*
X135128Y698500D01*
X135128Y723900D02*
X118872Y723900D01*
X71628Y673100D02*
X55372Y673100D01*
X55372Y698500D02*
X71628Y698500D01*
X71628Y723900D02*
X55372Y723900D01*
D13*
X228600Y464248D02*
X228600Y450152D01*
X254000Y450152D02*
X254000Y464248D01*
X279400Y464248D02*
X279400Y450152D01*
X304800Y450152D02*
X304800Y464248D01*
X330200Y464248D02*
X330200Y450152D01*
X355600Y450152D02*
X355600Y464248D01*
X381000Y464248D02*
X381000Y450152D01*
X406400Y450152D02*
X406400Y464248D01*
X431800Y464248D02*
X431800Y450152D01*
X457200Y450152D02*
X457200Y464248D01*
X482600Y464248D02*
X482600Y450152D01*
X508000Y450152D02*
X508000Y464248D01*
X228600Y602552D02*
X228600Y616648D01*
X254000Y616648D02*
X254000Y602552D01*
X279400Y602552D02*
X279400Y616648D01*
X431800Y616648D02*
X431800Y602552D01*
X457200Y602552D02*
X457200Y616648D01*
X482600Y616648D02*
X482600Y602552D01*
X508000Y602552D02*
X508000Y616648D01*
X584200Y616648D02*
X584200Y602552D01*
X584200Y464248D02*
X584200Y450152D01*
X558800Y450152D02*
X558800Y464248D01*
X533400Y464248D02*
X533400Y450152D01*
X558800Y602552D02*
X558800Y616648D01*
X533400Y616648D02*
X533400Y602552D01*
X304800Y602552D02*
X304800Y616648D01*
D14*
X241300Y558800D03*
X241300Y533400D03*
X241300Y508000D03*
D13*
X406400Y602552D02*
X406400Y616648D01*
X381000Y616648D02*
X381000Y602552D01*
X355600Y602552D02*
X355600Y616648D01*
X330200Y616648D02*
X330200Y602552D01*
D14*
X215900Y558800D03*
X215900Y533400D03*
X215900Y508000D03*
D12*
X50800Y401828D02*
X50800Y385572D01*
X76200Y385572D02*
X76200Y401828D01*
X101600Y401828D02*
X101600Y385572D01*
X127000Y385572D02*
X127000Y401828D01*
X152400Y401828D02*
X152400Y385572D01*
X177800Y385572D02*
X177800Y401828D01*
X203200Y401828D02*
X203200Y385572D01*
D15*
X127000Y444500D03*
X50800Y444500D03*
D16*
X136000Y558800D02*
X38100Y656700D01*
X38100Y685800D01*
X50800Y698500D01*
X63500Y698500D01*
X127000Y698500D01*
X190500Y698500D01*
X254000Y698500D01*
X50800Y444500D02*
X50800Y393700D01*
X50800Y444500D02*
X63500Y457200D01*
X139700Y457200D01*
X161290Y435610D01*
X314960Y435610D01*
X330200Y450850D01*
X330200Y457200D01*
X349250Y425450D02*
X381000Y457200D01*
X82550Y425450D02*
X76200Y419100D01*
X76200Y393700D01*
X82550Y425450D02*
X349250Y425450D01*
X420370Y415290D02*
X457200Y452120D01*
X457200Y457200D01*
X190500Y415290D02*
X177800Y402590D01*
X177800Y393700D01*
X190500Y415290D02*
X420370Y415290D01*
X214630Y405130D02*
X203200Y393700D01*
X440690Y405130D02*
X482600Y447040D01*
X482600Y457200D01*
X440690Y405130D02*
X214630Y405130D01*
M02*
