G04 EAGLE Gerber RS-274X export*
G75*
%MOMM*%
%FSLAX34Y34*%
%LPD*%
%INBottom Copper*%
%IPPOS*%
%AMOC8*
5,1,8,0,0,1.08239X$1,22.5*%
G01*
%ADD10C,4.216000*%
%ADD11C,3.816000*%
%ADD12C,1.625600*%
%ADD13C,1.409600*%
%ADD14C,1.409600*%
%ADD15P,1.539592X8X202.500000*%
%ADD16C,0.304800*%


D10*
X136000Y558800D03*
D11*
X73500Y558800D03*
X107500Y510800D03*
D12*
X182372Y673100D02*
X198628Y673100D01*
X198628Y698500D02*
X182372Y698500D01*
X182372Y723900D02*
X198628Y723900D01*
X245872Y673100D02*
X262128Y673100D01*
X262128Y698500D02*
X245872Y698500D01*
X245872Y723900D02*
X262128Y723900D01*
X135128Y673100D02*
X118872Y673100D01*
X118872Y698500D02*
X135128Y698500D01*
X135128Y723900D02*
X118872Y723900D01*
X71628Y673100D02*
X55372Y673100D01*
X55372Y698500D02*
X71628Y698500D01*
X71628Y723900D02*
X55372Y723900D01*
D13*
X228600Y464248D02*
X228600Y450152D01*
X254000Y450152D02*
X254000Y464248D01*
X279400Y464248D02*
X279400Y450152D01*
X304800Y450152D02*
X304800Y464248D01*
X330200Y464248D02*
X330200Y450152D01*
X355600Y450152D02*
X355600Y464248D01*
X381000Y464248D02*
X381000Y450152D01*
X406400Y450152D02*
X406400Y464248D01*
X431800Y464248D02*
X431800Y450152D01*
X457200Y450152D02*
X457200Y464248D01*
X482600Y464248D02*
X482600Y450152D01*
X508000Y450152D02*
X508000Y464248D01*
X228600Y602552D02*
X228600Y616648D01*
X254000Y616648D02*
X254000Y602552D01*
X279400Y602552D02*
X279400Y616648D01*
X431800Y616648D02*
X431800Y602552D01*
X457200Y602552D02*
X457200Y616648D01*
X482600Y616648D02*
X482600Y602552D01*
X508000Y602552D02*
X508000Y616648D01*
X584200Y616648D02*
X584200Y602552D01*
X584200Y464248D02*
X584200Y450152D01*
X558800Y450152D02*
X558800Y464248D01*
X533400Y464248D02*
X533400Y450152D01*
X558800Y602552D02*
X558800Y616648D01*
X533400Y616648D02*
X533400Y602552D01*
X304800Y602552D02*
X304800Y616648D01*
D14*
X241300Y558800D03*
X241300Y533400D03*
X241300Y508000D03*
D13*
X406400Y602552D02*
X406400Y616648D01*
X381000Y616648D02*
X381000Y602552D01*
X355600Y602552D02*
X355600Y616648D01*
X330200Y616648D02*
X330200Y602552D01*
D14*
X215900Y558800D03*
X215900Y533400D03*
X215900Y508000D03*
D12*
X50800Y401828D02*
X50800Y385572D01*
X76200Y385572D02*
X76200Y401828D01*
X101600Y401828D02*
X101600Y385572D01*
X127000Y385572D02*
X127000Y401828D01*
X152400Y401828D02*
X152400Y385572D01*
X177800Y385572D02*
X177800Y401828D01*
X203200Y401828D02*
X203200Y385572D01*
D15*
X127000Y444500D03*
X50800Y444500D03*
D16*
X177800Y558800D02*
X63500Y673100D01*
X177800Y558800D02*
X177800Y495300D01*
X190500Y482600D01*
X330200Y482600D01*
X355600Y457200D01*
X190500Y609600D02*
X127000Y673100D01*
X190500Y609600D02*
X190500Y508000D01*
X207010Y491490D01*
X378460Y491490D01*
X406400Y463550D01*
X406400Y457200D01*
X387350Y505460D02*
X320040Y505460D01*
X387350Y505460D02*
X431800Y461010D01*
X431800Y457200D01*
X203200Y660400D02*
X190500Y673100D01*
X203200Y660400D02*
X203200Y596900D01*
X215900Y584200D01*
X241300Y584200D01*
X320040Y505460D01*
X292100Y635000D02*
X254000Y673100D01*
X292100Y635000D02*
X292100Y556260D01*
X327660Y520700D01*
X457200Y520700D01*
X508000Y469900D01*
X508000Y457200D01*
X152400Y419100D02*
X127000Y444500D01*
X152400Y419100D02*
X152400Y393700D01*
X482600Y368300D02*
X546100Y431800D01*
X546100Y571500D01*
X558800Y584200D01*
X558800Y609600D01*
X152400Y393700D02*
X152400Y381000D01*
X165100Y368300D01*
X482600Y368300D01*
M02*
