G04 EAGLE Gerber RS-274X export*
G75*
%MOMM*%
%FSLAX34Y34*%
%LPD*%
%INTop Silkscreen*%
%IPPOS*%
%AMOC8*
5,1,8,0,0,1.08239X$1,22.5*%
G01*
%ADD10C,0.101600*%
%ADD11C,0.127000*%
%ADD12C,0.203200*%
%ADD13C,0.152400*%
%ADD14R,0.381000X0.508000*%


D10*
X51308Y737108D02*
X51308Y748792D01*
X54554Y748792D01*
X54667Y748790D01*
X54780Y748784D01*
X54893Y748774D01*
X55006Y748760D01*
X55118Y748743D01*
X55229Y748721D01*
X55339Y748696D01*
X55449Y748666D01*
X55557Y748633D01*
X55664Y748596D01*
X55770Y748556D01*
X55874Y748511D01*
X55977Y748463D01*
X56078Y748412D01*
X56177Y748357D01*
X56274Y748299D01*
X56369Y748237D01*
X56462Y748172D01*
X56552Y748104D01*
X56640Y748033D01*
X56726Y747958D01*
X56809Y747881D01*
X56889Y747801D01*
X56966Y747718D01*
X57041Y747632D01*
X57112Y747544D01*
X57180Y747454D01*
X57245Y747361D01*
X57307Y747266D01*
X57365Y747169D01*
X57420Y747070D01*
X57471Y746969D01*
X57519Y746866D01*
X57564Y746762D01*
X57604Y746656D01*
X57641Y746549D01*
X57674Y746441D01*
X57704Y746331D01*
X57729Y746221D01*
X57751Y746110D01*
X57768Y745998D01*
X57782Y745885D01*
X57792Y745772D01*
X57798Y745659D01*
X57800Y745546D01*
X57799Y745546D02*
X57799Y740354D01*
X57800Y740354D02*
X57798Y740241D01*
X57792Y740128D01*
X57782Y740015D01*
X57768Y739902D01*
X57751Y739790D01*
X57729Y739679D01*
X57704Y739569D01*
X57674Y739459D01*
X57641Y739351D01*
X57604Y739244D01*
X57564Y739138D01*
X57519Y739034D01*
X57471Y738931D01*
X57420Y738830D01*
X57365Y738731D01*
X57307Y738634D01*
X57245Y738539D01*
X57180Y738446D01*
X57112Y738356D01*
X57041Y738268D01*
X56966Y738182D01*
X56889Y738099D01*
X56809Y738019D01*
X56726Y737942D01*
X56640Y737867D01*
X56552Y737796D01*
X56462Y737728D01*
X56369Y737663D01*
X56274Y737601D01*
X56177Y737543D01*
X56078Y737488D01*
X55977Y737437D01*
X55874Y737389D01*
X55770Y737344D01*
X55664Y737304D01*
X55557Y737267D01*
X55449Y737234D01*
X55339Y737204D01*
X55229Y737179D01*
X55118Y737157D01*
X55006Y737140D01*
X54893Y737126D01*
X54780Y737116D01*
X54667Y737110D01*
X54554Y737108D01*
X51308Y737108D01*
X63119Y737108D02*
X66365Y737108D01*
X66478Y737110D01*
X66591Y737116D01*
X66704Y737126D01*
X66817Y737140D01*
X66929Y737157D01*
X67040Y737179D01*
X67150Y737204D01*
X67260Y737234D01*
X67368Y737267D01*
X67475Y737304D01*
X67581Y737344D01*
X67685Y737389D01*
X67788Y737437D01*
X67889Y737488D01*
X67988Y737543D01*
X68085Y737601D01*
X68180Y737663D01*
X68273Y737728D01*
X68363Y737796D01*
X68451Y737867D01*
X68537Y737942D01*
X68620Y738019D01*
X68700Y738099D01*
X68777Y738182D01*
X68852Y738268D01*
X68923Y738356D01*
X68991Y738446D01*
X69056Y738539D01*
X69118Y738634D01*
X69176Y738731D01*
X69231Y738830D01*
X69282Y738931D01*
X69330Y739034D01*
X69375Y739138D01*
X69415Y739244D01*
X69452Y739351D01*
X69485Y739459D01*
X69515Y739569D01*
X69540Y739679D01*
X69562Y739790D01*
X69579Y739902D01*
X69593Y740015D01*
X69603Y740128D01*
X69609Y740241D01*
X69611Y740354D01*
X69609Y740467D01*
X69603Y740580D01*
X69593Y740693D01*
X69579Y740806D01*
X69562Y740918D01*
X69540Y741029D01*
X69515Y741139D01*
X69485Y741249D01*
X69452Y741357D01*
X69415Y741464D01*
X69375Y741570D01*
X69330Y741674D01*
X69282Y741777D01*
X69231Y741878D01*
X69176Y741977D01*
X69118Y742074D01*
X69056Y742169D01*
X68991Y742262D01*
X68923Y742352D01*
X68852Y742440D01*
X68777Y742526D01*
X68700Y742609D01*
X68620Y742689D01*
X68537Y742766D01*
X68451Y742841D01*
X68363Y742912D01*
X68273Y742980D01*
X68180Y743045D01*
X68085Y743107D01*
X67988Y743165D01*
X67889Y743220D01*
X67788Y743271D01*
X67685Y743319D01*
X67581Y743364D01*
X67475Y743404D01*
X67368Y743441D01*
X67260Y743474D01*
X67150Y743504D01*
X67040Y743529D01*
X66929Y743551D01*
X66817Y743568D01*
X66704Y743582D01*
X66591Y743592D01*
X66478Y743598D01*
X66365Y743600D01*
X67014Y748792D02*
X63119Y748792D01*
X67014Y748792D02*
X67115Y748790D01*
X67215Y748784D01*
X67315Y748774D01*
X67415Y748761D01*
X67514Y748743D01*
X67613Y748722D01*
X67710Y748697D01*
X67807Y748668D01*
X67902Y748635D01*
X67996Y748599D01*
X68088Y748559D01*
X68179Y748516D01*
X68268Y748469D01*
X68355Y748419D01*
X68441Y748365D01*
X68524Y748308D01*
X68604Y748248D01*
X68683Y748185D01*
X68759Y748118D01*
X68832Y748049D01*
X68902Y747977D01*
X68970Y747903D01*
X69035Y747826D01*
X69096Y747746D01*
X69155Y747664D01*
X69210Y747580D01*
X69262Y747494D01*
X69311Y747406D01*
X69356Y747316D01*
X69398Y747224D01*
X69436Y747131D01*
X69470Y747036D01*
X69501Y746941D01*
X69528Y746844D01*
X69551Y746746D01*
X69571Y746647D01*
X69586Y746547D01*
X69598Y746447D01*
X69606Y746347D01*
X69610Y746246D01*
X69610Y746146D01*
X69606Y746045D01*
X69598Y745945D01*
X69586Y745845D01*
X69571Y745745D01*
X69551Y745646D01*
X69528Y745548D01*
X69501Y745451D01*
X69470Y745356D01*
X69436Y745261D01*
X69398Y745168D01*
X69356Y745076D01*
X69311Y744986D01*
X69262Y744898D01*
X69210Y744812D01*
X69155Y744728D01*
X69096Y744646D01*
X69035Y744566D01*
X68970Y744489D01*
X68902Y744415D01*
X68832Y744343D01*
X68759Y744274D01*
X68683Y744207D01*
X68604Y744144D01*
X68524Y744084D01*
X68441Y744027D01*
X68355Y743973D01*
X68268Y743923D01*
X68179Y743876D01*
X68088Y743833D01*
X67996Y743793D01*
X67902Y743757D01*
X67807Y743724D01*
X67710Y743695D01*
X67613Y743670D01*
X67514Y743649D01*
X67415Y743631D01*
X67315Y743618D01*
X67215Y743608D01*
X67115Y743602D01*
X67014Y743600D01*
X67014Y743599D02*
X64417Y743599D01*
X114808Y748792D02*
X114808Y737108D01*
X114808Y748792D02*
X118054Y748792D01*
X118167Y748790D01*
X118280Y748784D01*
X118393Y748774D01*
X118506Y748760D01*
X118618Y748743D01*
X118729Y748721D01*
X118839Y748696D01*
X118949Y748666D01*
X119057Y748633D01*
X119164Y748596D01*
X119270Y748556D01*
X119374Y748511D01*
X119477Y748463D01*
X119578Y748412D01*
X119677Y748357D01*
X119774Y748299D01*
X119869Y748237D01*
X119962Y748172D01*
X120052Y748104D01*
X120140Y748033D01*
X120226Y747958D01*
X120309Y747881D01*
X120389Y747801D01*
X120466Y747718D01*
X120541Y747632D01*
X120612Y747544D01*
X120680Y747454D01*
X120745Y747361D01*
X120807Y747266D01*
X120865Y747169D01*
X120920Y747070D01*
X120971Y746969D01*
X121019Y746866D01*
X121064Y746762D01*
X121104Y746656D01*
X121141Y746549D01*
X121174Y746441D01*
X121204Y746331D01*
X121229Y746221D01*
X121251Y746110D01*
X121268Y745998D01*
X121282Y745885D01*
X121292Y745772D01*
X121298Y745659D01*
X121300Y745546D01*
X121299Y745546D02*
X121299Y740354D01*
X121300Y740354D02*
X121298Y740241D01*
X121292Y740128D01*
X121282Y740015D01*
X121268Y739902D01*
X121251Y739790D01*
X121229Y739679D01*
X121204Y739569D01*
X121174Y739459D01*
X121141Y739351D01*
X121104Y739244D01*
X121064Y739138D01*
X121019Y739034D01*
X120971Y738931D01*
X120920Y738830D01*
X120865Y738731D01*
X120807Y738634D01*
X120745Y738539D01*
X120680Y738446D01*
X120612Y738356D01*
X120541Y738268D01*
X120466Y738182D01*
X120389Y738099D01*
X120309Y738019D01*
X120226Y737942D01*
X120140Y737867D01*
X120052Y737796D01*
X119962Y737728D01*
X119869Y737663D01*
X119774Y737601D01*
X119677Y737543D01*
X119578Y737488D01*
X119477Y737437D01*
X119374Y737389D01*
X119270Y737344D01*
X119164Y737304D01*
X119057Y737267D01*
X118949Y737234D01*
X118839Y737204D01*
X118729Y737179D01*
X118618Y737157D01*
X118506Y737140D01*
X118393Y737126D01*
X118280Y737116D01*
X118167Y737110D01*
X118054Y737108D01*
X114808Y737108D01*
X126619Y737108D02*
X130514Y737108D01*
X130613Y737110D01*
X130713Y737116D01*
X130812Y737125D01*
X130910Y737138D01*
X131008Y737155D01*
X131106Y737176D01*
X131202Y737201D01*
X131297Y737229D01*
X131391Y737261D01*
X131484Y737296D01*
X131576Y737335D01*
X131666Y737378D01*
X131754Y737423D01*
X131841Y737473D01*
X131925Y737525D01*
X132008Y737581D01*
X132088Y737639D01*
X132166Y737701D01*
X132241Y737766D01*
X132314Y737834D01*
X132384Y737904D01*
X132452Y737977D01*
X132517Y738052D01*
X132579Y738130D01*
X132637Y738210D01*
X132693Y738293D01*
X132745Y738377D01*
X132795Y738464D01*
X132840Y738552D01*
X132883Y738642D01*
X132922Y738734D01*
X132957Y738827D01*
X132989Y738921D01*
X133017Y739016D01*
X133042Y739112D01*
X133063Y739210D01*
X133080Y739308D01*
X133093Y739406D01*
X133102Y739505D01*
X133108Y739605D01*
X133110Y739704D01*
X133110Y741003D01*
X133108Y741102D01*
X133102Y741202D01*
X133093Y741301D01*
X133080Y741399D01*
X133063Y741497D01*
X133042Y741595D01*
X133017Y741691D01*
X132989Y741786D01*
X132957Y741880D01*
X132922Y741973D01*
X132883Y742065D01*
X132840Y742155D01*
X132795Y742243D01*
X132745Y742330D01*
X132693Y742414D01*
X132637Y742497D01*
X132579Y742577D01*
X132517Y742655D01*
X132452Y742730D01*
X132384Y742803D01*
X132314Y742873D01*
X132241Y742941D01*
X132166Y743006D01*
X132088Y743068D01*
X132008Y743126D01*
X131925Y743182D01*
X131841Y743234D01*
X131754Y743284D01*
X131666Y743329D01*
X131576Y743372D01*
X131484Y743411D01*
X131391Y743446D01*
X131297Y743478D01*
X131202Y743506D01*
X131106Y743531D01*
X131008Y743552D01*
X130910Y743569D01*
X130812Y743582D01*
X130713Y743591D01*
X130613Y743597D01*
X130514Y743599D01*
X126619Y743599D01*
X126619Y748792D01*
X133110Y748792D01*
X178308Y748792D02*
X178308Y737108D01*
X178308Y748792D02*
X181554Y748792D01*
X181667Y748790D01*
X181780Y748784D01*
X181893Y748774D01*
X182006Y748760D01*
X182118Y748743D01*
X182229Y748721D01*
X182339Y748696D01*
X182449Y748666D01*
X182557Y748633D01*
X182664Y748596D01*
X182770Y748556D01*
X182874Y748511D01*
X182977Y748463D01*
X183078Y748412D01*
X183177Y748357D01*
X183274Y748299D01*
X183369Y748237D01*
X183462Y748172D01*
X183552Y748104D01*
X183640Y748033D01*
X183726Y747958D01*
X183809Y747881D01*
X183889Y747801D01*
X183966Y747718D01*
X184041Y747632D01*
X184112Y747544D01*
X184180Y747454D01*
X184245Y747361D01*
X184307Y747266D01*
X184365Y747169D01*
X184420Y747070D01*
X184471Y746969D01*
X184519Y746866D01*
X184564Y746762D01*
X184604Y746656D01*
X184641Y746549D01*
X184674Y746441D01*
X184704Y746331D01*
X184729Y746221D01*
X184751Y746110D01*
X184768Y745998D01*
X184782Y745885D01*
X184792Y745772D01*
X184798Y745659D01*
X184800Y745546D01*
X184799Y745546D02*
X184799Y740354D01*
X184800Y740354D02*
X184798Y740241D01*
X184792Y740128D01*
X184782Y740015D01*
X184768Y739902D01*
X184751Y739790D01*
X184729Y739679D01*
X184704Y739569D01*
X184674Y739459D01*
X184641Y739351D01*
X184604Y739244D01*
X184564Y739138D01*
X184519Y739034D01*
X184471Y738931D01*
X184420Y738830D01*
X184365Y738731D01*
X184307Y738634D01*
X184245Y738539D01*
X184180Y738446D01*
X184112Y738356D01*
X184041Y738268D01*
X183966Y738182D01*
X183889Y738099D01*
X183809Y738019D01*
X183726Y737942D01*
X183640Y737867D01*
X183552Y737796D01*
X183462Y737728D01*
X183369Y737663D01*
X183274Y737601D01*
X183177Y737543D01*
X183078Y737488D01*
X182977Y737437D01*
X182874Y737389D01*
X182770Y737344D01*
X182664Y737304D01*
X182557Y737267D01*
X182449Y737234D01*
X182339Y737204D01*
X182229Y737179D01*
X182118Y737157D01*
X182006Y737140D01*
X181893Y737126D01*
X181780Y737116D01*
X181667Y737110D01*
X181554Y737108D01*
X178308Y737108D01*
X190119Y743599D02*
X194014Y743599D01*
X194113Y743597D01*
X194213Y743591D01*
X194312Y743582D01*
X194410Y743569D01*
X194508Y743552D01*
X194606Y743531D01*
X194702Y743506D01*
X194797Y743478D01*
X194891Y743446D01*
X194984Y743411D01*
X195076Y743372D01*
X195166Y743329D01*
X195254Y743284D01*
X195341Y743234D01*
X195425Y743182D01*
X195508Y743126D01*
X195588Y743068D01*
X195666Y743006D01*
X195741Y742941D01*
X195814Y742873D01*
X195884Y742803D01*
X195952Y742730D01*
X196017Y742655D01*
X196079Y742577D01*
X196137Y742497D01*
X196193Y742414D01*
X196245Y742330D01*
X196295Y742243D01*
X196340Y742155D01*
X196383Y742065D01*
X196422Y741973D01*
X196457Y741880D01*
X196489Y741786D01*
X196517Y741691D01*
X196542Y741595D01*
X196563Y741497D01*
X196580Y741399D01*
X196593Y741301D01*
X196602Y741202D01*
X196608Y741102D01*
X196610Y741003D01*
X196610Y740354D01*
X196611Y740354D02*
X196609Y740241D01*
X196603Y740128D01*
X196593Y740015D01*
X196579Y739902D01*
X196562Y739790D01*
X196540Y739679D01*
X196515Y739569D01*
X196485Y739459D01*
X196452Y739351D01*
X196415Y739244D01*
X196375Y739138D01*
X196330Y739034D01*
X196282Y738931D01*
X196231Y738830D01*
X196176Y738731D01*
X196118Y738634D01*
X196056Y738539D01*
X195991Y738446D01*
X195923Y738356D01*
X195852Y738268D01*
X195777Y738182D01*
X195700Y738099D01*
X195620Y738019D01*
X195537Y737942D01*
X195451Y737867D01*
X195363Y737796D01*
X195273Y737728D01*
X195180Y737663D01*
X195085Y737601D01*
X194988Y737543D01*
X194889Y737488D01*
X194788Y737437D01*
X194685Y737389D01*
X194581Y737344D01*
X194475Y737304D01*
X194368Y737267D01*
X194260Y737234D01*
X194150Y737204D01*
X194040Y737179D01*
X193929Y737157D01*
X193817Y737140D01*
X193704Y737126D01*
X193591Y737116D01*
X193478Y737110D01*
X193365Y737108D01*
X193252Y737110D01*
X193139Y737116D01*
X193026Y737126D01*
X192913Y737140D01*
X192801Y737157D01*
X192690Y737179D01*
X192580Y737204D01*
X192470Y737234D01*
X192362Y737267D01*
X192255Y737304D01*
X192149Y737344D01*
X192045Y737389D01*
X191942Y737437D01*
X191841Y737488D01*
X191742Y737543D01*
X191645Y737601D01*
X191550Y737663D01*
X191457Y737728D01*
X191367Y737796D01*
X191279Y737867D01*
X191193Y737942D01*
X191110Y738019D01*
X191030Y738099D01*
X190953Y738182D01*
X190878Y738268D01*
X190807Y738356D01*
X190739Y738446D01*
X190674Y738539D01*
X190612Y738634D01*
X190554Y738731D01*
X190499Y738830D01*
X190448Y738931D01*
X190400Y739034D01*
X190355Y739138D01*
X190315Y739244D01*
X190278Y739351D01*
X190245Y739459D01*
X190215Y739569D01*
X190190Y739679D01*
X190168Y739790D01*
X190151Y739902D01*
X190137Y740015D01*
X190127Y740128D01*
X190121Y740241D01*
X190119Y740354D01*
X190119Y743599D01*
X190121Y743742D01*
X190127Y743885D01*
X190137Y744028D01*
X190151Y744170D01*
X190168Y744312D01*
X190190Y744454D01*
X190215Y744595D01*
X190245Y744735D01*
X190278Y744874D01*
X190315Y745012D01*
X190356Y745149D01*
X190400Y745285D01*
X190449Y745420D01*
X190501Y745553D01*
X190556Y745685D01*
X190616Y745815D01*
X190679Y745944D01*
X190745Y746071D01*
X190815Y746195D01*
X190888Y746318D01*
X190965Y746439D01*
X191045Y746558D01*
X191128Y746674D01*
X191214Y746789D01*
X191303Y746900D01*
X191396Y747010D01*
X191491Y747116D01*
X191590Y747220D01*
X191691Y747321D01*
X191795Y747420D01*
X191901Y747515D01*
X192011Y747608D01*
X192122Y747697D01*
X192237Y747783D01*
X192353Y747866D01*
X192472Y747946D01*
X192593Y748023D01*
X192715Y748096D01*
X192840Y748166D01*
X192967Y748232D01*
X193096Y748295D01*
X193226Y748355D01*
X193358Y748410D01*
X193491Y748462D01*
X193626Y748511D01*
X193762Y748555D01*
X193899Y748596D01*
X194037Y748633D01*
X194176Y748666D01*
X194316Y748696D01*
X194457Y748721D01*
X194599Y748743D01*
X194741Y748760D01*
X194883Y748774D01*
X195026Y748784D01*
X195169Y748790D01*
X195312Y748792D01*
X241808Y748792D02*
X241808Y737108D01*
X241808Y748792D02*
X245054Y748792D01*
X245167Y748790D01*
X245280Y748784D01*
X245393Y748774D01*
X245506Y748760D01*
X245618Y748743D01*
X245729Y748721D01*
X245839Y748696D01*
X245949Y748666D01*
X246057Y748633D01*
X246164Y748596D01*
X246270Y748556D01*
X246374Y748511D01*
X246477Y748463D01*
X246578Y748412D01*
X246677Y748357D01*
X246774Y748299D01*
X246869Y748237D01*
X246962Y748172D01*
X247052Y748104D01*
X247140Y748033D01*
X247226Y747958D01*
X247309Y747881D01*
X247389Y747801D01*
X247466Y747718D01*
X247541Y747632D01*
X247612Y747544D01*
X247680Y747454D01*
X247745Y747361D01*
X247807Y747266D01*
X247865Y747169D01*
X247920Y747070D01*
X247971Y746969D01*
X248019Y746866D01*
X248064Y746762D01*
X248104Y746656D01*
X248141Y746549D01*
X248174Y746441D01*
X248204Y746331D01*
X248229Y746221D01*
X248251Y746110D01*
X248268Y745998D01*
X248282Y745885D01*
X248292Y745772D01*
X248298Y745659D01*
X248300Y745546D01*
X248299Y745546D02*
X248299Y740354D01*
X248300Y740354D02*
X248298Y740241D01*
X248292Y740128D01*
X248282Y740015D01*
X248268Y739902D01*
X248251Y739790D01*
X248229Y739679D01*
X248204Y739569D01*
X248174Y739459D01*
X248141Y739351D01*
X248104Y739244D01*
X248064Y739138D01*
X248019Y739034D01*
X247971Y738931D01*
X247920Y738830D01*
X247865Y738731D01*
X247807Y738634D01*
X247745Y738539D01*
X247680Y738446D01*
X247612Y738356D01*
X247541Y738268D01*
X247466Y738182D01*
X247389Y738099D01*
X247309Y738019D01*
X247226Y737942D01*
X247140Y737867D01*
X247052Y737796D01*
X246962Y737728D01*
X246869Y737663D01*
X246774Y737601D01*
X246677Y737543D01*
X246578Y737488D01*
X246477Y737437D01*
X246374Y737389D01*
X246270Y737344D01*
X246164Y737304D01*
X246057Y737267D01*
X245949Y737234D01*
X245839Y737204D01*
X245729Y737179D01*
X245618Y737157D01*
X245506Y737140D01*
X245393Y737126D01*
X245280Y737116D01*
X245167Y737110D01*
X245054Y737108D01*
X241808Y737108D01*
X256215Y742301D02*
X260110Y742301D01*
X256215Y742301D02*
X256116Y742303D01*
X256016Y742309D01*
X255917Y742318D01*
X255819Y742331D01*
X255721Y742348D01*
X255623Y742369D01*
X255527Y742394D01*
X255432Y742422D01*
X255338Y742454D01*
X255245Y742489D01*
X255153Y742528D01*
X255063Y742571D01*
X254975Y742616D01*
X254888Y742666D01*
X254804Y742718D01*
X254721Y742774D01*
X254641Y742832D01*
X254563Y742894D01*
X254488Y742959D01*
X254415Y743027D01*
X254345Y743097D01*
X254277Y743170D01*
X254212Y743245D01*
X254150Y743323D01*
X254092Y743403D01*
X254036Y743486D01*
X253984Y743570D01*
X253934Y743657D01*
X253889Y743745D01*
X253846Y743835D01*
X253807Y743927D01*
X253772Y744020D01*
X253740Y744114D01*
X253712Y744209D01*
X253687Y744305D01*
X253666Y744403D01*
X253649Y744501D01*
X253636Y744599D01*
X253627Y744698D01*
X253621Y744798D01*
X253619Y744897D01*
X253619Y745546D01*
X253621Y745659D01*
X253627Y745772D01*
X253637Y745885D01*
X253651Y745998D01*
X253668Y746110D01*
X253690Y746221D01*
X253715Y746331D01*
X253745Y746441D01*
X253778Y746549D01*
X253815Y746656D01*
X253855Y746762D01*
X253900Y746866D01*
X253948Y746969D01*
X253999Y747070D01*
X254054Y747169D01*
X254112Y747266D01*
X254174Y747361D01*
X254239Y747454D01*
X254307Y747544D01*
X254378Y747632D01*
X254453Y747718D01*
X254530Y747801D01*
X254610Y747881D01*
X254693Y747958D01*
X254779Y748033D01*
X254867Y748104D01*
X254957Y748172D01*
X255050Y748237D01*
X255145Y748299D01*
X255242Y748357D01*
X255341Y748412D01*
X255442Y748463D01*
X255545Y748511D01*
X255649Y748556D01*
X255755Y748596D01*
X255862Y748633D01*
X255970Y748666D01*
X256080Y748696D01*
X256190Y748721D01*
X256301Y748743D01*
X256413Y748760D01*
X256526Y748774D01*
X256639Y748784D01*
X256752Y748790D01*
X256865Y748792D01*
X256978Y748790D01*
X257091Y748784D01*
X257204Y748774D01*
X257317Y748760D01*
X257429Y748743D01*
X257540Y748721D01*
X257650Y748696D01*
X257760Y748666D01*
X257868Y748633D01*
X257975Y748596D01*
X258081Y748556D01*
X258185Y748511D01*
X258288Y748463D01*
X258389Y748412D01*
X258488Y748357D01*
X258585Y748299D01*
X258680Y748237D01*
X258773Y748172D01*
X258863Y748104D01*
X258951Y748033D01*
X259037Y747958D01*
X259120Y747881D01*
X259200Y747801D01*
X259277Y747718D01*
X259352Y747632D01*
X259423Y747544D01*
X259491Y747454D01*
X259556Y747361D01*
X259618Y747266D01*
X259676Y747169D01*
X259731Y747070D01*
X259782Y746969D01*
X259830Y746866D01*
X259875Y746762D01*
X259915Y746656D01*
X259952Y746549D01*
X259985Y746441D01*
X260015Y746331D01*
X260040Y746221D01*
X260062Y746110D01*
X260079Y745998D01*
X260093Y745885D01*
X260103Y745772D01*
X260109Y745659D01*
X260111Y745546D01*
X260110Y745546D02*
X260110Y742301D01*
X260108Y742158D01*
X260102Y742015D01*
X260092Y741872D01*
X260078Y741730D01*
X260061Y741588D01*
X260039Y741446D01*
X260014Y741305D01*
X259984Y741165D01*
X259951Y741026D01*
X259914Y740888D01*
X259873Y740751D01*
X259829Y740615D01*
X259780Y740480D01*
X259728Y740347D01*
X259673Y740215D01*
X259613Y740085D01*
X259550Y739956D01*
X259484Y739829D01*
X259414Y739705D01*
X259341Y739582D01*
X259264Y739461D01*
X259184Y739342D01*
X259101Y739226D01*
X259015Y739111D01*
X258926Y739000D01*
X258833Y738890D01*
X258738Y738784D01*
X258639Y738680D01*
X258538Y738579D01*
X258434Y738480D01*
X258328Y738385D01*
X258218Y738292D01*
X258107Y738203D01*
X257992Y738117D01*
X257876Y738034D01*
X257757Y737954D01*
X257636Y737877D01*
X257513Y737804D01*
X257389Y737734D01*
X257262Y737668D01*
X257133Y737605D01*
X257003Y737545D01*
X256871Y737490D01*
X256738Y737438D01*
X256603Y737389D01*
X256467Y737345D01*
X256330Y737304D01*
X256192Y737267D01*
X256053Y737234D01*
X255913Y737204D01*
X255772Y737179D01*
X255630Y737157D01*
X255488Y737140D01*
X255346Y737126D01*
X255203Y737116D01*
X255060Y737110D01*
X254917Y737108D01*
D11*
X305435Y684565D02*
X305435Y670835D01*
X305435Y684565D02*
X309249Y684565D01*
X309371Y684563D01*
X309493Y684557D01*
X309615Y684547D01*
X309737Y684534D01*
X309858Y684516D01*
X309978Y684495D01*
X310098Y684469D01*
X310216Y684440D01*
X310334Y684407D01*
X310451Y684371D01*
X310566Y684330D01*
X310680Y684286D01*
X310793Y684239D01*
X310904Y684187D01*
X311013Y684132D01*
X311121Y684074D01*
X311226Y684013D01*
X311330Y683947D01*
X311431Y683879D01*
X311530Y683808D01*
X311627Y683733D01*
X311721Y683655D01*
X311813Y683574D01*
X311902Y683491D01*
X311989Y683404D01*
X312072Y683315D01*
X312153Y683223D01*
X312231Y683129D01*
X312306Y683032D01*
X312377Y682933D01*
X312445Y682832D01*
X312511Y682728D01*
X312572Y682623D01*
X312630Y682515D01*
X312685Y682406D01*
X312737Y682295D01*
X312784Y682182D01*
X312828Y682068D01*
X312869Y681953D01*
X312905Y681836D01*
X312938Y681718D01*
X312967Y681600D01*
X312993Y681480D01*
X313014Y681360D01*
X313032Y681239D01*
X313045Y681117D01*
X313055Y680995D01*
X313061Y680873D01*
X313063Y680751D01*
X313061Y680629D01*
X313055Y680507D01*
X313045Y680385D01*
X313032Y680263D01*
X313014Y680142D01*
X312993Y680022D01*
X312967Y679902D01*
X312938Y679784D01*
X312905Y679666D01*
X312869Y679549D01*
X312828Y679434D01*
X312784Y679320D01*
X312737Y679207D01*
X312685Y679096D01*
X312630Y678987D01*
X312572Y678879D01*
X312511Y678774D01*
X312445Y678670D01*
X312377Y678569D01*
X312306Y678470D01*
X312231Y678373D01*
X312153Y678279D01*
X312072Y678187D01*
X311989Y678098D01*
X311902Y678011D01*
X311813Y677928D01*
X311721Y677847D01*
X311627Y677769D01*
X311530Y677694D01*
X311431Y677623D01*
X311330Y677555D01*
X311226Y677489D01*
X311121Y677428D01*
X311013Y677370D01*
X310904Y677315D01*
X310793Y677263D01*
X310680Y677216D01*
X310566Y677172D01*
X310451Y677131D01*
X310334Y677095D01*
X310216Y677062D01*
X310098Y677033D01*
X309978Y677007D01*
X309858Y676986D01*
X309737Y676968D01*
X309615Y676955D01*
X309493Y676945D01*
X309371Y676939D01*
X309249Y676937D01*
X305435Y676937D01*
X310012Y676937D02*
X313063Y670835D01*
X318708Y673886D02*
X318708Y676937D01*
X318710Y677046D01*
X318716Y677155D01*
X318725Y677263D01*
X318739Y677371D01*
X318756Y677479D01*
X318778Y677586D01*
X318803Y677692D01*
X318832Y677797D01*
X318864Y677901D01*
X318900Y678003D01*
X318940Y678105D01*
X318984Y678204D01*
X319031Y678303D01*
X319081Y678399D01*
X319135Y678494D01*
X319192Y678586D01*
X319253Y678677D01*
X319317Y678765D01*
X319383Y678851D01*
X319453Y678935D01*
X319526Y679016D01*
X319602Y679094D01*
X319680Y679170D01*
X319761Y679243D01*
X319845Y679313D01*
X319931Y679379D01*
X320019Y679443D01*
X320110Y679504D01*
X320202Y679561D01*
X320297Y679615D01*
X320393Y679665D01*
X320492Y679712D01*
X320591Y679756D01*
X320693Y679796D01*
X320795Y679832D01*
X320899Y679864D01*
X321004Y679893D01*
X321110Y679918D01*
X321217Y679940D01*
X321325Y679957D01*
X321433Y679971D01*
X321541Y679980D01*
X321650Y679986D01*
X321759Y679988D01*
X321868Y679986D01*
X321977Y679980D01*
X322085Y679971D01*
X322193Y679957D01*
X322301Y679940D01*
X322408Y679918D01*
X322514Y679893D01*
X322619Y679864D01*
X322723Y679832D01*
X322825Y679796D01*
X322927Y679756D01*
X323026Y679712D01*
X323125Y679665D01*
X323221Y679615D01*
X323316Y679561D01*
X323408Y679504D01*
X323499Y679443D01*
X323587Y679379D01*
X323673Y679313D01*
X323757Y679243D01*
X323838Y679170D01*
X323916Y679094D01*
X323992Y679016D01*
X324065Y678935D01*
X324135Y678851D01*
X324201Y678765D01*
X324265Y678677D01*
X324326Y678586D01*
X324383Y678494D01*
X324437Y678399D01*
X324487Y678303D01*
X324534Y678204D01*
X324578Y678105D01*
X324618Y678003D01*
X324654Y677901D01*
X324686Y677797D01*
X324715Y677692D01*
X324740Y677586D01*
X324762Y677479D01*
X324779Y677371D01*
X324793Y677263D01*
X324802Y677155D01*
X324808Y677046D01*
X324810Y676937D01*
X324810Y673886D01*
X324808Y673777D01*
X324802Y673668D01*
X324793Y673560D01*
X324779Y673452D01*
X324762Y673344D01*
X324740Y673237D01*
X324715Y673131D01*
X324686Y673026D01*
X324654Y672922D01*
X324618Y672820D01*
X324578Y672718D01*
X324534Y672619D01*
X324487Y672520D01*
X324437Y672424D01*
X324383Y672329D01*
X324326Y672237D01*
X324265Y672146D01*
X324201Y672058D01*
X324135Y671972D01*
X324065Y671888D01*
X323992Y671807D01*
X323916Y671729D01*
X323838Y671653D01*
X323757Y671580D01*
X323673Y671510D01*
X323587Y671444D01*
X323499Y671380D01*
X323408Y671319D01*
X323316Y671262D01*
X323221Y671208D01*
X323125Y671158D01*
X323026Y671111D01*
X322927Y671067D01*
X322825Y671027D01*
X322723Y670991D01*
X322619Y670959D01*
X322514Y670930D01*
X322408Y670905D01*
X322301Y670883D01*
X322193Y670866D01*
X322085Y670852D01*
X321977Y670843D01*
X321868Y670837D01*
X321759Y670835D01*
X321650Y670837D01*
X321541Y670843D01*
X321433Y670852D01*
X321325Y670866D01*
X321217Y670883D01*
X321110Y670905D01*
X321004Y670930D01*
X320899Y670959D01*
X320795Y670991D01*
X320693Y671027D01*
X320591Y671067D01*
X320492Y671111D01*
X320393Y671158D01*
X320297Y671208D01*
X320202Y671262D01*
X320110Y671319D01*
X320019Y671380D01*
X319931Y671444D01*
X319845Y671510D01*
X319761Y671580D01*
X319680Y671653D01*
X319602Y671729D01*
X319526Y671807D01*
X319453Y671888D01*
X319383Y671972D01*
X319317Y672058D01*
X319253Y672146D01*
X319192Y672237D01*
X319135Y672329D01*
X319081Y672424D01*
X319031Y672520D01*
X318984Y672619D01*
X318940Y672718D01*
X318900Y672820D01*
X318864Y672922D01*
X318832Y673026D01*
X318803Y673131D01*
X318778Y673237D01*
X318756Y673344D01*
X318739Y673452D01*
X318725Y673560D01*
X318716Y673668D01*
X318710Y673777D01*
X318708Y673886D01*
X330930Y670835D02*
X330930Y684565D01*
X330930Y670835D02*
X334744Y670835D01*
X334839Y670837D01*
X334933Y670843D01*
X335027Y670853D01*
X335121Y670866D01*
X335214Y670884D01*
X335306Y670905D01*
X335397Y670930D01*
X335487Y670959D01*
X335576Y670992D01*
X335663Y671028D01*
X335749Y671067D01*
X335833Y671111D01*
X335915Y671157D01*
X335995Y671208D01*
X336073Y671261D01*
X336149Y671317D01*
X336223Y671377D01*
X336294Y671440D01*
X336362Y671505D01*
X336427Y671573D01*
X336490Y671644D01*
X336550Y671718D01*
X336606Y671793D01*
X336659Y671872D01*
X336710Y671952D01*
X336756Y672034D01*
X336800Y672118D01*
X336839Y672204D01*
X336875Y672291D01*
X336908Y672380D01*
X336937Y672470D01*
X336962Y672561D01*
X336983Y672653D01*
X337001Y672746D01*
X337014Y672840D01*
X337024Y672934D01*
X337030Y673028D01*
X337032Y673123D01*
X337032Y677700D01*
X337030Y677795D01*
X337024Y677889D01*
X337014Y677983D01*
X337001Y678077D01*
X336983Y678170D01*
X336962Y678262D01*
X336937Y678353D01*
X336908Y678443D01*
X336875Y678532D01*
X336839Y678619D01*
X336800Y678705D01*
X336756Y678789D01*
X336710Y678871D01*
X336659Y678951D01*
X336606Y679030D01*
X336550Y679105D01*
X336490Y679179D01*
X336427Y679250D01*
X336362Y679318D01*
X336294Y679383D01*
X336223Y679446D01*
X336149Y679506D01*
X336074Y679562D01*
X335995Y679615D01*
X335915Y679666D01*
X335833Y679712D01*
X335749Y679756D01*
X335663Y679795D01*
X335576Y679831D01*
X335487Y679864D01*
X335397Y679893D01*
X335306Y679918D01*
X335214Y679939D01*
X335121Y679957D01*
X335027Y679970D01*
X334933Y679980D01*
X334839Y679986D01*
X334744Y679988D01*
X330930Y679988D01*
X342558Y676937D02*
X342558Y673886D01*
X342558Y676937D02*
X342560Y677046D01*
X342566Y677155D01*
X342575Y677263D01*
X342589Y677371D01*
X342606Y677479D01*
X342628Y677586D01*
X342653Y677692D01*
X342682Y677797D01*
X342714Y677901D01*
X342750Y678003D01*
X342790Y678105D01*
X342834Y678204D01*
X342881Y678303D01*
X342931Y678399D01*
X342985Y678494D01*
X343042Y678586D01*
X343103Y678677D01*
X343167Y678765D01*
X343233Y678851D01*
X343303Y678935D01*
X343376Y679016D01*
X343452Y679094D01*
X343530Y679170D01*
X343611Y679243D01*
X343695Y679313D01*
X343781Y679379D01*
X343869Y679443D01*
X343960Y679504D01*
X344052Y679561D01*
X344147Y679615D01*
X344243Y679665D01*
X344342Y679712D01*
X344441Y679756D01*
X344543Y679796D01*
X344645Y679832D01*
X344749Y679864D01*
X344854Y679893D01*
X344960Y679918D01*
X345067Y679940D01*
X345175Y679957D01*
X345283Y679971D01*
X345391Y679980D01*
X345500Y679986D01*
X345609Y679988D01*
X345718Y679986D01*
X345827Y679980D01*
X345935Y679971D01*
X346043Y679957D01*
X346151Y679940D01*
X346258Y679918D01*
X346364Y679893D01*
X346469Y679864D01*
X346573Y679832D01*
X346675Y679796D01*
X346777Y679756D01*
X346876Y679712D01*
X346975Y679665D01*
X347071Y679615D01*
X347166Y679561D01*
X347258Y679504D01*
X347349Y679443D01*
X347437Y679379D01*
X347523Y679313D01*
X347607Y679243D01*
X347688Y679170D01*
X347766Y679094D01*
X347842Y679016D01*
X347915Y678935D01*
X347985Y678851D01*
X348051Y678765D01*
X348115Y678677D01*
X348176Y678586D01*
X348233Y678494D01*
X348287Y678399D01*
X348337Y678303D01*
X348384Y678204D01*
X348428Y678105D01*
X348468Y678003D01*
X348504Y677901D01*
X348536Y677797D01*
X348565Y677692D01*
X348590Y677586D01*
X348612Y677479D01*
X348629Y677371D01*
X348643Y677263D01*
X348652Y677155D01*
X348658Y677046D01*
X348660Y676937D01*
X348660Y673886D01*
X348658Y673777D01*
X348652Y673668D01*
X348643Y673560D01*
X348629Y673452D01*
X348612Y673344D01*
X348590Y673237D01*
X348565Y673131D01*
X348536Y673026D01*
X348504Y672922D01*
X348468Y672820D01*
X348428Y672718D01*
X348384Y672619D01*
X348337Y672520D01*
X348287Y672424D01*
X348233Y672329D01*
X348176Y672237D01*
X348115Y672146D01*
X348051Y672058D01*
X347985Y671972D01*
X347915Y671888D01*
X347842Y671807D01*
X347766Y671729D01*
X347688Y671653D01*
X347607Y671580D01*
X347523Y671510D01*
X347437Y671444D01*
X347349Y671380D01*
X347258Y671319D01*
X347166Y671262D01*
X347071Y671208D01*
X346975Y671158D01*
X346876Y671111D01*
X346777Y671067D01*
X346675Y671027D01*
X346573Y670991D01*
X346469Y670959D01*
X346364Y670930D01*
X346258Y670905D01*
X346151Y670883D01*
X346043Y670866D01*
X345935Y670852D01*
X345827Y670843D01*
X345718Y670837D01*
X345609Y670835D01*
X345500Y670837D01*
X345391Y670843D01*
X345283Y670852D01*
X345175Y670866D01*
X345067Y670883D01*
X344960Y670905D01*
X344854Y670930D01*
X344749Y670959D01*
X344645Y670991D01*
X344543Y671027D01*
X344441Y671067D01*
X344342Y671111D01*
X344243Y671158D01*
X344147Y671208D01*
X344052Y671262D01*
X343960Y671319D01*
X343869Y671380D01*
X343781Y671444D01*
X343695Y671510D01*
X343611Y671580D01*
X343530Y671653D01*
X343452Y671729D01*
X343376Y671807D01*
X343303Y671888D01*
X343233Y671972D01*
X343167Y672058D01*
X343103Y672146D01*
X343042Y672237D01*
X342985Y672329D01*
X342931Y672424D01*
X342881Y672520D01*
X342834Y672619D01*
X342790Y672718D01*
X342750Y672820D01*
X342714Y672922D01*
X342682Y673026D01*
X342653Y673131D01*
X342628Y673237D01*
X342606Y673344D01*
X342589Y673452D01*
X342575Y673560D01*
X342566Y673668D01*
X342560Y673777D01*
X342558Y673886D01*
X353109Y679988D02*
X357685Y679988D01*
X354634Y684565D02*
X354634Y673123D01*
X354635Y673123D02*
X354637Y673028D01*
X354643Y672934D01*
X354653Y672840D01*
X354666Y672746D01*
X354684Y672653D01*
X354705Y672561D01*
X354730Y672470D01*
X354759Y672380D01*
X354792Y672291D01*
X354828Y672204D01*
X354867Y672118D01*
X354911Y672034D01*
X354957Y671952D01*
X355008Y671872D01*
X355061Y671793D01*
X355117Y671718D01*
X355177Y671644D01*
X355240Y671573D01*
X355305Y671505D01*
X355373Y671440D01*
X355444Y671377D01*
X355518Y671317D01*
X355594Y671261D01*
X355672Y671208D01*
X355752Y671157D01*
X355834Y671111D01*
X355918Y671067D01*
X356004Y671028D01*
X356091Y670992D01*
X356180Y670959D01*
X356270Y670930D01*
X356361Y670905D01*
X356453Y670884D01*
X356546Y670866D01*
X356640Y670853D01*
X356734Y670843D01*
X356828Y670837D01*
X356923Y670835D01*
X357685Y670835D01*
X372606Y676174D02*
X376039Y676174D01*
X372606Y676175D02*
X372504Y676173D01*
X372402Y676167D01*
X372300Y676157D01*
X372198Y676144D01*
X372098Y676126D01*
X371998Y676105D01*
X371898Y676080D01*
X371800Y676051D01*
X371703Y676018D01*
X371608Y675981D01*
X371514Y675941D01*
X371421Y675898D01*
X371330Y675851D01*
X371242Y675800D01*
X371155Y675746D01*
X371070Y675689D01*
X370987Y675628D01*
X370907Y675565D01*
X370830Y675498D01*
X370755Y675429D01*
X370682Y675356D01*
X370613Y675281D01*
X370546Y675204D01*
X370483Y675124D01*
X370422Y675041D01*
X370365Y674956D01*
X370311Y674869D01*
X370260Y674781D01*
X370213Y674690D01*
X370170Y674597D01*
X370130Y674503D01*
X370093Y674408D01*
X370060Y674311D01*
X370031Y674213D01*
X370006Y674113D01*
X369985Y674013D01*
X369967Y673913D01*
X369954Y673811D01*
X369944Y673709D01*
X369938Y673607D01*
X369936Y673505D01*
X369938Y673403D01*
X369944Y673301D01*
X369954Y673199D01*
X369967Y673097D01*
X369985Y672997D01*
X370006Y672897D01*
X370031Y672797D01*
X370060Y672699D01*
X370093Y672602D01*
X370130Y672507D01*
X370170Y672413D01*
X370213Y672320D01*
X370260Y672229D01*
X370311Y672141D01*
X370365Y672054D01*
X370422Y671969D01*
X370483Y671886D01*
X370546Y671806D01*
X370613Y671729D01*
X370682Y671654D01*
X370755Y671581D01*
X370830Y671512D01*
X370907Y671445D01*
X370987Y671382D01*
X371070Y671321D01*
X371155Y671264D01*
X371242Y671210D01*
X371330Y671159D01*
X371421Y671112D01*
X371514Y671069D01*
X371608Y671029D01*
X371703Y670992D01*
X371800Y670959D01*
X371898Y670930D01*
X371998Y670905D01*
X372098Y670884D01*
X372198Y670866D01*
X372300Y670853D01*
X372402Y670843D01*
X372504Y670837D01*
X372606Y670835D01*
X376039Y670835D01*
X376039Y677700D01*
X376038Y677700D02*
X376036Y677795D01*
X376030Y677889D01*
X376020Y677983D01*
X376007Y678077D01*
X375989Y678170D01*
X375968Y678262D01*
X375943Y678353D01*
X375914Y678443D01*
X375881Y678532D01*
X375845Y678619D01*
X375806Y678705D01*
X375762Y678789D01*
X375716Y678871D01*
X375665Y678951D01*
X375612Y679030D01*
X375556Y679105D01*
X375496Y679179D01*
X375433Y679250D01*
X375368Y679318D01*
X375300Y679383D01*
X375229Y679446D01*
X375155Y679506D01*
X375080Y679562D01*
X375001Y679615D01*
X374921Y679666D01*
X374839Y679712D01*
X374755Y679756D01*
X374669Y679795D01*
X374582Y679831D01*
X374493Y679864D01*
X374403Y679893D01*
X374312Y679918D01*
X374220Y679939D01*
X374127Y679957D01*
X374033Y679970D01*
X373939Y679980D01*
X373845Y679986D01*
X373750Y679988D01*
X370699Y679988D01*
X382689Y679988D02*
X382689Y670835D01*
X382689Y679988D02*
X387265Y679988D01*
X387265Y678463D01*
X392333Y679988D02*
X392333Y670835D01*
X392333Y679988D02*
X399198Y679988D01*
X399293Y679986D01*
X399387Y679980D01*
X399481Y679970D01*
X399575Y679957D01*
X399668Y679939D01*
X399760Y679918D01*
X399851Y679893D01*
X399941Y679864D01*
X400030Y679831D01*
X400117Y679795D01*
X400203Y679756D01*
X400287Y679712D01*
X400369Y679666D01*
X400449Y679615D01*
X400528Y679562D01*
X400603Y679506D01*
X400677Y679446D01*
X400748Y679383D01*
X400816Y679318D01*
X400881Y679250D01*
X400944Y679179D01*
X401004Y679105D01*
X401060Y679030D01*
X401113Y678951D01*
X401164Y678871D01*
X401210Y678789D01*
X401254Y678705D01*
X401293Y678619D01*
X401329Y678532D01*
X401362Y678443D01*
X401391Y678353D01*
X401416Y678262D01*
X401437Y678170D01*
X401455Y678077D01*
X401468Y677983D01*
X401478Y677889D01*
X401484Y677795D01*
X401486Y677700D01*
X401486Y670835D01*
X396909Y670835D02*
X396909Y679988D01*
X415282Y676174D02*
X424436Y676174D01*
X419859Y671598D02*
X419859Y680751D01*
X438301Y684565D02*
X438301Y670835D01*
X438301Y684565D02*
X442115Y684565D01*
X442237Y684563D01*
X442359Y684557D01*
X442481Y684547D01*
X442603Y684534D01*
X442724Y684516D01*
X442844Y684495D01*
X442964Y684469D01*
X443082Y684440D01*
X443200Y684407D01*
X443317Y684371D01*
X443432Y684330D01*
X443546Y684286D01*
X443659Y684239D01*
X443770Y684187D01*
X443879Y684132D01*
X443987Y684074D01*
X444092Y684013D01*
X444196Y683947D01*
X444297Y683879D01*
X444396Y683808D01*
X444493Y683733D01*
X444587Y683655D01*
X444679Y683574D01*
X444768Y683491D01*
X444855Y683404D01*
X444938Y683315D01*
X445019Y683223D01*
X445097Y683129D01*
X445172Y683032D01*
X445243Y682933D01*
X445311Y682832D01*
X445377Y682728D01*
X445438Y682623D01*
X445496Y682515D01*
X445551Y682406D01*
X445603Y682295D01*
X445650Y682182D01*
X445694Y682068D01*
X445735Y681953D01*
X445771Y681836D01*
X445804Y681718D01*
X445833Y681600D01*
X445859Y681480D01*
X445880Y681360D01*
X445898Y681239D01*
X445911Y681117D01*
X445921Y680995D01*
X445927Y680873D01*
X445929Y680751D01*
X445927Y680629D01*
X445921Y680507D01*
X445911Y680385D01*
X445898Y680263D01*
X445880Y680142D01*
X445859Y680022D01*
X445833Y679902D01*
X445804Y679784D01*
X445771Y679666D01*
X445735Y679549D01*
X445694Y679434D01*
X445650Y679320D01*
X445603Y679207D01*
X445551Y679096D01*
X445496Y678987D01*
X445438Y678879D01*
X445377Y678774D01*
X445311Y678670D01*
X445243Y678569D01*
X445172Y678470D01*
X445097Y678373D01*
X445019Y678279D01*
X444938Y678187D01*
X444855Y678098D01*
X444768Y678011D01*
X444679Y677928D01*
X444587Y677847D01*
X444493Y677769D01*
X444396Y677694D01*
X444297Y677623D01*
X444196Y677555D01*
X444092Y677489D01*
X443987Y677428D01*
X443879Y677370D01*
X443770Y677315D01*
X443659Y677263D01*
X443546Y677216D01*
X443432Y677172D01*
X443317Y677131D01*
X443200Y677095D01*
X443082Y677062D01*
X442964Y677033D01*
X442844Y677007D01*
X442724Y676986D01*
X442603Y676968D01*
X442481Y676955D01*
X442359Y676945D01*
X442237Y676939D01*
X442115Y676937D01*
X438301Y676937D01*
X455272Y670835D02*
X455381Y670837D01*
X455490Y670843D01*
X455598Y670852D01*
X455706Y670866D01*
X455814Y670883D01*
X455921Y670905D01*
X456027Y670930D01*
X456132Y670959D01*
X456236Y670991D01*
X456338Y671027D01*
X456440Y671067D01*
X456539Y671111D01*
X456638Y671158D01*
X456734Y671208D01*
X456829Y671262D01*
X456922Y671319D01*
X457012Y671380D01*
X457100Y671444D01*
X457186Y671510D01*
X457270Y671580D01*
X457351Y671653D01*
X457429Y671729D01*
X457505Y671807D01*
X457578Y671888D01*
X457648Y671972D01*
X457714Y672058D01*
X457778Y672146D01*
X457839Y672237D01*
X457896Y672329D01*
X457950Y672424D01*
X458000Y672520D01*
X458047Y672619D01*
X458091Y672718D01*
X458131Y672820D01*
X458167Y672923D01*
X458199Y673026D01*
X458228Y673131D01*
X458253Y673237D01*
X458275Y673344D01*
X458292Y673452D01*
X458306Y673560D01*
X458315Y673668D01*
X458321Y673777D01*
X458323Y673886D01*
X455272Y670835D02*
X455113Y670837D01*
X454954Y670843D01*
X454795Y670853D01*
X454637Y670866D01*
X454479Y670884D01*
X454321Y670905D01*
X454164Y670931D01*
X454008Y670960D01*
X453853Y670993D01*
X453698Y671030D01*
X453544Y671071D01*
X453391Y671115D01*
X453240Y671164D01*
X453090Y671216D01*
X452941Y671271D01*
X452793Y671331D01*
X452647Y671394D01*
X452503Y671460D01*
X452360Y671530D01*
X452219Y671604D01*
X452080Y671681D01*
X451943Y671761D01*
X451808Y671845D01*
X451675Y671932D01*
X451544Y672023D01*
X451415Y672116D01*
X451289Y672213D01*
X451165Y672313D01*
X451044Y672416D01*
X450925Y672522D01*
X450809Y672630D01*
X450696Y672742D01*
X451077Y681514D02*
X451079Y681623D01*
X451085Y681732D01*
X451094Y681840D01*
X451108Y681948D01*
X451125Y682056D01*
X451147Y682163D01*
X451172Y682269D01*
X451201Y682374D01*
X451233Y682478D01*
X451269Y682580D01*
X451309Y682682D01*
X451353Y682781D01*
X451400Y682880D01*
X451450Y682976D01*
X451504Y683071D01*
X451561Y683163D01*
X451622Y683254D01*
X451686Y683342D01*
X451752Y683428D01*
X451822Y683512D01*
X451895Y683593D01*
X451971Y683671D01*
X452049Y683747D01*
X452130Y683820D01*
X452214Y683890D01*
X452300Y683956D01*
X452388Y684020D01*
X452479Y684081D01*
X452571Y684138D01*
X452666Y684192D01*
X452762Y684242D01*
X452861Y684289D01*
X452960Y684333D01*
X453062Y684373D01*
X453164Y684409D01*
X453268Y684441D01*
X453373Y684470D01*
X453479Y684495D01*
X453586Y684517D01*
X453694Y684534D01*
X453802Y684548D01*
X453910Y684557D01*
X454019Y684563D01*
X454128Y684565D01*
X454275Y684563D01*
X454422Y684557D01*
X454569Y684548D01*
X454716Y684535D01*
X454862Y684518D01*
X455008Y684497D01*
X455153Y684472D01*
X455298Y684444D01*
X455442Y684412D01*
X455584Y684377D01*
X455726Y684337D01*
X455867Y684294D01*
X456007Y684248D01*
X456145Y684198D01*
X456282Y684144D01*
X456418Y684087D01*
X456552Y684026D01*
X456685Y683962D01*
X456816Y683894D01*
X456945Y683823D01*
X457072Y683749D01*
X457197Y683672D01*
X457321Y683591D01*
X457442Y683508D01*
X457561Y683421D01*
X452602Y678844D02*
X452507Y678902D01*
X452415Y678964D01*
X452324Y679028D01*
X452237Y679096D01*
X452151Y679167D01*
X452069Y679241D01*
X451989Y679318D01*
X451911Y679397D01*
X451837Y679480D01*
X451766Y679565D01*
X451698Y679652D01*
X451633Y679742D01*
X451571Y679834D01*
X451512Y679929D01*
X451457Y680025D01*
X451406Y680123D01*
X451358Y680223D01*
X451313Y680325D01*
X451273Y680428D01*
X451235Y680533D01*
X451202Y680638D01*
X451173Y680745D01*
X451147Y680853D01*
X451126Y680962D01*
X451108Y681072D01*
X451094Y681182D01*
X451084Y681292D01*
X451078Y681403D01*
X451076Y681514D01*
X456797Y676556D02*
X456892Y676498D01*
X456984Y676436D01*
X457075Y676372D01*
X457162Y676304D01*
X457248Y676233D01*
X457330Y676159D01*
X457410Y676082D01*
X457488Y676003D01*
X457562Y675920D01*
X457633Y675835D01*
X457701Y675748D01*
X457766Y675658D01*
X457828Y675566D01*
X457887Y675471D01*
X457942Y675375D01*
X457993Y675277D01*
X458041Y675177D01*
X458086Y675075D01*
X458126Y674972D01*
X458164Y674867D01*
X458197Y674762D01*
X458226Y674655D01*
X458252Y674547D01*
X458273Y674438D01*
X458291Y674328D01*
X458305Y674218D01*
X458315Y674108D01*
X458321Y673997D01*
X458323Y673886D01*
X456797Y676556D02*
X452602Y678844D01*
X467940Y684566D02*
X468055Y684564D01*
X468169Y684558D01*
X468284Y684549D01*
X468398Y684535D01*
X468511Y684518D01*
X468624Y684497D01*
X468736Y684472D01*
X468847Y684444D01*
X468957Y684412D01*
X469066Y684376D01*
X469174Y684337D01*
X469280Y684294D01*
X469385Y684247D01*
X469488Y684197D01*
X469590Y684144D01*
X469690Y684087D01*
X469787Y684027D01*
X469883Y683963D01*
X469976Y683897D01*
X470068Y683827D01*
X470156Y683755D01*
X470243Y683679D01*
X470327Y683601D01*
X470408Y683520D01*
X470486Y683436D01*
X470562Y683349D01*
X470634Y683261D01*
X470704Y683169D01*
X470770Y683076D01*
X470834Y682980D01*
X470894Y682883D01*
X470951Y682783D01*
X471004Y682681D01*
X471054Y682578D01*
X471101Y682473D01*
X471144Y682367D01*
X471183Y682259D01*
X471219Y682150D01*
X471251Y682040D01*
X471279Y681929D01*
X471304Y681817D01*
X471325Y681704D01*
X471342Y681591D01*
X471356Y681477D01*
X471365Y681362D01*
X471371Y681248D01*
X471373Y681133D01*
X467940Y684565D02*
X467808Y684563D01*
X467676Y684557D01*
X467544Y684547D01*
X467413Y684533D01*
X467282Y684516D01*
X467152Y684494D01*
X467022Y684468D01*
X466894Y684439D01*
X466766Y684406D01*
X466639Y684369D01*
X466514Y684328D01*
X466389Y684283D01*
X466266Y684235D01*
X466145Y684183D01*
X466025Y684128D01*
X465907Y684069D01*
X465791Y684006D01*
X465677Y683940D01*
X465564Y683870D01*
X465454Y683798D01*
X465346Y683722D01*
X465241Y683642D01*
X465137Y683560D01*
X465037Y683474D01*
X464939Y683386D01*
X464843Y683295D01*
X464751Y683201D01*
X464661Y683104D01*
X464574Y683004D01*
X464490Y682902D01*
X464410Y682798D01*
X464332Y682691D01*
X464258Y682582D01*
X464187Y682470D01*
X464119Y682357D01*
X464055Y682242D01*
X463994Y682124D01*
X463937Y682005D01*
X463883Y681885D01*
X463833Y681762D01*
X463787Y681639D01*
X463745Y681514D01*
X470229Y678463D02*
X470314Y678547D01*
X470396Y678633D01*
X470476Y678722D01*
X470552Y678814D01*
X470626Y678908D01*
X470697Y679004D01*
X470764Y679103D01*
X470828Y679204D01*
X470889Y679307D01*
X470946Y679411D01*
X471000Y679518D01*
X471051Y679626D01*
X471098Y679736D01*
X471141Y679847D01*
X471181Y679960D01*
X471217Y680073D01*
X471250Y680188D01*
X471279Y680304D01*
X471304Y680421D01*
X471325Y680538D01*
X471342Y680657D01*
X471356Y680775D01*
X471365Y680894D01*
X471371Y681014D01*
X471373Y681133D01*
X470229Y678463D02*
X463745Y670835D01*
X471373Y670835D01*
X486612Y670835D02*
X489664Y670835D01*
X486612Y670835D02*
X486517Y670837D01*
X486423Y670843D01*
X486329Y670853D01*
X486235Y670866D01*
X486142Y670884D01*
X486050Y670905D01*
X485959Y670930D01*
X485869Y670959D01*
X485780Y670992D01*
X485693Y671028D01*
X485607Y671067D01*
X485523Y671111D01*
X485441Y671157D01*
X485361Y671208D01*
X485282Y671261D01*
X485207Y671317D01*
X485133Y671377D01*
X485062Y671440D01*
X484994Y671505D01*
X484929Y671573D01*
X484866Y671644D01*
X484806Y671718D01*
X484750Y671793D01*
X484697Y671872D01*
X484646Y671952D01*
X484600Y672034D01*
X484556Y672118D01*
X484517Y672204D01*
X484481Y672291D01*
X484448Y672380D01*
X484419Y672470D01*
X484394Y672561D01*
X484373Y672653D01*
X484355Y672746D01*
X484342Y672840D01*
X484332Y672934D01*
X484326Y673028D01*
X484324Y673123D01*
X484324Y677700D01*
X484326Y677795D01*
X484332Y677889D01*
X484342Y677983D01*
X484355Y678077D01*
X484373Y678170D01*
X484394Y678262D01*
X484419Y678353D01*
X484448Y678443D01*
X484481Y678532D01*
X484517Y678619D01*
X484556Y678705D01*
X484600Y678789D01*
X484646Y678871D01*
X484697Y678951D01*
X484750Y679030D01*
X484806Y679105D01*
X484866Y679179D01*
X484929Y679250D01*
X484994Y679318D01*
X485062Y679383D01*
X485133Y679446D01*
X485207Y679506D01*
X485282Y679562D01*
X485361Y679615D01*
X485441Y679666D01*
X485523Y679712D01*
X485607Y679756D01*
X485693Y679795D01*
X485780Y679831D01*
X485869Y679864D01*
X485959Y679893D01*
X486050Y679918D01*
X486142Y679939D01*
X486235Y679957D01*
X486329Y679970D01*
X486423Y679980D01*
X486517Y679986D01*
X486612Y679988D01*
X489664Y679988D01*
X494658Y676937D02*
X494658Y673886D01*
X494658Y676937D02*
X494660Y677046D01*
X494666Y677155D01*
X494675Y677263D01*
X494689Y677371D01*
X494706Y677479D01*
X494728Y677586D01*
X494753Y677692D01*
X494782Y677797D01*
X494814Y677901D01*
X494850Y678003D01*
X494890Y678105D01*
X494934Y678204D01*
X494981Y678303D01*
X495031Y678399D01*
X495085Y678494D01*
X495142Y678586D01*
X495203Y678677D01*
X495267Y678765D01*
X495333Y678851D01*
X495403Y678935D01*
X495476Y679016D01*
X495552Y679094D01*
X495630Y679170D01*
X495711Y679243D01*
X495795Y679313D01*
X495881Y679379D01*
X495969Y679443D01*
X496060Y679504D01*
X496152Y679561D01*
X496247Y679615D01*
X496343Y679665D01*
X496442Y679712D01*
X496541Y679756D01*
X496643Y679796D01*
X496745Y679832D01*
X496849Y679864D01*
X496954Y679893D01*
X497060Y679918D01*
X497167Y679940D01*
X497275Y679957D01*
X497383Y679971D01*
X497491Y679980D01*
X497600Y679986D01*
X497709Y679988D01*
X497818Y679986D01*
X497927Y679980D01*
X498035Y679971D01*
X498143Y679957D01*
X498251Y679940D01*
X498358Y679918D01*
X498464Y679893D01*
X498569Y679864D01*
X498673Y679832D01*
X498775Y679796D01*
X498877Y679756D01*
X498976Y679712D01*
X499075Y679665D01*
X499171Y679615D01*
X499266Y679561D01*
X499358Y679504D01*
X499449Y679443D01*
X499537Y679379D01*
X499623Y679313D01*
X499707Y679243D01*
X499788Y679170D01*
X499866Y679094D01*
X499942Y679016D01*
X500015Y678935D01*
X500085Y678851D01*
X500151Y678765D01*
X500215Y678677D01*
X500276Y678586D01*
X500333Y678494D01*
X500387Y678399D01*
X500437Y678303D01*
X500484Y678204D01*
X500528Y678105D01*
X500568Y678003D01*
X500604Y677901D01*
X500636Y677797D01*
X500665Y677692D01*
X500690Y677586D01*
X500712Y677479D01*
X500729Y677371D01*
X500743Y677263D01*
X500752Y677155D01*
X500758Y677046D01*
X500760Y676937D01*
X500760Y673886D01*
X500758Y673777D01*
X500752Y673668D01*
X500743Y673560D01*
X500729Y673452D01*
X500712Y673344D01*
X500690Y673237D01*
X500665Y673131D01*
X500636Y673026D01*
X500604Y672922D01*
X500568Y672820D01*
X500528Y672718D01*
X500484Y672619D01*
X500437Y672520D01*
X500387Y672424D01*
X500333Y672329D01*
X500276Y672237D01*
X500215Y672146D01*
X500151Y672058D01*
X500085Y671972D01*
X500015Y671888D01*
X499942Y671807D01*
X499866Y671729D01*
X499788Y671653D01*
X499707Y671580D01*
X499623Y671510D01*
X499537Y671444D01*
X499449Y671380D01*
X499358Y671319D01*
X499266Y671262D01*
X499171Y671208D01*
X499075Y671158D01*
X498976Y671111D01*
X498877Y671067D01*
X498775Y671027D01*
X498673Y670991D01*
X498569Y670959D01*
X498464Y670930D01*
X498358Y670905D01*
X498251Y670883D01*
X498143Y670866D01*
X498035Y670852D01*
X497927Y670843D01*
X497818Y670837D01*
X497709Y670835D01*
X497600Y670837D01*
X497491Y670843D01*
X497383Y670852D01*
X497275Y670866D01*
X497167Y670883D01*
X497060Y670905D01*
X496954Y670930D01*
X496849Y670959D01*
X496745Y670991D01*
X496643Y671027D01*
X496541Y671067D01*
X496442Y671111D01*
X496343Y671158D01*
X496247Y671208D01*
X496152Y671262D01*
X496060Y671319D01*
X495969Y671380D01*
X495881Y671444D01*
X495795Y671510D01*
X495711Y671580D01*
X495630Y671653D01*
X495552Y671729D01*
X495476Y671807D01*
X495403Y671888D01*
X495333Y671972D01*
X495267Y672058D01*
X495203Y672146D01*
X495142Y672237D01*
X495085Y672329D01*
X495031Y672424D01*
X494981Y672520D01*
X494934Y672619D01*
X494890Y672718D01*
X494850Y672820D01*
X494814Y672922D01*
X494782Y673026D01*
X494753Y673131D01*
X494728Y673237D01*
X494706Y673344D01*
X494689Y673452D01*
X494675Y673560D01*
X494666Y673668D01*
X494660Y673777D01*
X494658Y673886D01*
X506808Y670835D02*
X506808Y679988D01*
X510622Y679988D01*
X510717Y679986D01*
X510811Y679980D01*
X510905Y679970D01*
X510999Y679957D01*
X511092Y679939D01*
X511184Y679918D01*
X511275Y679893D01*
X511365Y679864D01*
X511454Y679831D01*
X511541Y679795D01*
X511627Y679756D01*
X511711Y679712D01*
X511793Y679666D01*
X511873Y679615D01*
X511951Y679562D01*
X512027Y679506D01*
X512101Y679446D01*
X512172Y679383D01*
X512240Y679318D01*
X512305Y679250D01*
X512368Y679179D01*
X512428Y679105D01*
X512484Y679030D01*
X512537Y678951D01*
X512588Y678871D01*
X512634Y678789D01*
X512678Y678705D01*
X512717Y678619D01*
X512753Y678532D01*
X512786Y678443D01*
X512815Y678353D01*
X512840Y678262D01*
X512861Y678170D01*
X512879Y678077D01*
X512892Y677983D01*
X512902Y677889D01*
X512908Y677795D01*
X512910Y677700D01*
X512910Y670835D01*
X517808Y679988D02*
X522385Y679988D01*
X519334Y684565D02*
X519334Y673123D01*
X519336Y673028D01*
X519342Y672934D01*
X519352Y672840D01*
X519365Y672746D01*
X519383Y672653D01*
X519404Y672561D01*
X519429Y672470D01*
X519458Y672380D01*
X519491Y672291D01*
X519527Y672204D01*
X519566Y672118D01*
X519610Y672034D01*
X519656Y671952D01*
X519707Y671872D01*
X519760Y671793D01*
X519816Y671718D01*
X519876Y671644D01*
X519939Y671573D01*
X520004Y671505D01*
X520072Y671440D01*
X520143Y671377D01*
X520217Y671317D01*
X520293Y671261D01*
X520371Y671208D01*
X520451Y671157D01*
X520533Y671111D01*
X520617Y671067D01*
X520703Y671028D01*
X520790Y670992D01*
X520879Y670959D01*
X520969Y670930D01*
X521060Y670905D01*
X521152Y670884D01*
X521245Y670866D01*
X521339Y670853D01*
X521433Y670843D01*
X521527Y670837D01*
X521622Y670835D01*
X522385Y670835D01*
X528039Y670835D02*
X528039Y679988D01*
X532615Y679988D01*
X532615Y678463D01*
X536958Y676937D02*
X536958Y673886D01*
X536958Y676937D02*
X536960Y677046D01*
X536966Y677155D01*
X536975Y677263D01*
X536989Y677371D01*
X537006Y677479D01*
X537028Y677586D01*
X537053Y677692D01*
X537082Y677797D01*
X537114Y677901D01*
X537150Y678003D01*
X537190Y678105D01*
X537234Y678204D01*
X537281Y678303D01*
X537331Y678399D01*
X537385Y678494D01*
X537442Y678586D01*
X537503Y678677D01*
X537567Y678765D01*
X537633Y678851D01*
X537703Y678935D01*
X537776Y679016D01*
X537852Y679094D01*
X537930Y679170D01*
X538011Y679243D01*
X538095Y679313D01*
X538181Y679379D01*
X538269Y679443D01*
X538360Y679504D01*
X538452Y679561D01*
X538547Y679615D01*
X538643Y679665D01*
X538742Y679712D01*
X538841Y679756D01*
X538943Y679796D01*
X539045Y679832D01*
X539149Y679864D01*
X539254Y679893D01*
X539360Y679918D01*
X539467Y679940D01*
X539575Y679957D01*
X539683Y679971D01*
X539791Y679980D01*
X539900Y679986D01*
X540009Y679988D01*
X540118Y679986D01*
X540227Y679980D01*
X540335Y679971D01*
X540443Y679957D01*
X540551Y679940D01*
X540658Y679918D01*
X540764Y679893D01*
X540869Y679864D01*
X540973Y679832D01*
X541075Y679796D01*
X541177Y679756D01*
X541276Y679712D01*
X541375Y679665D01*
X541471Y679615D01*
X541566Y679561D01*
X541658Y679504D01*
X541749Y679443D01*
X541837Y679379D01*
X541923Y679313D01*
X542007Y679243D01*
X542088Y679170D01*
X542166Y679094D01*
X542242Y679016D01*
X542315Y678935D01*
X542385Y678851D01*
X542451Y678765D01*
X542515Y678677D01*
X542576Y678586D01*
X542633Y678494D01*
X542687Y678399D01*
X542737Y678303D01*
X542784Y678204D01*
X542828Y678105D01*
X542868Y678003D01*
X542904Y677901D01*
X542936Y677797D01*
X542965Y677692D01*
X542990Y677586D01*
X543012Y677479D01*
X543029Y677371D01*
X543043Y677263D01*
X543052Y677155D01*
X543058Y677046D01*
X543060Y676937D01*
X543060Y673886D01*
X543058Y673777D01*
X543052Y673668D01*
X543043Y673560D01*
X543029Y673452D01*
X543012Y673344D01*
X542990Y673237D01*
X542965Y673131D01*
X542936Y673026D01*
X542904Y672922D01*
X542868Y672820D01*
X542828Y672718D01*
X542784Y672619D01*
X542737Y672520D01*
X542687Y672424D01*
X542633Y672329D01*
X542576Y672237D01*
X542515Y672146D01*
X542451Y672058D01*
X542385Y671972D01*
X542315Y671888D01*
X542242Y671807D01*
X542166Y671729D01*
X542088Y671653D01*
X542007Y671580D01*
X541923Y671510D01*
X541837Y671444D01*
X541749Y671380D01*
X541658Y671319D01*
X541566Y671262D01*
X541471Y671208D01*
X541375Y671158D01*
X541276Y671111D01*
X541177Y671067D01*
X541075Y671027D01*
X540973Y670991D01*
X540869Y670959D01*
X540764Y670930D01*
X540658Y670905D01*
X540551Y670883D01*
X540443Y670866D01*
X540335Y670852D01*
X540227Y670843D01*
X540118Y670837D01*
X540009Y670835D01*
X539900Y670837D01*
X539791Y670843D01*
X539683Y670852D01*
X539575Y670866D01*
X539467Y670883D01*
X539360Y670905D01*
X539254Y670930D01*
X539149Y670959D01*
X539045Y670991D01*
X538943Y671027D01*
X538841Y671067D01*
X538742Y671111D01*
X538643Y671158D01*
X538547Y671208D01*
X538452Y671262D01*
X538360Y671319D01*
X538269Y671380D01*
X538181Y671444D01*
X538095Y671510D01*
X538011Y671580D01*
X537930Y671653D01*
X537852Y671729D01*
X537776Y671807D01*
X537703Y671888D01*
X537633Y671972D01*
X537567Y672058D01*
X537503Y672146D01*
X537442Y672237D01*
X537385Y672329D01*
X537331Y672424D01*
X537281Y672520D01*
X537234Y672619D01*
X537190Y672718D01*
X537150Y672820D01*
X537114Y672922D01*
X537082Y673026D01*
X537053Y673131D01*
X537028Y673237D01*
X537006Y673344D01*
X536989Y673452D01*
X536975Y673560D01*
X536966Y673668D01*
X536960Y673777D01*
X536958Y673886D01*
X548826Y673123D02*
X548826Y684565D01*
X548827Y673123D02*
X548829Y673028D01*
X548835Y672934D01*
X548845Y672840D01*
X548858Y672746D01*
X548876Y672653D01*
X548897Y672561D01*
X548922Y672470D01*
X548951Y672380D01*
X548984Y672291D01*
X549020Y672204D01*
X549059Y672118D01*
X549103Y672034D01*
X549149Y671952D01*
X549200Y671872D01*
X549253Y671793D01*
X549309Y671718D01*
X549369Y671644D01*
X549432Y671573D01*
X549497Y671505D01*
X549565Y671440D01*
X549636Y671377D01*
X549710Y671317D01*
X549785Y671261D01*
X549864Y671208D01*
X549944Y671157D01*
X550026Y671111D01*
X550110Y671067D01*
X550196Y671028D01*
X550283Y670992D01*
X550372Y670959D01*
X550462Y670930D01*
X550553Y670905D01*
X550645Y670884D01*
X550738Y670866D01*
X550832Y670853D01*
X550926Y670843D01*
X551020Y670837D01*
X551115Y670835D01*
X556026Y673123D02*
X556026Y684565D01*
X556027Y673123D02*
X556029Y673028D01*
X556035Y672934D01*
X556045Y672840D01*
X556058Y672746D01*
X556076Y672653D01*
X556097Y672561D01*
X556122Y672470D01*
X556151Y672380D01*
X556184Y672291D01*
X556220Y672204D01*
X556259Y672118D01*
X556303Y672034D01*
X556349Y671952D01*
X556400Y671872D01*
X556453Y671793D01*
X556509Y671718D01*
X556569Y671644D01*
X556632Y671573D01*
X556697Y671505D01*
X556765Y671440D01*
X556836Y671377D01*
X556910Y671317D01*
X556985Y671261D01*
X557064Y671208D01*
X557144Y671157D01*
X557226Y671111D01*
X557310Y671067D01*
X557396Y671028D01*
X557483Y670992D01*
X557572Y670959D01*
X557662Y670930D01*
X557753Y670905D01*
X557845Y670884D01*
X557938Y670866D01*
X558032Y670853D01*
X558126Y670843D01*
X558220Y670837D01*
X558315Y670835D01*
X565346Y670835D02*
X569160Y670835D01*
X565346Y670835D02*
X565251Y670837D01*
X565157Y670843D01*
X565063Y670853D01*
X564969Y670866D01*
X564876Y670884D01*
X564784Y670905D01*
X564693Y670930D01*
X564603Y670959D01*
X564514Y670992D01*
X564427Y671028D01*
X564341Y671067D01*
X564257Y671111D01*
X564175Y671157D01*
X564095Y671208D01*
X564016Y671261D01*
X563941Y671317D01*
X563867Y671377D01*
X563796Y671440D01*
X563728Y671505D01*
X563663Y671573D01*
X563600Y671644D01*
X563540Y671718D01*
X563484Y671793D01*
X563431Y671872D01*
X563380Y671952D01*
X563334Y672034D01*
X563290Y672118D01*
X563251Y672204D01*
X563215Y672291D01*
X563182Y672380D01*
X563153Y672470D01*
X563128Y672561D01*
X563107Y672653D01*
X563089Y672746D01*
X563076Y672840D01*
X563066Y672934D01*
X563060Y673028D01*
X563058Y673123D01*
X563058Y676937D01*
X563060Y677046D01*
X563066Y677155D01*
X563075Y677263D01*
X563089Y677371D01*
X563106Y677479D01*
X563128Y677586D01*
X563153Y677692D01*
X563182Y677797D01*
X563214Y677901D01*
X563250Y678003D01*
X563290Y678105D01*
X563334Y678204D01*
X563381Y678303D01*
X563431Y678399D01*
X563485Y678494D01*
X563542Y678586D01*
X563603Y678677D01*
X563667Y678765D01*
X563733Y678851D01*
X563803Y678935D01*
X563876Y679016D01*
X563952Y679094D01*
X564030Y679170D01*
X564111Y679243D01*
X564195Y679313D01*
X564281Y679379D01*
X564369Y679443D01*
X564460Y679504D01*
X564552Y679561D01*
X564647Y679615D01*
X564743Y679665D01*
X564842Y679712D01*
X564941Y679756D01*
X565043Y679796D01*
X565145Y679832D01*
X565249Y679864D01*
X565354Y679893D01*
X565460Y679918D01*
X565567Y679940D01*
X565675Y679957D01*
X565783Y679971D01*
X565891Y679980D01*
X566000Y679986D01*
X566109Y679988D01*
X566218Y679986D01*
X566327Y679980D01*
X566435Y679971D01*
X566543Y679957D01*
X566651Y679940D01*
X566758Y679918D01*
X566864Y679893D01*
X566969Y679864D01*
X567073Y679832D01*
X567175Y679796D01*
X567277Y679756D01*
X567376Y679712D01*
X567475Y679665D01*
X567571Y679615D01*
X567666Y679561D01*
X567758Y679504D01*
X567849Y679443D01*
X567937Y679379D01*
X568023Y679313D01*
X568107Y679243D01*
X568188Y679170D01*
X568266Y679094D01*
X568342Y679016D01*
X568415Y678935D01*
X568485Y678851D01*
X568551Y678765D01*
X568615Y678677D01*
X568676Y678586D01*
X568733Y678494D01*
X568787Y678399D01*
X568837Y678303D01*
X568884Y678204D01*
X568928Y678105D01*
X568968Y678003D01*
X569004Y677901D01*
X569036Y677797D01*
X569065Y677692D01*
X569090Y677586D01*
X569112Y677479D01*
X569129Y677371D01*
X569143Y677263D01*
X569152Y677155D01*
X569158Y677046D01*
X569160Y676937D01*
X569160Y675412D01*
X563058Y675412D01*
X575288Y670835D02*
X575288Y679988D01*
X579865Y679988D01*
X579865Y678463D01*
X310012Y662065D02*
X305435Y648335D01*
X314588Y648335D02*
X310012Y662065D01*
X313444Y651768D02*
X306579Y651768D01*
X320091Y648335D02*
X320091Y657488D01*
X324668Y657488D01*
X324668Y655963D01*
X335041Y662065D02*
X335041Y648335D01*
X331227Y648335D01*
X331132Y648337D01*
X331038Y648343D01*
X330944Y648353D01*
X330850Y648366D01*
X330757Y648384D01*
X330665Y648405D01*
X330574Y648430D01*
X330484Y648459D01*
X330395Y648492D01*
X330308Y648528D01*
X330222Y648567D01*
X330138Y648611D01*
X330056Y648657D01*
X329976Y648708D01*
X329897Y648761D01*
X329822Y648817D01*
X329748Y648877D01*
X329677Y648940D01*
X329609Y649005D01*
X329544Y649073D01*
X329481Y649144D01*
X329421Y649218D01*
X329365Y649293D01*
X329312Y649372D01*
X329261Y649452D01*
X329215Y649534D01*
X329171Y649618D01*
X329132Y649704D01*
X329096Y649791D01*
X329063Y649880D01*
X329034Y649970D01*
X329009Y650061D01*
X328988Y650153D01*
X328970Y650246D01*
X328957Y650340D01*
X328947Y650434D01*
X328941Y650528D01*
X328939Y650623D01*
X328939Y655200D01*
X328941Y655295D01*
X328947Y655389D01*
X328957Y655483D01*
X328970Y655577D01*
X328988Y655670D01*
X329009Y655762D01*
X329034Y655853D01*
X329063Y655943D01*
X329096Y656032D01*
X329132Y656119D01*
X329171Y656205D01*
X329215Y656289D01*
X329261Y656371D01*
X329312Y656451D01*
X329365Y656530D01*
X329421Y656605D01*
X329481Y656679D01*
X329544Y656750D01*
X329609Y656818D01*
X329677Y656883D01*
X329748Y656946D01*
X329822Y657006D01*
X329897Y657062D01*
X329976Y657115D01*
X330056Y657166D01*
X330138Y657212D01*
X330222Y657256D01*
X330308Y657295D01*
X330395Y657331D01*
X330484Y657364D01*
X330574Y657393D01*
X330665Y657418D01*
X330757Y657439D01*
X330850Y657457D01*
X330944Y657470D01*
X331038Y657480D01*
X331132Y657486D01*
X331227Y657488D01*
X335041Y657488D01*
X341610Y657488D02*
X341610Y650623D01*
X341611Y650623D02*
X341613Y650528D01*
X341619Y650434D01*
X341629Y650340D01*
X341642Y650246D01*
X341660Y650153D01*
X341681Y650061D01*
X341706Y649970D01*
X341735Y649880D01*
X341768Y649791D01*
X341804Y649704D01*
X341843Y649618D01*
X341887Y649534D01*
X341933Y649452D01*
X341984Y649372D01*
X342037Y649293D01*
X342093Y649218D01*
X342153Y649144D01*
X342216Y649073D01*
X342281Y649005D01*
X342349Y648940D01*
X342420Y648877D01*
X342494Y648817D01*
X342569Y648761D01*
X342648Y648708D01*
X342728Y648657D01*
X342810Y648611D01*
X342894Y648567D01*
X342980Y648528D01*
X343067Y648492D01*
X343156Y648459D01*
X343246Y648430D01*
X343337Y648405D01*
X343429Y648384D01*
X343522Y648366D01*
X343616Y648353D01*
X343710Y648343D01*
X343804Y648337D01*
X343899Y648335D01*
X347713Y648335D01*
X347713Y657488D01*
X353662Y657488D02*
X353662Y648335D01*
X353280Y661302D02*
X353280Y662065D01*
X354043Y662065D01*
X354043Y661302D01*
X353280Y661302D01*
X359610Y657488D02*
X359610Y648335D01*
X359610Y657488D02*
X363424Y657488D01*
X363519Y657486D01*
X363613Y657480D01*
X363707Y657470D01*
X363801Y657457D01*
X363894Y657439D01*
X363986Y657418D01*
X364077Y657393D01*
X364167Y657364D01*
X364256Y657331D01*
X364343Y657295D01*
X364429Y657256D01*
X364513Y657212D01*
X364595Y657166D01*
X364675Y657115D01*
X364753Y657062D01*
X364829Y657006D01*
X364903Y656946D01*
X364974Y656883D01*
X365042Y656818D01*
X365107Y656750D01*
X365170Y656679D01*
X365230Y656605D01*
X365286Y656530D01*
X365339Y656451D01*
X365390Y656371D01*
X365436Y656289D01*
X365480Y656205D01*
X365519Y656119D01*
X365555Y656032D01*
X365588Y655943D01*
X365617Y655853D01*
X365642Y655762D01*
X365663Y655670D01*
X365681Y655577D01*
X365694Y655483D01*
X365704Y655389D01*
X365710Y655295D01*
X365712Y655200D01*
X365713Y655200D02*
X365713Y648335D01*
X371760Y651386D02*
X371760Y654437D01*
X371761Y654437D02*
X371763Y654546D01*
X371769Y654655D01*
X371778Y654763D01*
X371792Y654871D01*
X371809Y654979D01*
X371831Y655086D01*
X371856Y655192D01*
X371885Y655297D01*
X371917Y655401D01*
X371953Y655503D01*
X371993Y655605D01*
X372037Y655704D01*
X372084Y655803D01*
X372134Y655899D01*
X372188Y655994D01*
X372245Y656086D01*
X372306Y656177D01*
X372370Y656265D01*
X372436Y656351D01*
X372506Y656435D01*
X372579Y656516D01*
X372655Y656594D01*
X372733Y656670D01*
X372814Y656743D01*
X372898Y656813D01*
X372984Y656879D01*
X373072Y656943D01*
X373163Y657004D01*
X373255Y657061D01*
X373350Y657115D01*
X373446Y657165D01*
X373545Y657212D01*
X373644Y657256D01*
X373746Y657296D01*
X373848Y657332D01*
X373952Y657364D01*
X374057Y657393D01*
X374163Y657418D01*
X374270Y657440D01*
X374378Y657457D01*
X374486Y657471D01*
X374594Y657480D01*
X374703Y657486D01*
X374812Y657488D01*
X374921Y657486D01*
X375030Y657480D01*
X375138Y657471D01*
X375246Y657457D01*
X375354Y657440D01*
X375461Y657418D01*
X375567Y657393D01*
X375672Y657364D01*
X375776Y657332D01*
X375878Y657296D01*
X375980Y657256D01*
X376079Y657212D01*
X376178Y657165D01*
X376274Y657115D01*
X376369Y657061D01*
X376461Y657004D01*
X376552Y656943D01*
X376640Y656879D01*
X376726Y656813D01*
X376810Y656743D01*
X376891Y656670D01*
X376969Y656594D01*
X377045Y656516D01*
X377118Y656435D01*
X377188Y656351D01*
X377254Y656265D01*
X377318Y656177D01*
X377379Y656086D01*
X377436Y655994D01*
X377490Y655899D01*
X377540Y655803D01*
X377587Y655704D01*
X377631Y655605D01*
X377671Y655503D01*
X377707Y655401D01*
X377739Y655297D01*
X377768Y655192D01*
X377793Y655086D01*
X377815Y654979D01*
X377832Y654871D01*
X377846Y654763D01*
X377855Y654655D01*
X377861Y654546D01*
X377863Y654437D01*
X377863Y651386D01*
X377861Y651277D01*
X377855Y651168D01*
X377846Y651060D01*
X377832Y650952D01*
X377815Y650844D01*
X377793Y650737D01*
X377768Y650631D01*
X377739Y650526D01*
X377707Y650422D01*
X377671Y650320D01*
X377631Y650218D01*
X377587Y650119D01*
X377540Y650020D01*
X377490Y649924D01*
X377436Y649829D01*
X377379Y649737D01*
X377318Y649646D01*
X377254Y649558D01*
X377188Y649472D01*
X377118Y649388D01*
X377045Y649307D01*
X376969Y649229D01*
X376891Y649153D01*
X376810Y649080D01*
X376726Y649010D01*
X376640Y648944D01*
X376552Y648880D01*
X376461Y648819D01*
X376369Y648762D01*
X376274Y648708D01*
X376178Y648658D01*
X376079Y648611D01*
X375980Y648567D01*
X375878Y648527D01*
X375776Y648491D01*
X375672Y648459D01*
X375567Y648430D01*
X375461Y648405D01*
X375354Y648383D01*
X375246Y648366D01*
X375138Y648352D01*
X375030Y648343D01*
X374921Y648337D01*
X374812Y648335D01*
X374703Y648337D01*
X374594Y648343D01*
X374486Y648352D01*
X374378Y648366D01*
X374270Y648383D01*
X374163Y648405D01*
X374057Y648430D01*
X373952Y648459D01*
X373848Y648491D01*
X373746Y648527D01*
X373644Y648567D01*
X373545Y648611D01*
X373446Y648658D01*
X373350Y648708D01*
X373255Y648762D01*
X373163Y648819D01*
X373072Y648880D01*
X372984Y648944D01*
X372898Y649010D01*
X372814Y649080D01*
X372733Y649153D01*
X372655Y649229D01*
X372579Y649307D01*
X372506Y649388D01*
X372436Y649472D01*
X372370Y649558D01*
X372306Y649646D01*
X372245Y649737D01*
X372188Y649829D01*
X372134Y649924D01*
X372084Y650020D01*
X372037Y650119D01*
X371993Y650218D01*
X371953Y650320D01*
X371917Y650422D01*
X371885Y650526D01*
X371856Y650631D01*
X371831Y650737D01*
X371809Y650844D01*
X371792Y650952D01*
X371778Y651060D01*
X371769Y651168D01*
X371763Y651277D01*
X371761Y651386D01*
X391248Y648335D02*
X391248Y662065D01*
X398875Y648335D01*
X398875Y662065D01*
X407658Y653674D02*
X411091Y653674D01*
X407658Y653675D02*
X407556Y653673D01*
X407454Y653667D01*
X407352Y653657D01*
X407250Y653644D01*
X407150Y653626D01*
X407050Y653605D01*
X406950Y653580D01*
X406852Y653551D01*
X406755Y653518D01*
X406660Y653481D01*
X406566Y653441D01*
X406473Y653398D01*
X406382Y653351D01*
X406294Y653300D01*
X406207Y653246D01*
X406122Y653189D01*
X406039Y653128D01*
X405959Y653065D01*
X405882Y652998D01*
X405807Y652929D01*
X405734Y652856D01*
X405665Y652781D01*
X405598Y652704D01*
X405535Y652624D01*
X405474Y652541D01*
X405417Y652456D01*
X405363Y652369D01*
X405312Y652281D01*
X405265Y652190D01*
X405222Y652097D01*
X405182Y652003D01*
X405145Y651908D01*
X405112Y651811D01*
X405083Y651713D01*
X405058Y651613D01*
X405037Y651513D01*
X405019Y651413D01*
X405006Y651311D01*
X404996Y651209D01*
X404990Y651107D01*
X404988Y651005D01*
X404990Y650903D01*
X404996Y650801D01*
X405006Y650699D01*
X405019Y650597D01*
X405037Y650497D01*
X405058Y650397D01*
X405083Y650297D01*
X405112Y650199D01*
X405145Y650102D01*
X405182Y650007D01*
X405222Y649913D01*
X405265Y649820D01*
X405312Y649729D01*
X405363Y649641D01*
X405417Y649554D01*
X405474Y649469D01*
X405535Y649386D01*
X405598Y649306D01*
X405665Y649229D01*
X405734Y649154D01*
X405807Y649081D01*
X405882Y649012D01*
X405959Y648945D01*
X406039Y648882D01*
X406122Y648821D01*
X406207Y648764D01*
X406294Y648710D01*
X406382Y648659D01*
X406473Y648612D01*
X406566Y648569D01*
X406660Y648529D01*
X406755Y648492D01*
X406852Y648459D01*
X406950Y648430D01*
X407050Y648405D01*
X407150Y648384D01*
X407250Y648366D01*
X407352Y648353D01*
X407454Y648343D01*
X407556Y648337D01*
X407658Y648335D01*
X411091Y648335D01*
X411091Y655200D01*
X411089Y655295D01*
X411083Y655389D01*
X411073Y655483D01*
X411060Y655577D01*
X411042Y655670D01*
X411021Y655762D01*
X410996Y655853D01*
X410967Y655943D01*
X410934Y656032D01*
X410898Y656119D01*
X410859Y656205D01*
X410815Y656289D01*
X410769Y656371D01*
X410718Y656451D01*
X410665Y656530D01*
X410609Y656605D01*
X410549Y656679D01*
X410486Y656750D01*
X410421Y656818D01*
X410353Y656883D01*
X410282Y656946D01*
X410208Y657006D01*
X410133Y657062D01*
X410054Y657115D01*
X409974Y657166D01*
X409892Y657212D01*
X409808Y657256D01*
X409722Y657295D01*
X409635Y657331D01*
X409546Y657364D01*
X409456Y657393D01*
X409365Y657418D01*
X409273Y657439D01*
X409180Y657457D01*
X409086Y657470D01*
X408992Y657480D01*
X408898Y657486D01*
X408803Y657488D01*
X405752Y657488D01*
X417660Y657488D02*
X417660Y648335D01*
X417660Y657488D02*
X421474Y657488D01*
X421569Y657486D01*
X421663Y657480D01*
X421757Y657470D01*
X421851Y657457D01*
X421944Y657439D01*
X422036Y657418D01*
X422127Y657393D01*
X422217Y657364D01*
X422306Y657331D01*
X422393Y657295D01*
X422479Y657256D01*
X422563Y657212D01*
X422645Y657166D01*
X422725Y657115D01*
X422803Y657062D01*
X422879Y657006D01*
X422953Y656946D01*
X423024Y656883D01*
X423092Y656818D01*
X423157Y656750D01*
X423220Y656679D01*
X423280Y656605D01*
X423336Y656530D01*
X423389Y656451D01*
X423440Y656371D01*
X423486Y656289D01*
X423530Y656205D01*
X423569Y656119D01*
X423605Y656032D01*
X423638Y655943D01*
X423667Y655853D01*
X423692Y655762D01*
X423713Y655670D01*
X423731Y655577D01*
X423744Y655483D01*
X423754Y655389D01*
X423760Y655295D01*
X423762Y655200D01*
X423763Y655200D02*
X423763Y648335D01*
X429810Y651386D02*
X429810Y654437D01*
X429812Y654546D01*
X429818Y654655D01*
X429827Y654763D01*
X429841Y654871D01*
X429858Y654979D01*
X429880Y655086D01*
X429905Y655192D01*
X429934Y655297D01*
X429966Y655401D01*
X430002Y655503D01*
X430042Y655605D01*
X430086Y655704D01*
X430133Y655803D01*
X430183Y655899D01*
X430237Y655994D01*
X430294Y656086D01*
X430355Y656177D01*
X430419Y656265D01*
X430485Y656351D01*
X430555Y656435D01*
X430628Y656516D01*
X430704Y656594D01*
X430782Y656670D01*
X430863Y656743D01*
X430947Y656813D01*
X431033Y656879D01*
X431121Y656943D01*
X431212Y657004D01*
X431304Y657061D01*
X431399Y657115D01*
X431495Y657165D01*
X431594Y657212D01*
X431693Y657256D01*
X431795Y657296D01*
X431897Y657332D01*
X432001Y657364D01*
X432106Y657393D01*
X432212Y657418D01*
X432319Y657440D01*
X432427Y657457D01*
X432535Y657471D01*
X432643Y657480D01*
X432752Y657486D01*
X432861Y657488D01*
X432970Y657486D01*
X433079Y657480D01*
X433187Y657471D01*
X433295Y657457D01*
X433403Y657440D01*
X433510Y657418D01*
X433616Y657393D01*
X433721Y657364D01*
X433825Y657332D01*
X433927Y657296D01*
X434029Y657256D01*
X434128Y657212D01*
X434227Y657165D01*
X434323Y657115D01*
X434418Y657061D01*
X434510Y657004D01*
X434601Y656943D01*
X434689Y656879D01*
X434775Y656813D01*
X434859Y656743D01*
X434940Y656670D01*
X435018Y656594D01*
X435094Y656516D01*
X435167Y656435D01*
X435237Y656351D01*
X435303Y656265D01*
X435367Y656177D01*
X435428Y656086D01*
X435485Y655994D01*
X435539Y655899D01*
X435589Y655803D01*
X435636Y655704D01*
X435680Y655605D01*
X435720Y655503D01*
X435756Y655401D01*
X435788Y655297D01*
X435817Y655192D01*
X435842Y655086D01*
X435864Y654979D01*
X435881Y654871D01*
X435895Y654763D01*
X435904Y654655D01*
X435910Y654546D01*
X435912Y654437D01*
X435913Y654437D02*
X435913Y651386D01*
X435912Y651386D02*
X435910Y651277D01*
X435904Y651168D01*
X435895Y651060D01*
X435881Y650952D01*
X435864Y650844D01*
X435842Y650737D01*
X435817Y650631D01*
X435788Y650526D01*
X435756Y650422D01*
X435720Y650320D01*
X435680Y650218D01*
X435636Y650119D01*
X435589Y650020D01*
X435539Y649924D01*
X435485Y649829D01*
X435428Y649737D01*
X435367Y649646D01*
X435303Y649558D01*
X435237Y649472D01*
X435167Y649388D01*
X435094Y649307D01*
X435018Y649229D01*
X434940Y649153D01*
X434859Y649080D01*
X434775Y649010D01*
X434689Y648944D01*
X434601Y648880D01*
X434510Y648819D01*
X434418Y648762D01*
X434323Y648708D01*
X434227Y648658D01*
X434128Y648611D01*
X434029Y648567D01*
X433927Y648527D01*
X433825Y648491D01*
X433721Y648459D01*
X433616Y648430D01*
X433510Y648405D01*
X433403Y648383D01*
X433295Y648366D01*
X433187Y648352D01*
X433079Y648343D01*
X432970Y648337D01*
X432861Y648335D01*
X432752Y648337D01*
X432643Y648343D01*
X432535Y648352D01*
X432427Y648366D01*
X432319Y648383D01*
X432212Y648405D01*
X432106Y648430D01*
X432001Y648459D01*
X431897Y648491D01*
X431795Y648527D01*
X431693Y648567D01*
X431594Y648611D01*
X431495Y648658D01*
X431399Y648708D01*
X431304Y648762D01*
X431212Y648819D01*
X431121Y648880D01*
X431033Y648944D01*
X430947Y649010D01*
X430863Y649080D01*
X430782Y649153D01*
X430704Y649229D01*
X430628Y649307D01*
X430555Y649388D01*
X430485Y649472D01*
X430419Y649558D01*
X430355Y649646D01*
X430294Y649737D01*
X430237Y649829D01*
X430183Y649924D01*
X430133Y650020D01*
X430086Y650119D01*
X430042Y650218D01*
X430002Y650320D01*
X429966Y650422D01*
X429934Y650526D01*
X429905Y650631D01*
X429880Y650737D01*
X429858Y650844D01*
X429841Y650952D01*
X429827Y651060D01*
X429818Y651168D01*
X429812Y651277D01*
X429810Y651386D01*
X448611Y648335D02*
X448611Y657488D01*
X448230Y661302D02*
X448230Y662065D01*
X448993Y662065D01*
X448993Y661302D01*
X448230Y661302D01*
X454560Y657488D02*
X454560Y648335D01*
X454560Y657488D02*
X458374Y657488D01*
X458469Y657486D01*
X458563Y657480D01*
X458657Y657470D01*
X458751Y657457D01*
X458844Y657439D01*
X458936Y657418D01*
X459027Y657393D01*
X459117Y657364D01*
X459206Y657331D01*
X459293Y657295D01*
X459379Y657256D01*
X459463Y657212D01*
X459545Y657166D01*
X459625Y657115D01*
X459703Y657062D01*
X459779Y657006D01*
X459853Y656946D01*
X459924Y656883D01*
X459992Y656818D01*
X460057Y656750D01*
X460120Y656679D01*
X460180Y656605D01*
X460236Y656530D01*
X460289Y656451D01*
X460340Y656371D01*
X460386Y656289D01*
X460430Y656205D01*
X460469Y656119D01*
X460505Y656032D01*
X460538Y655943D01*
X460567Y655853D01*
X460592Y655762D01*
X460613Y655670D01*
X460631Y655577D01*
X460644Y655483D01*
X460654Y655389D01*
X460660Y655295D01*
X460662Y655200D01*
X460662Y648335D01*
X465561Y657488D02*
X470137Y657488D01*
X467086Y662065D02*
X467086Y650623D01*
X467087Y650623D02*
X467089Y650528D01*
X467095Y650434D01*
X467105Y650340D01*
X467118Y650246D01*
X467136Y650153D01*
X467157Y650061D01*
X467182Y649970D01*
X467211Y649880D01*
X467244Y649791D01*
X467280Y649704D01*
X467319Y649618D01*
X467363Y649534D01*
X467409Y649452D01*
X467460Y649372D01*
X467513Y649293D01*
X467569Y649218D01*
X467629Y649144D01*
X467692Y649073D01*
X467757Y649005D01*
X467825Y648940D01*
X467896Y648877D01*
X467970Y648817D01*
X468046Y648761D01*
X468124Y648708D01*
X468204Y648657D01*
X468286Y648611D01*
X468370Y648567D01*
X468456Y648528D01*
X468543Y648492D01*
X468632Y648459D01*
X468722Y648430D01*
X468813Y648405D01*
X468905Y648384D01*
X468998Y648366D01*
X469092Y648353D01*
X469186Y648343D01*
X469280Y648337D01*
X469375Y648335D01*
X470137Y648335D01*
X477548Y648335D02*
X481362Y648335D01*
X477548Y648335D02*
X477453Y648337D01*
X477359Y648343D01*
X477265Y648353D01*
X477171Y648366D01*
X477078Y648384D01*
X476986Y648405D01*
X476895Y648430D01*
X476805Y648459D01*
X476716Y648492D01*
X476629Y648528D01*
X476543Y648567D01*
X476459Y648611D01*
X476377Y648657D01*
X476297Y648708D01*
X476218Y648761D01*
X476143Y648817D01*
X476069Y648877D01*
X475998Y648940D01*
X475930Y649005D01*
X475865Y649073D01*
X475802Y649144D01*
X475742Y649218D01*
X475686Y649293D01*
X475633Y649372D01*
X475582Y649452D01*
X475536Y649534D01*
X475492Y649618D01*
X475453Y649704D01*
X475417Y649791D01*
X475384Y649880D01*
X475355Y649970D01*
X475330Y650061D01*
X475309Y650153D01*
X475291Y650246D01*
X475278Y650340D01*
X475268Y650434D01*
X475262Y650528D01*
X475260Y650623D01*
X475260Y654437D01*
X475262Y654546D01*
X475268Y654655D01*
X475277Y654763D01*
X475291Y654871D01*
X475308Y654979D01*
X475330Y655086D01*
X475355Y655192D01*
X475384Y655297D01*
X475416Y655401D01*
X475452Y655503D01*
X475492Y655605D01*
X475536Y655704D01*
X475583Y655803D01*
X475633Y655899D01*
X475687Y655994D01*
X475744Y656086D01*
X475805Y656177D01*
X475869Y656265D01*
X475935Y656351D01*
X476005Y656435D01*
X476078Y656516D01*
X476154Y656594D01*
X476232Y656670D01*
X476313Y656743D01*
X476397Y656813D01*
X476483Y656879D01*
X476571Y656943D01*
X476662Y657004D01*
X476754Y657061D01*
X476849Y657115D01*
X476945Y657165D01*
X477044Y657212D01*
X477143Y657256D01*
X477245Y657296D01*
X477347Y657332D01*
X477451Y657364D01*
X477556Y657393D01*
X477662Y657418D01*
X477769Y657440D01*
X477877Y657457D01*
X477985Y657471D01*
X478093Y657480D01*
X478202Y657486D01*
X478311Y657488D01*
X478420Y657486D01*
X478529Y657480D01*
X478637Y657471D01*
X478745Y657457D01*
X478853Y657440D01*
X478960Y657418D01*
X479066Y657393D01*
X479171Y657364D01*
X479275Y657332D01*
X479377Y657296D01*
X479479Y657256D01*
X479578Y657212D01*
X479677Y657165D01*
X479773Y657115D01*
X479868Y657061D01*
X479960Y657004D01*
X480051Y656943D01*
X480139Y656879D01*
X480225Y656813D01*
X480309Y656743D01*
X480390Y656670D01*
X480468Y656594D01*
X480544Y656516D01*
X480617Y656435D01*
X480687Y656351D01*
X480753Y656265D01*
X480817Y656177D01*
X480878Y656086D01*
X480935Y655994D01*
X480989Y655899D01*
X481039Y655803D01*
X481086Y655704D01*
X481130Y655605D01*
X481170Y655503D01*
X481206Y655401D01*
X481238Y655297D01*
X481267Y655192D01*
X481292Y655086D01*
X481314Y654979D01*
X481331Y654871D01*
X481345Y654763D01*
X481354Y654655D01*
X481360Y654546D01*
X481362Y654437D01*
X481362Y652912D01*
X475260Y652912D01*
X487491Y657488D02*
X487491Y648335D01*
X487491Y657488D02*
X492068Y657488D01*
X492068Y655963D01*
X497145Y659777D02*
X497145Y648335D01*
X497146Y659777D02*
X497148Y659872D01*
X497154Y659966D01*
X497164Y660060D01*
X497177Y660154D01*
X497195Y660247D01*
X497216Y660339D01*
X497241Y660430D01*
X497270Y660520D01*
X497303Y660609D01*
X497339Y660696D01*
X497378Y660782D01*
X497422Y660866D01*
X497468Y660948D01*
X497519Y661028D01*
X497572Y661107D01*
X497628Y661182D01*
X497688Y661256D01*
X497751Y661327D01*
X497816Y661395D01*
X497884Y661460D01*
X497955Y661523D01*
X498029Y661583D01*
X498105Y661639D01*
X498183Y661692D01*
X498263Y661743D01*
X498345Y661789D01*
X498429Y661833D01*
X498515Y661872D01*
X498602Y661908D01*
X498691Y661941D01*
X498781Y661970D01*
X498872Y661995D01*
X498964Y662016D01*
X499057Y662034D01*
X499151Y662047D01*
X499245Y662057D01*
X499339Y662063D01*
X499434Y662065D01*
X500197Y662065D01*
X500197Y657488D02*
X495620Y657488D01*
X506658Y653674D02*
X510091Y653674D01*
X506658Y653675D02*
X506556Y653673D01*
X506454Y653667D01*
X506352Y653657D01*
X506250Y653644D01*
X506150Y653626D01*
X506050Y653605D01*
X505950Y653580D01*
X505852Y653551D01*
X505755Y653518D01*
X505660Y653481D01*
X505566Y653441D01*
X505473Y653398D01*
X505382Y653351D01*
X505294Y653300D01*
X505207Y653246D01*
X505122Y653189D01*
X505039Y653128D01*
X504959Y653065D01*
X504882Y652998D01*
X504807Y652929D01*
X504734Y652856D01*
X504665Y652781D01*
X504598Y652704D01*
X504535Y652624D01*
X504474Y652541D01*
X504417Y652456D01*
X504363Y652369D01*
X504312Y652281D01*
X504265Y652190D01*
X504222Y652097D01*
X504182Y652003D01*
X504145Y651908D01*
X504112Y651811D01*
X504083Y651713D01*
X504058Y651613D01*
X504037Y651513D01*
X504019Y651413D01*
X504006Y651311D01*
X503996Y651209D01*
X503990Y651107D01*
X503988Y651005D01*
X503990Y650903D01*
X503996Y650801D01*
X504006Y650699D01*
X504019Y650597D01*
X504037Y650497D01*
X504058Y650397D01*
X504083Y650297D01*
X504112Y650199D01*
X504145Y650102D01*
X504182Y650007D01*
X504222Y649913D01*
X504265Y649820D01*
X504312Y649729D01*
X504363Y649641D01*
X504417Y649554D01*
X504474Y649469D01*
X504535Y649386D01*
X504598Y649306D01*
X504665Y649229D01*
X504734Y649154D01*
X504807Y649081D01*
X504882Y649012D01*
X504959Y648945D01*
X505039Y648882D01*
X505122Y648821D01*
X505207Y648764D01*
X505294Y648710D01*
X505382Y648659D01*
X505473Y648612D01*
X505566Y648569D01*
X505660Y648529D01*
X505755Y648492D01*
X505852Y648459D01*
X505950Y648430D01*
X506050Y648405D01*
X506150Y648384D01*
X506250Y648366D01*
X506352Y648353D01*
X506454Y648343D01*
X506556Y648337D01*
X506658Y648335D01*
X510091Y648335D01*
X510091Y655200D01*
X510090Y655200D02*
X510088Y655295D01*
X510082Y655389D01*
X510072Y655483D01*
X510059Y655577D01*
X510041Y655670D01*
X510020Y655762D01*
X509995Y655853D01*
X509966Y655943D01*
X509933Y656032D01*
X509897Y656119D01*
X509858Y656205D01*
X509814Y656289D01*
X509768Y656371D01*
X509717Y656451D01*
X509664Y656530D01*
X509608Y656605D01*
X509548Y656679D01*
X509485Y656750D01*
X509420Y656818D01*
X509352Y656883D01*
X509281Y656946D01*
X509207Y657006D01*
X509132Y657062D01*
X509053Y657115D01*
X508973Y657166D01*
X508891Y657212D01*
X508807Y657256D01*
X508721Y657295D01*
X508634Y657331D01*
X508545Y657364D01*
X508455Y657393D01*
X508364Y657418D01*
X508272Y657439D01*
X508179Y657457D01*
X508085Y657470D01*
X507991Y657480D01*
X507897Y657486D01*
X507802Y657488D01*
X504751Y657488D01*
X518515Y648335D02*
X521566Y648335D01*
X518515Y648335D02*
X518420Y648337D01*
X518326Y648343D01*
X518232Y648353D01*
X518138Y648366D01*
X518045Y648384D01*
X517953Y648405D01*
X517862Y648430D01*
X517772Y648459D01*
X517683Y648492D01*
X517596Y648528D01*
X517510Y648567D01*
X517426Y648611D01*
X517344Y648657D01*
X517264Y648708D01*
X517185Y648761D01*
X517110Y648817D01*
X517036Y648877D01*
X516965Y648940D01*
X516897Y649005D01*
X516832Y649073D01*
X516769Y649144D01*
X516709Y649218D01*
X516653Y649293D01*
X516600Y649372D01*
X516549Y649452D01*
X516503Y649534D01*
X516459Y649618D01*
X516420Y649704D01*
X516384Y649791D01*
X516351Y649880D01*
X516322Y649970D01*
X516297Y650061D01*
X516276Y650153D01*
X516258Y650246D01*
X516245Y650340D01*
X516235Y650434D01*
X516229Y650528D01*
X516227Y650623D01*
X516226Y650623D02*
X516226Y655200D01*
X516227Y655200D02*
X516229Y655295D01*
X516235Y655389D01*
X516245Y655483D01*
X516258Y655577D01*
X516276Y655670D01*
X516297Y655762D01*
X516322Y655853D01*
X516351Y655943D01*
X516384Y656032D01*
X516420Y656119D01*
X516459Y656205D01*
X516503Y656289D01*
X516549Y656371D01*
X516600Y656451D01*
X516653Y656530D01*
X516709Y656605D01*
X516769Y656679D01*
X516832Y656750D01*
X516897Y656818D01*
X516965Y656883D01*
X517036Y656946D01*
X517110Y657006D01*
X517185Y657062D01*
X517264Y657115D01*
X517344Y657166D01*
X517426Y657212D01*
X517510Y657256D01*
X517596Y657295D01*
X517683Y657331D01*
X517772Y657364D01*
X517862Y657393D01*
X517953Y657418D01*
X518045Y657439D01*
X518138Y657457D01*
X518232Y657470D01*
X518326Y657480D01*
X518420Y657486D01*
X518515Y657488D01*
X521566Y657488D01*
X528848Y648335D02*
X532662Y648335D01*
X528848Y648335D02*
X528753Y648337D01*
X528659Y648343D01*
X528565Y648353D01*
X528471Y648366D01*
X528378Y648384D01*
X528286Y648405D01*
X528195Y648430D01*
X528105Y648459D01*
X528016Y648492D01*
X527929Y648528D01*
X527843Y648567D01*
X527759Y648611D01*
X527677Y648657D01*
X527597Y648708D01*
X527518Y648761D01*
X527443Y648817D01*
X527369Y648877D01*
X527298Y648940D01*
X527230Y649005D01*
X527165Y649073D01*
X527102Y649144D01*
X527042Y649218D01*
X526986Y649293D01*
X526933Y649372D01*
X526882Y649452D01*
X526836Y649534D01*
X526792Y649618D01*
X526753Y649704D01*
X526717Y649791D01*
X526684Y649880D01*
X526655Y649970D01*
X526630Y650061D01*
X526609Y650153D01*
X526591Y650246D01*
X526578Y650340D01*
X526568Y650434D01*
X526562Y650528D01*
X526560Y650623D01*
X526560Y654437D01*
X526562Y654546D01*
X526568Y654655D01*
X526577Y654763D01*
X526591Y654871D01*
X526608Y654979D01*
X526630Y655086D01*
X526655Y655192D01*
X526684Y655297D01*
X526716Y655401D01*
X526752Y655503D01*
X526792Y655605D01*
X526836Y655704D01*
X526883Y655803D01*
X526933Y655899D01*
X526987Y655994D01*
X527044Y656086D01*
X527105Y656177D01*
X527169Y656265D01*
X527235Y656351D01*
X527305Y656435D01*
X527378Y656516D01*
X527454Y656594D01*
X527532Y656670D01*
X527613Y656743D01*
X527697Y656813D01*
X527783Y656879D01*
X527871Y656943D01*
X527962Y657004D01*
X528054Y657061D01*
X528149Y657115D01*
X528245Y657165D01*
X528344Y657212D01*
X528443Y657256D01*
X528545Y657296D01*
X528647Y657332D01*
X528751Y657364D01*
X528856Y657393D01*
X528962Y657418D01*
X529069Y657440D01*
X529177Y657457D01*
X529285Y657471D01*
X529393Y657480D01*
X529502Y657486D01*
X529611Y657488D01*
X529720Y657486D01*
X529829Y657480D01*
X529937Y657471D01*
X530045Y657457D01*
X530153Y657440D01*
X530260Y657418D01*
X530366Y657393D01*
X530471Y657364D01*
X530575Y657332D01*
X530677Y657296D01*
X530779Y657256D01*
X530878Y657212D01*
X530977Y657165D01*
X531073Y657115D01*
X531168Y657061D01*
X531260Y657004D01*
X531351Y656943D01*
X531439Y656879D01*
X531525Y656813D01*
X531609Y656743D01*
X531690Y656670D01*
X531768Y656594D01*
X531844Y656516D01*
X531917Y656435D01*
X531987Y656351D01*
X532053Y656265D01*
X532117Y656177D01*
X532178Y656086D01*
X532235Y655994D01*
X532289Y655899D01*
X532339Y655803D01*
X532386Y655704D01*
X532430Y655605D01*
X532470Y655503D01*
X532506Y655401D01*
X532538Y655297D01*
X532567Y655192D01*
X532592Y655086D01*
X532614Y654979D01*
X532631Y654871D01*
X532645Y654763D01*
X532654Y654655D01*
X532660Y654546D01*
X532662Y654437D01*
X532662Y652912D01*
X526560Y652912D01*
X257686Y384191D02*
X257487Y383948D01*
X257294Y383700D01*
X257107Y383447D01*
X256926Y383190D01*
X256752Y382929D01*
X256584Y382664D01*
X256422Y382394D01*
X256266Y382121D01*
X256118Y381845D01*
X255976Y381564D01*
X255840Y381281D01*
X255712Y380994D01*
X255591Y380704D01*
X255476Y380412D01*
X255369Y380116D01*
X255268Y379818D01*
X255175Y379518D01*
X255090Y379216D01*
X255011Y378912D01*
X254940Y378606D01*
X254876Y378298D01*
X254820Y377989D01*
X254771Y377679D01*
X254729Y377367D01*
X254695Y377055D01*
X254669Y376742D01*
X254650Y376428D01*
X254639Y376114D01*
X254635Y375800D01*
X254639Y375486D01*
X254650Y375172D01*
X254669Y374858D01*
X254695Y374545D01*
X254729Y374233D01*
X254771Y373921D01*
X254820Y373611D01*
X254876Y373302D01*
X254940Y372994D01*
X255011Y372688D01*
X255090Y372384D01*
X255175Y372082D01*
X255268Y371782D01*
X255369Y371484D01*
X255476Y371189D01*
X255590Y370896D01*
X255712Y370606D01*
X255840Y370319D01*
X255976Y370036D01*
X256118Y369755D01*
X256266Y369479D01*
X256422Y369206D01*
X256584Y368936D01*
X256752Y368671D01*
X256926Y368410D01*
X257107Y368153D01*
X257294Y367900D01*
X257487Y367652D01*
X257686Y367409D01*
X265278Y368935D02*
X268329Y368935D01*
X265278Y368935D02*
X265183Y368937D01*
X265089Y368943D01*
X264995Y368953D01*
X264901Y368966D01*
X264808Y368984D01*
X264716Y369005D01*
X264625Y369030D01*
X264535Y369059D01*
X264446Y369092D01*
X264359Y369128D01*
X264273Y369167D01*
X264189Y369211D01*
X264107Y369257D01*
X264027Y369308D01*
X263948Y369361D01*
X263873Y369417D01*
X263799Y369477D01*
X263728Y369540D01*
X263660Y369605D01*
X263595Y369673D01*
X263532Y369744D01*
X263472Y369818D01*
X263416Y369893D01*
X263363Y369972D01*
X263312Y370052D01*
X263266Y370134D01*
X263222Y370218D01*
X263183Y370304D01*
X263147Y370391D01*
X263114Y370480D01*
X263085Y370570D01*
X263060Y370661D01*
X263039Y370753D01*
X263021Y370846D01*
X263008Y370940D01*
X262998Y371034D01*
X262992Y371128D01*
X262990Y371223D01*
X262990Y375800D01*
X262992Y375895D01*
X262998Y375989D01*
X263008Y376083D01*
X263021Y376177D01*
X263039Y376270D01*
X263060Y376362D01*
X263085Y376453D01*
X263114Y376543D01*
X263147Y376632D01*
X263183Y376719D01*
X263222Y376805D01*
X263266Y376889D01*
X263312Y376971D01*
X263363Y377051D01*
X263416Y377130D01*
X263472Y377205D01*
X263532Y377279D01*
X263595Y377350D01*
X263660Y377418D01*
X263728Y377483D01*
X263799Y377546D01*
X263873Y377606D01*
X263948Y377662D01*
X264027Y377715D01*
X264107Y377766D01*
X264189Y377812D01*
X264273Y377856D01*
X264359Y377895D01*
X264446Y377931D01*
X264535Y377964D01*
X264625Y377993D01*
X264716Y378018D01*
X264808Y378039D01*
X264901Y378057D01*
X264995Y378070D01*
X265089Y378080D01*
X265183Y378086D01*
X265278Y378088D01*
X268329Y378088D01*
X276065Y375800D02*
X276061Y375486D01*
X276050Y375172D01*
X276031Y374858D01*
X276005Y374545D01*
X275971Y374233D01*
X275929Y373921D01*
X275880Y373611D01*
X275824Y373302D01*
X275760Y372994D01*
X275689Y372688D01*
X275610Y372384D01*
X275525Y372082D01*
X275432Y371782D01*
X275331Y371484D01*
X275224Y371189D01*
X275110Y370896D01*
X274988Y370606D01*
X274860Y370319D01*
X274724Y370036D01*
X274582Y369756D01*
X274434Y369479D01*
X274278Y369206D01*
X274116Y368936D01*
X273948Y368671D01*
X273774Y368410D01*
X273593Y368153D01*
X273406Y367900D01*
X273213Y367652D01*
X273014Y367409D01*
X276065Y375800D02*
X276061Y376114D01*
X276050Y376428D01*
X276031Y376742D01*
X276005Y377055D01*
X275971Y377367D01*
X275929Y377679D01*
X275880Y377989D01*
X275824Y378298D01*
X275760Y378606D01*
X275689Y378912D01*
X275610Y379216D01*
X275525Y379518D01*
X275432Y379818D01*
X275331Y380116D01*
X275224Y380412D01*
X275110Y380704D01*
X274988Y380994D01*
X274860Y381281D01*
X274724Y381564D01*
X274582Y381845D01*
X274434Y382121D01*
X274278Y382394D01*
X274116Y382664D01*
X273948Y382929D01*
X273774Y383190D01*
X273593Y383447D01*
X273406Y383700D01*
X273213Y383948D01*
X273014Y384191D01*
X289688Y382665D02*
X289688Y368935D01*
X295790Y368935D01*
X303372Y374274D02*
X306804Y374274D01*
X303372Y374275D02*
X303270Y374273D01*
X303168Y374267D01*
X303066Y374257D01*
X302964Y374244D01*
X302864Y374226D01*
X302764Y374205D01*
X302664Y374180D01*
X302566Y374151D01*
X302469Y374118D01*
X302374Y374081D01*
X302280Y374041D01*
X302187Y373998D01*
X302096Y373951D01*
X302008Y373900D01*
X301921Y373846D01*
X301836Y373789D01*
X301753Y373728D01*
X301673Y373665D01*
X301596Y373598D01*
X301521Y373529D01*
X301448Y373456D01*
X301379Y373381D01*
X301312Y373304D01*
X301249Y373224D01*
X301188Y373141D01*
X301131Y373056D01*
X301077Y372969D01*
X301026Y372881D01*
X300979Y372790D01*
X300936Y372697D01*
X300896Y372603D01*
X300859Y372508D01*
X300826Y372411D01*
X300797Y372313D01*
X300772Y372213D01*
X300751Y372113D01*
X300733Y372013D01*
X300720Y371911D01*
X300710Y371809D01*
X300704Y371707D01*
X300702Y371605D01*
X300704Y371503D01*
X300710Y371401D01*
X300720Y371299D01*
X300733Y371197D01*
X300751Y371097D01*
X300772Y370997D01*
X300797Y370897D01*
X300826Y370799D01*
X300859Y370702D01*
X300896Y370607D01*
X300936Y370513D01*
X300979Y370420D01*
X301026Y370329D01*
X301077Y370241D01*
X301131Y370154D01*
X301188Y370069D01*
X301249Y369986D01*
X301312Y369906D01*
X301379Y369829D01*
X301448Y369754D01*
X301521Y369681D01*
X301596Y369612D01*
X301673Y369545D01*
X301753Y369482D01*
X301836Y369421D01*
X301921Y369364D01*
X302008Y369310D01*
X302096Y369259D01*
X302187Y369212D01*
X302280Y369169D01*
X302374Y369129D01*
X302469Y369092D01*
X302566Y369059D01*
X302664Y369030D01*
X302764Y369005D01*
X302864Y368984D01*
X302964Y368966D01*
X303066Y368953D01*
X303168Y368943D01*
X303270Y368937D01*
X303372Y368935D01*
X306804Y368935D01*
X306804Y375800D01*
X306802Y375895D01*
X306796Y375989D01*
X306786Y376083D01*
X306773Y376177D01*
X306755Y376270D01*
X306734Y376362D01*
X306709Y376453D01*
X306680Y376543D01*
X306647Y376632D01*
X306611Y376719D01*
X306572Y376805D01*
X306528Y376889D01*
X306482Y376971D01*
X306431Y377051D01*
X306378Y377130D01*
X306322Y377205D01*
X306262Y377279D01*
X306199Y377350D01*
X306134Y377418D01*
X306066Y377483D01*
X305995Y377546D01*
X305921Y377606D01*
X305846Y377662D01*
X305767Y377715D01*
X305687Y377766D01*
X305605Y377812D01*
X305521Y377856D01*
X305435Y377895D01*
X305348Y377931D01*
X305259Y377964D01*
X305169Y377993D01*
X305078Y378018D01*
X304986Y378039D01*
X304893Y378057D01*
X304799Y378070D01*
X304705Y378080D01*
X304611Y378086D01*
X304516Y378088D01*
X301465Y378088D01*
X314068Y374274D02*
X317882Y372749D01*
X314067Y374274D02*
X313986Y374309D01*
X313906Y374348D01*
X313828Y374389D01*
X313752Y374435D01*
X313678Y374483D01*
X313606Y374535D01*
X313537Y374590D01*
X313470Y374648D01*
X313406Y374710D01*
X313345Y374773D01*
X313286Y374840D01*
X313231Y374909D01*
X313179Y374981D01*
X313130Y375054D01*
X313084Y375130D01*
X313042Y375208D01*
X313003Y375288D01*
X312968Y375369D01*
X312937Y375452D01*
X312909Y375536D01*
X312886Y375621D01*
X312866Y375707D01*
X312849Y375794D01*
X312837Y375882D01*
X312829Y375970D01*
X312825Y376059D01*
X312824Y376147D01*
X312828Y376236D01*
X312835Y376324D01*
X312847Y376412D01*
X312862Y376499D01*
X312882Y376585D01*
X312905Y376671D01*
X312932Y376755D01*
X312963Y376838D01*
X312997Y376920D01*
X313035Y377000D01*
X313076Y377078D01*
X313121Y377154D01*
X313170Y377228D01*
X313221Y377300D01*
X313276Y377370D01*
X313334Y377437D01*
X313395Y377501D01*
X313458Y377563D01*
X313525Y377621D01*
X313594Y377677D01*
X313665Y377730D01*
X313739Y377779D01*
X313814Y377825D01*
X313892Y377867D01*
X313971Y377906D01*
X314053Y377942D01*
X314135Y377973D01*
X314219Y378001D01*
X314304Y378025D01*
X314391Y378046D01*
X314478Y378062D01*
X314565Y378075D01*
X314653Y378083D01*
X314742Y378088D01*
X314830Y378089D01*
X314831Y378088D02*
X315039Y378083D01*
X315247Y378072D01*
X315455Y378057D01*
X315662Y378036D01*
X315869Y378011D01*
X316075Y377980D01*
X316280Y377945D01*
X316484Y377905D01*
X316688Y377860D01*
X316890Y377809D01*
X317091Y377755D01*
X317290Y377695D01*
X317488Y377630D01*
X317685Y377561D01*
X317879Y377487D01*
X318072Y377409D01*
X318263Y377325D01*
X317882Y372750D02*
X317963Y372715D01*
X318043Y372676D01*
X318121Y372635D01*
X318197Y372589D01*
X318271Y372541D01*
X318343Y372489D01*
X318412Y372434D01*
X318479Y372376D01*
X318543Y372314D01*
X318604Y372251D01*
X318663Y372184D01*
X318718Y372115D01*
X318770Y372043D01*
X318819Y371970D01*
X318865Y371894D01*
X318907Y371816D01*
X318946Y371736D01*
X318981Y371655D01*
X319012Y371572D01*
X319040Y371488D01*
X319063Y371403D01*
X319083Y371317D01*
X319100Y371230D01*
X319112Y371142D01*
X319120Y371054D01*
X319124Y370965D01*
X319125Y370877D01*
X319121Y370788D01*
X319114Y370700D01*
X319102Y370612D01*
X319087Y370525D01*
X319067Y370439D01*
X319044Y370353D01*
X319017Y370269D01*
X318986Y370186D01*
X318952Y370104D01*
X318914Y370024D01*
X318873Y369946D01*
X318828Y369870D01*
X318779Y369796D01*
X318728Y369724D01*
X318673Y369654D01*
X318615Y369587D01*
X318554Y369523D01*
X318491Y369461D01*
X318424Y369403D01*
X318355Y369347D01*
X318284Y369294D01*
X318210Y369245D01*
X318135Y369199D01*
X318057Y369157D01*
X317978Y369118D01*
X317896Y369082D01*
X317814Y369051D01*
X317730Y369023D01*
X317645Y368999D01*
X317558Y368978D01*
X317471Y368962D01*
X317384Y368949D01*
X317296Y368941D01*
X317207Y368936D01*
X317119Y368935D01*
X317119Y368934D02*
X316813Y368942D01*
X316508Y368958D01*
X316203Y368980D01*
X315898Y369010D01*
X315594Y369046D01*
X315292Y369090D01*
X314990Y369142D01*
X314689Y369200D01*
X314391Y369265D01*
X314093Y369338D01*
X313798Y369417D01*
X313504Y369504D01*
X313213Y369597D01*
X312924Y369697D01*
X325768Y374274D02*
X329582Y372749D01*
X325767Y374274D02*
X325686Y374309D01*
X325606Y374348D01*
X325528Y374389D01*
X325452Y374435D01*
X325378Y374483D01*
X325306Y374535D01*
X325237Y374590D01*
X325170Y374648D01*
X325106Y374710D01*
X325045Y374773D01*
X324986Y374840D01*
X324931Y374909D01*
X324879Y374981D01*
X324830Y375054D01*
X324784Y375130D01*
X324742Y375208D01*
X324703Y375288D01*
X324668Y375369D01*
X324637Y375452D01*
X324609Y375536D01*
X324586Y375621D01*
X324566Y375707D01*
X324549Y375794D01*
X324537Y375882D01*
X324529Y375970D01*
X324525Y376059D01*
X324524Y376147D01*
X324528Y376236D01*
X324535Y376324D01*
X324547Y376412D01*
X324562Y376499D01*
X324582Y376585D01*
X324605Y376671D01*
X324632Y376755D01*
X324663Y376838D01*
X324697Y376920D01*
X324735Y377000D01*
X324776Y377078D01*
X324821Y377154D01*
X324870Y377228D01*
X324921Y377300D01*
X324976Y377370D01*
X325034Y377437D01*
X325095Y377501D01*
X325158Y377563D01*
X325225Y377621D01*
X325294Y377677D01*
X325365Y377730D01*
X325439Y377779D01*
X325514Y377825D01*
X325592Y377867D01*
X325671Y377906D01*
X325753Y377942D01*
X325835Y377973D01*
X325919Y378001D01*
X326004Y378025D01*
X326091Y378046D01*
X326178Y378062D01*
X326265Y378075D01*
X326353Y378083D01*
X326442Y378088D01*
X326530Y378089D01*
X326531Y378088D02*
X326739Y378083D01*
X326947Y378072D01*
X327155Y378057D01*
X327362Y378036D01*
X327569Y378011D01*
X327775Y377980D01*
X327980Y377945D01*
X328184Y377905D01*
X328388Y377860D01*
X328590Y377809D01*
X328791Y377755D01*
X328990Y377695D01*
X329188Y377630D01*
X329385Y377561D01*
X329579Y377487D01*
X329772Y377409D01*
X329963Y377325D01*
X329582Y372750D02*
X329663Y372715D01*
X329743Y372676D01*
X329821Y372635D01*
X329897Y372589D01*
X329971Y372541D01*
X330043Y372489D01*
X330112Y372434D01*
X330179Y372376D01*
X330243Y372314D01*
X330304Y372251D01*
X330363Y372184D01*
X330418Y372115D01*
X330470Y372043D01*
X330519Y371970D01*
X330565Y371894D01*
X330607Y371816D01*
X330646Y371736D01*
X330681Y371655D01*
X330712Y371572D01*
X330740Y371488D01*
X330763Y371403D01*
X330783Y371317D01*
X330800Y371230D01*
X330812Y371142D01*
X330820Y371054D01*
X330824Y370965D01*
X330825Y370877D01*
X330821Y370788D01*
X330814Y370700D01*
X330802Y370612D01*
X330787Y370525D01*
X330767Y370439D01*
X330744Y370353D01*
X330717Y370269D01*
X330686Y370186D01*
X330652Y370104D01*
X330614Y370024D01*
X330573Y369946D01*
X330528Y369870D01*
X330479Y369796D01*
X330428Y369724D01*
X330373Y369654D01*
X330315Y369587D01*
X330254Y369523D01*
X330191Y369461D01*
X330124Y369403D01*
X330055Y369347D01*
X329984Y369294D01*
X329910Y369245D01*
X329835Y369199D01*
X329757Y369157D01*
X329678Y369118D01*
X329596Y369082D01*
X329514Y369051D01*
X329430Y369023D01*
X329345Y368999D01*
X329258Y368978D01*
X329171Y368962D01*
X329084Y368949D01*
X328996Y368941D01*
X328907Y368936D01*
X328819Y368935D01*
X328819Y368934D02*
X328513Y368942D01*
X328208Y368958D01*
X327903Y368980D01*
X327598Y369010D01*
X327294Y369046D01*
X326992Y369090D01*
X326690Y369142D01*
X326389Y369200D01*
X326091Y369265D01*
X325793Y369338D01*
X325498Y369417D01*
X325204Y369504D01*
X324913Y369597D01*
X324624Y369697D01*
X336225Y368935D02*
X336225Y378088D01*
X335843Y381902D02*
X335843Y382665D01*
X336606Y382665D01*
X336606Y381902D01*
X335843Y381902D01*
X349716Y382665D02*
X349716Y368935D01*
X349716Y382665D02*
X353530Y382665D01*
X353652Y382663D01*
X353774Y382657D01*
X353896Y382647D01*
X354018Y382634D01*
X354139Y382616D01*
X354259Y382595D01*
X354379Y382569D01*
X354497Y382540D01*
X354615Y382507D01*
X354732Y382471D01*
X354847Y382430D01*
X354961Y382386D01*
X355074Y382339D01*
X355185Y382287D01*
X355294Y382232D01*
X355402Y382174D01*
X355507Y382113D01*
X355611Y382047D01*
X355712Y381979D01*
X355811Y381908D01*
X355908Y381833D01*
X356002Y381755D01*
X356094Y381674D01*
X356183Y381591D01*
X356270Y381504D01*
X356353Y381415D01*
X356434Y381323D01*
X356512Y381229D01*
X356587Y381132D01*
X356658Y381033D01*
X356726Y380932D01*
X356792Y380828D01*
X356853Y380723D01*
X356911Y380615D01*
X356966Y380506D01*
X357018Y380395D01*
X357065Y380282D01*
X357109Y380168D01*
X357150Y380053D01*
X357186Y379936D01*
X357219Y379818D01*
X357248Y379700D01*
X357274Y379580D01*
X357295Y379460D01*
X357313Y379339D01*
X357326Y379217D01*
X357336Y379095D01*
X357342Y378973D01*
X357344Y378851D01*
X357342Y378729D01*
X357336Y378607D01*
X357326Y378485D01*
X357313Y378363D01*
X357295Y378242D01*
X357274Y378122D01*
X357248Y378002D01*
X357219Y377884D01*
X357186Y377766D01*
X357150Y377649D01*
X357109Y377534D01*
X357065Y377420D01*
X357018Y377307D01*
X356966Y377196D01*
X356911Y377087D01*
X356853Y376979D01*
X356792Y376874D01*
X356726Y376770D01*
X356658Y376669D01*
X356587Y376570D01*
X356512Y376473D01*
X356434Y376379D01*
X356353Y376287D01*
X356270Y376198D01*
X356183Y376111D01*
X356094Y376028D01*
X356002Y375947D01*
X355908Y375869D01*
X355811Y375794D01*
X355712Y375723D01*
X355611Y375655D01*
X355507Y375589D01*
X355402Y375528D01*
X355294Y375470D01*
X355185Y375415D01*
X355074Y375363D01*
X354961Y375316D01*
X354847Y375272D01*
X354732Y375231D01*
X354615Y375195D01*
X354497Y375162D01*
X354379Y375133D01*
X354259Y375107D01*
X354139Y375086D01*
X354018Y375068D01*
X353896Y375055D01*
X353774Y375045D01*
X353652Y375039D01*
X353530Y375037D01*
X349716Y375037D01*
X365022Y374274D02*
X368454Y374274D01*
X365022Y374275D02*
X364920Y374273D01*
X364818Y374267D01*
X364716Y374257D01*
X364614Y374244D01*
X364514Y374226D01*
X364414Y374205D01*
X364314Y374180D01*
X364216Y374151D01*
X364119Y374118D01*
X364024Y374081D01*
X363930Y374041D01*
X363837Y373998D01*
X363746Y373951D01*
X363658Y373900D01*
X363571Y373846D01*
X363486Y373789D01*
X363403Y373728D01*
X363323Y373665D01*
X363246Y373598D01*
X363171Y373529D01*
X363098Y373456D01*
X363029Y373381D01*
X362962Y373304D01*
X362899Y373224D01*
X362838Y373141D01*
X362781Y373056D01*
X362727Y372969D01*
X362676Y372881D01*
X362629Y372790D01*
X362586Y372697D01*
X362546Y372603D01*
X362509Y372508D01*
X362476Y372411D01*
X362447Y372313D01*
X362422Y372213D01*
X362401Y372113D01*
X362383Y372013D01*
X362370Y371911D01*
X362360Y371809D01*
X362354Y371707D01*
X362352Y371605D01*
X362354Y371503D01*
X362360Y371401D01*
X362370Y371299D01*
X362383Y371197D01*
X362401Y371097D01*
X362422Y370997D01*
X362447Y370897D01*
X362476Y370799D01*
X362509Y370702D01*
X362546Y370607D01*
X362586Y370513D01*
X362629Y370420D01*
X362676Y370329D01*
X362727Y370241D01*
X362781Y370154D01*
X362838Y370069D01*
X362899Y369986D01*
X362962Y369906D01*
X363029Y369829D01*
X363098Y369754D01*
X363171Y369681D01*
X363246Y369612D01*
X363323Y369545D01*
X363403Y369482D01*
X363486Y369421D01*
X363571Y369364D01*
X363658Y369310D01*
X363746Y369259D01*
X363837Y369212D01*
X363930Y369169D01*
X364024Y369129D01*
X364119Y369092D01*
X364216Y369059D01*
X364314Y369030D01*
X364414Y369005D01*
X364514Y368984D01*
X364614Y368966D01*
X364716Y368953D01*
X364818Y368943D01*
X364920Y368937D01*
X365022Y368935D01*
X368454Y368935D01*
X368454Y375800D01*
X368452Y375895D01*
X368446Y375989D01*
X368436Y376083D01*
X368423Y376177D01*
X368405Y376270D01*
X368384Y376362D01*
X368359Y376453D01*
X368330Y376543D01*
X368297Y376632D01*
X368261Y376719D01*
X368222Y376805D01*
X368178Y376889D01*
X368132Y376971D01*
X368081Y377051D01*
X368028Y377130D01*
X367972Y377205D01*
X367912Y377279D01*
X367849Y377350D01*
X367784Y377418D01*
X367716Y377483D01*
X367645Y377546D01*
X367571Y377606D01*
X367496Y377662D01*
X367417Y377715D01*
X367337Y377766D01*
X367255Y377812D01*
X367171Y377856D01*
X367085Y377895D01*
X366998Y377931D01*
X366909Y377964D01*
X366819Y377993D01*
X366728Y378018D01*
X366636Y378039D01*
X366543Y378057D01*
X366449Y378070D01*
X366355Y378080D01*
X366261Y378086D01*
X366166Y378088D01*
X363115Y378088D01*
X375023Y378088D02*
X375023Y371223D01*
X375024Y371223D02*
X375026Y371128D01*
X375032Y371034D01*
X375042Y370940D01*
X375055Y370846D01*
X375073Y370753D01*
X375094Y370661D01*
X375119Y370570D01*
X375148Y370480D01*
X375181Y370391D01*
X375217Y370304D01*
X375256Y370218D01*
X375300Y370134D01*
X375346Y370052D01*
X375397Y369972D01*
X375450Y369893D01*
X375506Y369818D01*
X375566Y369744D01*
X375629Y369673D01*
X375694Y369605D01*
X375762Y369540D01*
X375833Y369477D01*
X375907Y369417D01*
X375982Y369361D01*
X376061Y369308D01*
X376141Y369257D01*
X376223Y369211D01*
X376307Y369167D01*
X376393Y369128D01*
X376480Y369092D01*
X376569Y369059D01*
X376659Y369030D01*
X376750Y369005D01*
X376842Y368984D01*
X376935Y368966D01*
X377029Y368953D01*
X377123Y368943D01*
X377217Y368937D01*
X377312Y368935D01*
X381126Y368935D01*
X381126Y378088D01*
X387623Y378088D02*
X387623Y368935D01*
X387623Y378088D02*
X391437Y378088D01*
X391532Y378086D01*
X391626Y378080D01*
X391720Y378070D01*
X391814Y378057D01*
X391907Y378039D01*
X391999Y378018D01*
X392090Y377993D01*
X392180Y377964D01*
X392269Y377931D01*
X392356Y377895D01*
X392442Y377856D01*
X392526Y377812D01*
X392608Y377766D01*
X392688Y377715D01*
X392766Y377662D01*
X392842Y377606D01*
X392916Y377546D01*
X392987Y377483D01*
X393055Y377418D01*
X393120Y377350D01*
X393183Y377279D01*
X393243Y377205D01*
X393299Y377130D01*
X393352Y377051D01*
X393403Y376971D01*
X393449Y376889D01*
X393493Y376805D01*
X393532Y376719D01*
X393568Y376632D01*
X393601Y376543D01*
X393630Y376453D01*
X393655Y376362D01*
X393676Y376270D01*
X393694Y376177D01*
X393707Y376083D01*
X393717Y375989D01*
X393723Y375895D01*
X393725Y375800D01*
X393726Y375800D02*
X393726Y368935D01*
X399773Y371986D02*
X399773Y375037D01*
X399775Y375146D01*
X399781Y375255D01*
X399790Y375363D01*
X399804Y375471D01*
X399821Y375579D01*
X399843Y375686D01*
X399868Y375792D01*
X399897Y375897D01*
X399929Y376001D01*
X399965Y376103D01*
X400005Y376205D01*
X400049Y376304D01*
X400096Y376403D01*
X400146Y376499D01*
X400200Y376594D01*
X400257Y376686D01*
X400318Y376777D01*
X400382Y376865D01*
X400448Y376951D01*
X400518Y377035D01*
X400591Y377116D01*
X400667Y377194D01*
X400745Y377270D01*
X400826Y377343D01*
X400910Y377413D01*
X400996Y377479D01*
X401084Y377543D01*
X401175Y377604D01*
X401267Y377661D01*
X401362Y377715D01*
X401458Y377765D01*
X401557Y377812D01*
X401656Y377856D01*
X401758Y377896D01*
X401860Y377932D01*
X401964Y377964D01*
X402069Y377993D01*
X402175Y378018D01*
X402282Y378040D01*
X402390Y378057D01*
X402498Y378071D01*
X402606Y378080D01*
X402715Y378086D01*
X402824Y378088D01*
X402933Y378086D01*
X403042Y378080D01*
X403150Y378071D01*
X403258Y378057D01*
X403366Y378040D01*
X403473Y378018D01*
X403579Y377993D01*
X403684Y377964D01*
X403788Y377932D01*
X403890Y377896D01*
X403992Y377856D01*
X404091Y377812D01*
X404190Y377765D01*
X404286Y377715D01*
X404381Y377661D01*
X404473Y377604D01*
X404564Y377543D01*
X404652Y377479D01*
X404738Y377413D01*
X404822Y377343D01*
X404903Y377270D01*
X404981Y377194D01*
X405057Y377116D01*
X405130Y377035D01*
X405200Y376951D01*
X405266Y376865D01*
X405330Y376777D01*
X405391Y376686D01*
X405448Y376594D01*
X405502Y376499D01*
X405552Y376403D01*
X405599Y376304D01*
X405643Y376205D01*
X405683Y376103D01*
X405719Y376001D01*
X405751Y375897D01*
X405780Y375792D01*
X405805Y375686D01*
X405827Y375579D01*
X405844Y375471D01*
X405858Y375363D01*
X405867Y375255D01*
X405873Y375146D01*
X405875Y375037D01*
X405876Y375037D02*
X405876Y371986D01*
X405875Y371986D02*
X405873Y371877D01*
X405867Y371768D01*
X405858Y371660D01*
X405844Y371552D01*
X405827Y371444D01*
X405805Y371337D01*
X405780Y371231D01*
X405751Y371126D01*
X405719Y371022D01*
X405683Y370920D01*
X405643Y370818D01*
X405599Y370719D01*
X405552Y370620D01*
X405502Y370524D01*
X405448Y370429D01*
X405391Y370337D01*
X405330Y370246D01*
X405266Y370158D01*
X405200Y370072D01*
X405130Y369988D01*
X405057Y369907D01*
X404981Y369829D01*
X404903Y369753D01*
X404822Y369680D01*
X404738Y369610D01*
X404652Y369544D01*
X404564Y369480D01*
X404473Y369419D01*
X404381Y369362D01*
X404286Y369308D01*
X404190Y369258D01*
X404091Y369211D01*
X403992Y369167D01*
X403890Y369127D01*
X403788Y369091D01*
X403684Y369059D01*
X403579Y369030D01*
X403473Y369005D01*
X403366Y368983D01*
X403258Y368966D01*
X403150Y368952D01*
X403042Y368943D01*
X402933Y368937D01*
X402824Y368935D01*
X402715Y368937D01*
X402606Y368943D01*
X402498Y368952D01*
X402390Y368966D01*
X402282Y368983D01*
X402175Y369005D01*
X402069Y369030D01*
X401964Y369059D01*
X401860Y369091D01*
X401758Y369127D01*
X401656Y369167D01*
X401557Y369211D01*
X401458Y369258D01*
X401362Y369308D01*
X401267Y369362D01*
X401175Y369419D01*
X401084Y369480D01*
X400996Y369544D01*
X400910Y369610D01*
X400826Y369680D01*
X400745Y369753D01*
X400667Y369829D01*
X400591Y369907D01*
X400518Y369988D01*
X400448Y370072D01*
X400382Y370158D01*
X400318Y370246D01*
X400257Y370337D01*
X400200Y370429D01*
X400146Y370524D01*
X400096Y370620D01*
X400049Y370719D01*
X400005Y370818D01*
X399965Y370920D01*
X399929Y371022D01*
X399897Y371126D01*
X399868Y371231D01*
X399843Y371337D01*
X399821Y371444D01*
X399804Y371552D01*
X399790Y371660D01*
X399781Y371768D01*
X399775Y371877D01*
X399773Y371986D01*
X411923Y368935D02*
X411923Y378088D01*
X415737Y378088D01*
X415832Y378086D01*
X415926Y378080D01*
X416020Y378070D01*
X416114Y378057D01*
X416207Y378039D01*
X416299Y378018D01*
X416390Y377993D01*
X416480Y377964D01*
X416569Y377931D01*
X416656Y377895D01*
X416742Y377856D01*
X416826Y377812D01*
X416908Y377766D01*
X416988Y377715D01*
X417066Y377662D01*
X417142Y377606D01*
X417216Y377546D01*
X417287Y377483D01*
X417355Y377418D01*
X417420Y377350D01*
X417483Y377279D01*
X417543Y377205D01*
X417599Y377130D01*
X417652Y377051D01*
X417703Y376971D01*
X417749Y376889D01*
X417793Y376805D01*
X417832Y376719D01*
X417868Y376632D01*
X417901Y376543D01*
X417930Y376453D01*
X417955Y376362D01*
X417976Y376270D01*
X417994Y376177D01*
X418007Y376083D01*
X418017Y375989D01*
X418023Y375895D01*
X418025Y375800D01*
X418025Y368935D01*
X426362Y368935D02*
X430175Y368935D01*
X426362Y368935D02*
X426267Y368937D01*
X426173Y368943D01*
X426079Y368953D01*
X425985Y368966D01*
X425892Y368984D01*
X425800Y369005D01*
X425709Y369030D01*
X425619Y369059D01*
X425530Y369092D01*
X425443Y369128D01*
X425357Y369167D01*
X425273Y369211D01*
X425191Y369257D01*
X425111Y369308D01*
X425032Y369361D01*
X424957Y369417D01*
X424883Y369477D01*
X424812Y369540D01*
X424744Y369605D01*
X424679Y369673D01*
X424616Y369744D01*
X424556Y369818D01*
X424500Y369893D01*
X424447Y369972D01*
X424396Y370052D01*
X424350Y370134D01*
X424306Y370218D01*
X424267Y370304D01*
X424231Y370391D01*
X424198Y370480D01*
X424169Y370570D01*
X424144Y370661D01*
X424123Y370753D01*
X424105Y370846D01*
X424092Y370940D01*
X424082Y371034D01*
X424076Y371128D01*
X424074Y371223D01*
X424073Y371223D02*
X424073Y375037D01*
X424075Y375146D01*
X424081Y375255D01*
X424090Y375363D01*
X424104Y375471D01*
X424121Y375579D01*
X424143Y375686D01*
X424168Y375792D01*
X424197Y375897D01*
X424229Y376001D01*
X424265Y376103D01*
X424305Y376205D01*
X424349Y376304D01*
X424396Y376403D01*
X424446Y376499D01*
X424500Y376594D01*
X424557Y376686D01*
X424618Y376777D01*
X424682Y376865D01*
X424748Y376951D01*
X424818Y377035D01*
X424891Y377116D01*
X424967Y377194D01*
X425045Y377270D01*
X425126Y377343D01*
X425210Y377413D01*
X425296Y377479D01*
X425384Y377543D01*
X425475Y377604D01*
X425567Y377661D01*
X425662Y377715D01*
X425758Y377765D01*
X425857Y377812D01*
X425956Y377856D01*
X426058Y377896D01*
X426160Y377932D01*
X426264Y377964D01*
X426369Y377993D01*
X426475Y378018D01*
X426582Y378040D01*
X426690Y378057D01*
X426798Y378071D01*
X426906Y378080D01*
X427015Y378086D01*
X427124Y378088D01*
X427233Y378086D01*
X427342Y378080D01*
X427450Y378071D01*
X427558Y378057D01*
X427666Y378040D01*
X427773Y378018D01*
X427879Y377993D01*
X427984Y377964D01*
X428088Y377932D01*
X428190Y377896D01*
X428292Y377856D01*
X428391Y377812D01*
X428490Y377765D01*
X428586Y377715D01*
X428681Y377661D01*
X428773Y377604D01*
X428864Y377543D01*
X428952Y377479D01*
X429038Y377413D01*
X429122Y377343D01*
X429203Y377270D01*
X429281Y377194D01*
X429357Y377116D01*
X429430Y377035D01*
X429500Y376951D01*
X429566Y376865D01*
X429630Y376777D01*
X429691Y376686D01*
X429748Y376594D01*
X429802Y376499D01*
X429852Y376403D01*
X429899Y376304D01*
X429943Y376205D01*
X429983Y376103D01*
X430019Y376001D01*
X430051Y375897D01*
X430080Y375792D01*
X430105Y375686D01*
X430127Y375579D01*
X430144Y375471D01*
X430158Y375363D01*
X430167Y375255D01*
X430173Y375146D01*
X430175Y375037D01*
X430175Y373512D01*
X424073Y373512D01*
X436223Y368935D02*
X436223Y378088D01*
X440037Y378088D01*
X440132Y378086D01*
X440226Y378080D01*
X440320Y378070D01*
X440414Y378057D01*
X440507Y378039D01*
X440599Y378018D01*
X440690Y377993D01*
X440780Y377964D01*
X440869Y377931D01*
X440956Y377895D01*
X441042Y377856D01*
X441126Y377812D01*
X441208Y377766D01*
X441288Y377715D01*
X441366Y377662D01*
X441442Y377606D01*
X441516Y377546D01*
X441587Y377483D01*
X441655Y377418D01*
X441720Y377350D01*
X441783Y377279D01*
X441843Y377205D01*
X441899Y377130D01*
X441952Y377051D01*
X442003Y376971D01*
X442049Y376889D01*
X442093Y376805D01*
X442132Y376719D01*
X442168Y376632D01*
X442201Y376543D01*
X442230Y376453D01*
X442255Y376362D01*
X442276Y376270D01*
X442294Y376177D01*
X442307Y376083D01*
X442317Y375989D01*
X442323Y375895D01*
X442325Y375800D01*
X442325Y368935D01*
X459906Y382666D02*
X460021Y382664D01*
X460135Y382658D01*
X460250Y382649D01*
X460364Y382635D01*
X460477Y382618D01*
X460590Y382597D01*
X460702Y382572D01*
X460813Y382544D01*
X460923Y382512D01*
X461032Y382476D01*
X461140Y382437D01*
X461246Y382394D01*
X461351Y382347D01*
X461454Y382297D01*
X461556Y382244D01*
X461656Y382187D01*
X461753Y382127D01*
X461849Y382063D01*
X461942Y381997D01*
X462034Y381927D01*
X462122Y381855D01*
X462209Y381779D01*
X462293Y381701D01*
X462374Y381620D01*
X462452Y381536D01*
X462528Y381449D01*
X462600Y381361D01*
X462670Y381269D01*
X462736Y381176D01*
X462800Y381080D01*
X462860Y380983D01*
X462917Y380883D01*
X462970Y380781D01*
X463020Y380678D01*
X463067Y380573D01*
X463110Y380467D01*
X463149Y380359D01*
X463185Y380250D01*
X463217Y380140D01*
X463245Y380029D01*
X463270Y379917D01*
X463291Y379804D01*
X463308Y379691D01*
X463322Y379577D01*
X463331Y379462D01*
X463337Y379348D01*
X463339Y379233D01*
X459906Y382665D02*
X459774Y382663D01*
X459642Y382657D01*
X459510Y382647D01*
X459379Y382633D01*
X459248Y382616D01*
X459118Y382594D01*
X458988Y382568D01*
X458860Y382539D01*
X458732Y382506D01*
X458605Y382469D01*
X458480Y382428D01*
X458355Y382383D01*
X458232Y382335D01*
X458111Y382283D01*
X457991Y382228D01*
X457873Y382169D01*
X457757Y382106D01*
X457643Y382040D01*
X457530Y381970D01*
X457420Y381898D01*
X457312Y381822D01*
X457207Y381742D01*
X457103Y381660D01*
X457003Y381574D01*
X456905Y381486D01*
X456809Y381395D01*
X456717Y381301D01*
X456627Y381204D01*
X456540Y381104D01*
X456456Y381002D01*
X456376Y380898D01*
X456298Y380791D01*
X456224Y380682D01*
X456153Y380570D01*
X456085Y380457D01*
X456021Y380342D01*
X455960Y380224D01*
X455903Y380105D01*
X455849Y379985D01*
X455799Y379862D01*
X455753Y379739D01*
X455711Y379614D01*
X462194Y376563D02*
X462279Y376647D01*
X462361Y376733D01*
X462441Y376822D01*
X462517Y376914D01*
X462591Y377008D01*
X462662Y377104D01*
X462729Y377203D01*
X462793Y377304D01*
X462854Y377407D01*
X462911Y377511D01*
X462965Y377618D01*
X463016Y377726D01*
X463063Y377836D01*
X463106Y377947D01*
X463146Y378060D01*
X463182Y378173D01*
X463215Y378288D01*
X463244Y378404D01*
X463269Y378521D01*
X463290Y378638D01*
X463307Y378757D01*
X463321Y378875D01*
X463330Y378994D01*
X463336Y379114D01*
X463338Y379233D01*
X462194Y376563D02*
X455710Y368935D01*
X463338Y368935D01*
X469211Y375800D02*
X469214Y376070D01*
X469224Y376340D01*
X469240Y376610D01*
X469263Y376879D01*
X469292Y377147D01*
X469327Y377415D01*
X469369Y377682D01*
X469417Y377948D01*
X469471Y378212D01*
X469532Y378475D01*
X469599Y378737D01*
X469672Y378997D01*
X469752Y379255D01*
X469837Y379511D01*
X469929Y379766D01*
X470026Y380017D01*
X470130Y380267D01*
X470240Y380514D01*
X470355Y380758D01*
X470391Y380858D01*
X470431Y380956D01*
X470474Y381053D01*
X470522Y381148D01*
X470573Y381241D01*
X470627Y381332D01*
X470684Y381421D01*
X470745Y381508D01*
X470810Y381592D01*
X470877Y381674D01*
X470947Y381754D01*
X471021Y381830D01*
X471097Y381904D01*
X471176Y381975D01*
X471257Y382043D01*
X471341Y382108D01*
X471427Y382170D01*
X471516Y382228D01*
X471606Y382283D01*
X471699Y382335D01*
X471794Y382383D01*
X471890Y382427D01*
X471988Y382468D01*
X472087Y382505D01*
X472188Y382538D01*
X472290Y382568D01*
X472393Y382594D01*
X472497Y382615D01*
X472601Y382633D01*
X472706Y382647D01*
X472812Y382657D01*
X472918Y382663D01*
X473024Y382665D01*
X473130Y382663D01*
X473236Y382657D01*
X473342Y382647D01*
X473447Y382633D01*
X473551Y382615D01*
X473655Y382594D01*
X473758Y382568D01*
X473860Y382538D01*
X473961Y382505D01*
X474060Y382468D01*
X474158Y382427D01*
X474254Y382383D01*
X474349Y382335D01*
X474442Y382283D01*
X474532Y382228D01*
X474621Y382170D01*
X474707Y382108D01*
X474791Y382043D01*
X474873Y381975D01*
X474951Y381904D01*
X475027Y381830D01*
X475101Y381754D01*
X475171Y381674D01*
X475238Y381592D01*
X475303Y381508D01*
X475364Y381421D01*
X475421Y381332D01*
X475475Y381241D01*
X475526Y381148D01*
X475574Y381053D01*
X475617Y380956D01*
X475657Y380858D01*
X475693Y380758D01*
X475694Y380758D02*
X475809Y380514D01*
X475919Y380267D01*
X476023Y380017D01*
X476120Y379766D01*
X476212Y379511D01*
X476297Y379255D01*
X476377Y378997D01*
X476450Y378737D01*
X476517Y378475D01*
X476578Y378212D01*
X476632Y377948D01*
X476680Y377682D01*
X476722Y377415D01*
X476757Y377147D01*
X476786Y376879D01*
X476809Y376610D01*
X476825Y376340D01*
X476835Y376070D01*
X476838Y375800D01*
X469210Y375800D02*
X469213Y375530D01*
X469223Y375260D01*
X469239Y374990D01*
X469262Y374721D01*
X469291Y374453D01*
X469326Y374185D01*
X469368Y373918D01*
X469416Y373652D01*
X469470Y373388D01*
X469531Y373124D01*
X469598Y372863D01*
X469671Y372603D01*
X469751Y372344D01*
X469836Y372088D01*
X469928Y371834D01*
X470025Y371582D01*
X470129Y371333D01*
X470239Y371086D01*
X470354Y370842D01*
X470355Y370842D02*
X470391Y370742D01*
X470431Y370644D01*
X470475Y370547D01*
X470522Y370452D01*
X470573Y370359D01*
X470627Y370268D01*
X470685Y370179D01*
X470745Y370092D01*
X470810Y370008D01*
X470877Y369926D01*
X470947Y369846D01*
X471021Y369770D01*
X471097Y369696D01*
X471176Y369625D01*
X471257Y369557D01*
X471341Y369492D01*
X471427Y369430D01*
X471516Y369372D01*
X471606Y369317D01*
X471699Y369265D01*
X471794Y369217D01*
X471890Y369173D01*
X471988Y369132D01*
X472087Y369095D01*
X472188Y369062D01*
X472290Y369032D01*
X472393Y369006D01*
X472497Y368985D01*
X472601Y368967D01*
X472706Y368953D01*
X472812Y368943D01*
X472918Y368937D01*
X473024Y368935D01*
X475694Y370842D02*
X475809Y371086D01*
X475919Y371333D01*
X476023Y371582D01*
X476120Y371834D01*
X476212Y372088D01*
X476297Y372344D01*
X476377Y372603D01*
X476450Y372863D01*
X476517Y373124D01*
X476578Y373388D01*
X476632Y373652D01*
X476680Y373918D01*
X476722Y374185D01*
X476757Y374453D01*
X476786Y374721D01*
X476809Y374990D01*
X476825Y375260D01*
X476835Y375530D01*
X476838Y375800D01*
X475693Y370842D02*
X475657Y370742D01*
X475617Y370644D01*
X475574Y370547D01*
X475526Y370452D01*
X475475Y370359D01*
X475421Y370268D01*
X475364Y370179D01*
X475303Y370092D01*
X475238Y370008D01*
X475171Y369926D01*
X475101Y369846D01*
X475027Y369770D01*
X474951Y369696D01*
X474873Y369625D01*
X474791Y369557D01*
X474707Y369492D01*
X474621Y369430D01*
X474532Y369372D01*
X474442Y369317D01*
X474349Y369265D01*
X474254Y369217D01*
X474158Y369173D01*
X474060Y369132D01*
X473961Y369095D01*
X473860Y369062D01*
X473758Y369032D01*
X473655Y369006D01*
X473551Y368985D01*
X473447Y368967D01*
X473342Y368953D01*
X473236Y368943D01*
X473130Y368937D01*
X473024Y368935D01*
X469973Y371986D02*
X476075Y379614D01*
X482710Y379614D02*
X486524Y382665D01*
X486524Y368935D01*
X482710Y368935D02*
X490338Y368935D01*
X499261Y375037D02*
X503838Y375037D01*
X499261Y375037D02*
X499152Y375039D01*
X499043Y375045D01*
X498935Y375054D01*
X498827Y375068D01*
X498719Y375085D01*
X498612Y375107D01*
X498506Y375132D01*
X498401Y375161D01*
X498297Y375193D01*
X498195Y375229D01*
X498093Y375269D01*
X497994Y375313D01*
X497895Y375360D01*
X497799Y375410D01*
X497704Y375464D01*
X497612Y375521D01*
X497521Y375582D01*
X497433Y375646D01*
X497347Y375712D01*
X497263Y375782D01*
X497182Y375855D01*
X497104Y375931D01*
X497028Y376009D01*
X496955Y376090D01*
X496885Y376174D01*
X496819Y376260D01*
X496755Y376348D01*
X496694Y376439D01*
X496637Y376531D01*
X496583Y376626D01*
X496533Y376722D01*
X496486Y376821D01*
X496442Y376920D01*
X496402Y377022D01*
X496366Y377124D01*
X496334Y377228D01*
X496305Y377333D01*
X496280Y377439D01*
X496258Y377546D01*
X496241Y377654D01*
X496227Y377762D01*
X496218Y377870D01*
X496212Y377979D01*
X496210Y378088D01*
X496210Y378851D01*
X496212Y378973D01*
X496218Y379095D01*
X496228Y379217D01*
X496241Y379339D01*
X496259Y379460D01*
X496280Y379580D01*
X496306Y379700D01*
X496335Y379818D01*
X496368Y379936D01*
X496404Y380053D01*
X496445Y380168D01*
X496489Y380282D01*
X496536Y380395D01*
X496588Y380506D01*
X496643Y380615D01*
X496701Y380723D01*
X496762Y380828D01*
X496828Y380932D01*
X496896Y381033D01*
X496967Y381132D01*
X497042Y381229D01*
X497120Y381323D01*
X497201Y381415D01*
X497284Y381504D01*
X497371Y381591D01*
X497460Y381674D01*
X497552Y381755D01*
X497646Y381833D01*
X497743Y381908D01*
X497842Y381979D01*
X497943Y382047D01*
X498047Y382113D01*
X498152Y382174D01*
X498260Y382232D01*
X498369Y382287D01*
X498480Y382339D01*
X498593Y382386D01*
X498707Y382430D01*
X498822Y382471D01*
X498939Y382507D01*
X499057Y382540D01*
X499175Y382569D01*
X499295Y382595D01*
X499415Y382616D01*
X499536Y382634D01*
X499658Y382647D01*
X499780Y382657D01*
X499902Y382663D01*
X500024Y382665D01*
X500146Y382663D01*
X500268Y382657D01*
X500390Y382647D01*
X500512Y382634D01*
X500633Y382616D01*
X500753Y382595D01*
X500873Y382569D01*
X500991Y382540D01*
X501109Y382507D01*
X501226Y382471D01*
X501341Y382430D01*
X501455Y382386D01*
X501568Y382339D01*
X501679Y382287D01*
X501788Y382232D01*
X501896Y382174D01*
X502001Y382113D01*
X502105Y382047D01*
X502206Y381979D01*
X502305Y381908D01*
X502402Y381833D01*
X502496Y381755D01*
X502588Y381674D01*
X502677Y381591D01*
X502764Y381504D01*
X502847Y381415D01*
X502928Y381323D01*
X503006Y381229D01*
X503081Y381132D01*
X503152Y381033D01*
X503220Y380932D01*
X503286Y380828D01*
X503347Y380723D01*
X503405Y380615D01*
X503460Y380506D01*
X503512Y380395D01*
X503559Y380282D01*
X503603Y380168D01*
X503644Y380053D01*
X503680Y379936D01*
X503713Y379818D01*
X503742Y379700D01*
X503768Y379580D01*
X503789Y379460D01*
X503807Y379339D01*
X503820Y379217D01*
X503830Y379095D01*
X503836Y378973D01*
X503838Y378851D01*
X503838Y375037D01*
X503836Y374882D01*
X503830Y374728D01*
X503820Y374574D01*
X503807Y374420D01*
X503789Y374266D01*
X503768Y374113D01*
X503742Y373960D01*
X503713Y373809D01*
X503680Y373658D01*
X503643Y373508D01*
X503603Y373358D01*
X503558Y373210D01*
X503510Y373063D01*
X503458Y372918D01*
X503403Y372773D01*
X503343Y372631D01*
X503281Y372489D01*
X503214Y372350D01*
X503145Y372212D01*
X503071Y372076D01*
X502995Y371941D01*
X502914Y371809D01*
X502831Y371679D01*
X502744Y371551D01*
X502654Y371425D01*
X502561Y371302D01*
X502465Y371181D01*
X502366Y371062D01*
X502264Y370946D01*
X502159Y370833D01*
X502051Y370722D01*
X501940Y370614D01*
X501827Y370509D01*
X501711Y370407D01*
X501592Y370308D01*
X501471Y370212D01*
X501348Y370119D01*
X501222Y370029D01*
X501094Y369942D01*
X500964Y369859D01*
X500832Y369778D01*
X500697Y369702D01*
X500561Y369628D01*
X500423Y369559D01*
X500284Y369492D01*
X500142Y369430D01*
X500000Y369370D01*
X499855Y369315D01*
X499710Y369263D01*
X499563Y369215D01*
X499415Y369170D01*
X499266Y369130D01*
X499115Y369093D01*
X498964Y369060D01*
X498813Y369031D01*
X498660Y369005D01*
X498507Y368984D01*
X498353Y368966D01*
X498199Y368953D01*
X498045Y368943D01*
X497891Y368937D01*
X497736Y368935D01*
D10*
X584708Y635508D02*
X596392Y635508D01*
X584708Y635508D02*
X584708Y638754D01*
X584710Y638867D01*
X584716Y638980D01*
X584726Y639093D01*
X584740Y639206D01*
X584757Y639318D01*
X584779Y639429D01*
X584804Y639539D01*
X584834Y639649D01*
X584867Y639757D01*
X584904Y639864D01*
X584944Y639970D01*
X584989Y640074D01*
X585037Y640177D01*
X585088Y640278D01*
X585143Y640377D01*
X585201Y640474D01*
X585263Y640569D01*
X585328Y640662D01*
X585396Y640752D01*
X585467Y640840D01*
X585542Y640926D01*
X585619Y641009D01*
X585699Y641089D01*
X585782Y641166D01*
X585868Y641241D01*
X585956Y641312D01*
X586046Y641380D01*
X586139Y641445D01*
X586234Y641507D01*
X586331Y641565D01*
X586430Y641620D01*
X586531Y641671D01*
X586634Y641719D01*
X586738Y641764D01*
X586844Y641804D01*
X586951Y641841D01*
X587059Y641874D01*
X587169Y641904D01*
X587279Y641929D01*
X587390Y641951D01*
X587502Y641968D01*
X587615Y641982D01*
X587728Y641992D01*
X587841Y641998D01*
X587954Y642000D01*
X588067Y641998D01*
X588180Y641992D01*
X588293Y641982D01*
X588406Y641968D01*
X588518Y641951D01*
X588629Y641929D01*
X588739Y641904D01*
X588849Y641874D01*
X588957Y641841D01*
X589064Y641804D01*
X589170Y641764D01*
X589274Y641719D01*
X589377Y641671D01*
X589478Y641620D01*
X589577Y641565D01*
X589674Y641507D01*
X589769Y641445D01*
X589862Y641380D01*
X589952Y641312D01*
X590040Y641241D01*
X590126Y641166D01*
X590209Y641089D01*
X590289Y641009D01*
X590366Y640926D01*
X590441Y640840D01*
X590512Y640752D01*
X590580Y640662D01*
X590645Y640569D01*
X590707Y640474D01*
X590765Y640377D01*
X590820Y640278D01*
X590871Y640177D01*
X590919Y640074D01*
X590964Y639970D01*
X591004Y639864D01*
X591041Y639757D01*
X591074Y639649D01*
X591104Y639539D01*
X591129Y639429D01*
X591151Y639318D01*
X591168Y639206D01*
X591182Y639093D01*
X591192Y638980D01*
X591198Y638867D01*
X591200Y638754D01*
X591199Y638754D02*
X591199Y635508D01*
X591199Y639403D02*
X596392Y641999D01*
X596392Y647268D02*
X596392Y652461D01*
X596392Y647268D02*
X584708Y647268D01*
X584708Y652461D01*
X589901Y651163D02*
X589901Y647268D01*
X584708Y656121D02*
X596392Y660016D01*
X584708Y663911D01*
X584708Y677542D02*
X596392Y673647D01*
X596392Y681437D02*
X584708Y677542D01*
X593471Y680463D02*
X593471Y674621D01*
D12*
X142000Y534800D02*
X142000Y513800D01*
X84000Y513800D02*
X33000Y513800D01*
X131000Y513800D02*
X142000Y513800D01*
X142000Y603800D02*
X33000Y603800D01*
X142000Y603800D02*
X142000Y584800D01*
X33000Y603800D02*
X33000Y513800D01*
D11*
X31200Y622935D02*
X26035Y622935D01*
X31200Y622935D02*
X31315Y622937D01*
X31430Y622943D01*
X31545Y622952D01*
X31659Y622966D01*
X31773Y622983D01*
X31886Y623004D01*
X31998Y623029D01*
X32110Y623057D01*
X32220Y623090D01*
X32329Y623126D01*
X32437Y623165D01*
X32544Y623208D01*
X32649Y623255D01*
X32753Y623305D01*
X32855Y623359D01*
X32955Y623416D01*
X33053Y623476D01*
X33149Y623539D01*
X33242Y623606D01*
X33334Y623676D01*
X33423Y623749D01*
X33510Y623825D01*
X33594Y623903D01*
X33675Y623984D01*
X33754Y624069D01*
X33829Y624155D01*
X33902Y624244D01*
X33972Y624336D01*
X34039Y624429D01*
X34102Y624525D01*
X34162Y624623D01*
X34219Y624723D01*
X34273Y624825D01*
X34323Y624929D01*
X34370Y625034D01*
X34413Y625141D01*
X34453Y625249D01*
X34488Y625358D01*
X34521Y625468D01*
X34549Y625580D01*
X34574Y625692D01*
X34595Y625805D01*
X34612Y625919D01*
X34626Y626033D01*
X34635Y626148D01*
X34641Y626263D01*
X34643Y626378D01*
X34643Y628100D01*
X34641Y628215D01*
X34635Y628330D01*
X34626Y628445D01*
X34612Y628559D01*
X34595Y628673D01*
X34574Y628786D01*
X34549Y628898D01*
X34521Y629010D01*
X34488Y629120D01*
X34452Y629229D01*
X34413Y629337D01*
X34370Y629444D01*
X34323Y629549D01*
X34273Y629653D01*
X34219Y629755D01*
X34162Y629855D01*
X34102Y629953D01*
X34039Y630049D01*
X33972Y630142D01*
X33902Y630234D01*
X33829Y630323D01*
X33754Y630410D01*
X33675Y630494D01*
X33594Y630575D01*
X33510Y630654D01*
X33423Y630729D01*
X33334Y630802D01*
X33242Y630872D01*
X33149Y630939D01*
X33053Y631002D01*
X32955Y631062D01*
X32855Y631119D01*
X32753Y631173D01*
X32649Y631223D01*
X32544Y631270D01*
X32437Y631313D01*
X32329Y631352D01*
X32220Y631388D01*
X32110Y631421D01*
X31998Y631449D01*
X31886Y631474D01*
X31773Y631495D01*
X31659Y631512D01*
X31545Y631526D01*
X31430Y631535D01*
X31315Y631541D01*
X31200Y631543D01*
X26035Y631543D01*
X26035Y638429D01*
X34643Y638429D01*
X40040Y638429D02*
X45205Y622935D01*
X50369Y638429D01*
X55141Y621213D02*
X62027Y621213D01*
X68990Y622935D02*
X68990Y638429D01*
X67268Y622935D02*
X70712Y622935D01*
X70712Y638429D02*
X67268Y638429D01*
X77074Y638429D02*
X77074Y622935D01*
X85682Y622935D02*
X77074Y638429D01*
X85682Y638429D02*
X85682Y622935D01*
D13*
X177800Y666750D02*
X177800Y679450D01*
X184150Y685800D01*
X196850Y685800D01*
X203200Y679450D01*
X184150Y685800D02*
X177800Y692150D01*
X177800Y704850D01*
X184150Y711200D01*
X196850Y711200D01*
X203200Y704850D01*
X203200Y692150D01*
X196850Y685800D01*
X196850Y660400D02*
X184150Y660400D01*
X177800Y666750D01*
X196850Y660400D02*
X203200Y666750D01*
X203200Y679450D01*
X184150Y711200D02*
X177800Y717550D01*
X177800Y730250D01*
X184150Y736600D01*
X196850Y736600D01*
X203200Y730250D01*
X203200Y717550D01*
X196850Y711200D01*
D11*
X171577Y665353D02*
X171577Y660273D01*
X160147Y660273D01*
X160147Y665353D01*
X165227Y664083D02*
X165227Y660273D01*
X160147Y670179D02*
X171577Y670179D01*
X171577Y675259D01*
X171577Y680085D02*
X171577Y685165D01*
X171577Y680085D02*
X160147Y680085D01*
X160147Y685165D01*
X165227Y683895D02*
X165227Y680085D01*
X160147Y688950D02*
X171577Y692760D01*
X160147Y696570D01*
D13*
X241300Y679450D02*
X241300Y666750D01*
X241300Y679450D02*
X247650Y685800D01*
X260350Y685800D01*
X266700Y679450D01*
X247650Y685800D02*
X241300Y692150D01*
X241300Y704850D01*
X247650Y711200D01*
X260350Y711200D01*
X266700Y704850D01*
X266700Y692150D01*
X260350Y685800D01*
X260350Y660400D02*
X247650Y660400D01*
X241300Y666750D01*
X260350Y660400D02*
X266700Y666750D01*
X266700Y679450D01*
X247650Y711200D02*
X241300Y717550D01*
X241300Y730250D01*
X247650Y736600D01*
X260350Y736600D01*
X266700Y730250D01*
X266700Y717550D01*
X260350Y711200D01*
D11*
X232537Y664083D02*
X223647Y664083D01*
X232537Y664083D02*
X232637Y664081D01*
X232736Y664075D01*
X232836Y664065D01*
X232934Y664052D01*
X233033Y664034D01*
X233130Y664013D01*
X233226Y663988D01*
X233322Y663959D01*
X233416Y663926D01*
X233509Y663890D01*
X233600Y663850D01*
X233690Y663806D01*
X233778Y663759D01*
X233864Y663709D01*
X233948Y663655D01*
X234030Y663598D01*
X234109Y663538D01*
X234187Y663474D01*
X234261Y663408D01*
X234333Y663339D01*
X234402Y663267D01*
X234468Y663193D01*
X234532Y663115D01*
X234592Y663036D01*
X234649Y662954D01*
X234703Y662870D01*
X234753Y662784D01*
X234800Y662696D01*
X234844Y662606D01*
X234884Y662515D01*
X234920Y662422D01*
X234953Y662328D01*
X234982Y662232D01*
X235007Y662136D01*
X235028Y662039D01*
X235046Y661940D01*
X235059Y661842D01*
X235069Y661742D01*
X235075Y661643D01*
X235077Y661543D01*
X235077Y660273D01*
X235077Y668857D02*
X223647Y672667D01*
X235077Y676477D01*
X232220Y675524D02*
X232220Y669809D01*
X235077Y683081D02*
X223647Y680541D01*
X227457Y685621D02*
X235077Y683081D01*
X235077Y688161D02*
X227457Y685621D01*
X223647Y690701D02*
X235077Y688161D01*
X235077Y698829D02*
X235075Y698929D01*
X235069Y699028D01*
X235059Y699128D01*
X235046Y699226D01*
X235028Y699325D01*
X235007Y699422D01*
X234982Y699518D01*
X234953Y699614D01*
X234920Y699708D01*
X234884Y699801D01*
X234844Y699892D01*
X234800Y699982D01*
X234753Y700070D01*
X234703Y700156D01*
X234649Y700240D01*
X234592Y700322D01*
X234532Y700401D01*
X234468Y700479D01*
X234402Y700553D01*
X234333Y700625D01*
X234261Y700694D01*
X234187Y700760D01*
X234109Y700824D01*
X234030Y700884D01*
X233948Y700941D01*
X233864Y700995D01*
X233778Y701045D01*
X233690Y701092D01*
X233600Y701136D01*
X233509Y701176D01*
X233416Y701212D01*
X233322Y701245D01*
X233226Y701274D01*
X233130Y701299D01*
X233033Y701320D01*
X232934Y701338D01*
X232836Y701351D01*
X232736Y701361D01*
X232637Y701367D01*
X232537Y701369D01*
X235077Y698829D02*
X235075Y698688D01*
X235070Y698547D01*
X235060Y698406D01*
X235047Y698265D01*
X235031Y698125D01*
X235010Y697985D01*
X234986Y697846D01*
X234958Y697707D01*
X234927Y697570D01*
X234892Y697433D01*
X234854Y697297D01*
X234812Y697162D01*
X234766Y697029D01*
X234717Y696896D01*
X234664Y696765D01*
X234608Y696636D01*
X234549Y696507D01*
X234486Y696381D01*
X234420Y696256D01*
X234351Y696133D01*
X234278Y696012D01*
X234202Y695893D01*
X234123Y695775D01*
X234042Y695660D01*
X233957Y695548D01*
X233869Y695437D01*
X233778Y695329D01*
X233685Y695223D01*
X233588Y695120D01*
X233489Y695019D01*
X226187Y695336D02*
X226087Y695338D01*
X225988Y695344D01*
X225888Y695354D01*
X225790Y695367D01*
X225691Y695385D01*
X225594Y695406D01*
X225498Y695431D01*
X225402Y695460D01*
X225308Y695493D01*
X225215Y695529D01*
X225124Y695569D01*
X225034Y695613D01*
X224946Y695660D01*
X224860Y695710D01*
X224776Y695764D01*
X224694Y695821D01*
X224615Y695881D01*
X224537Y695945D01*
X224463Y696011D01*
X224391Y696080D01*
X224322Y696152D01*
X224256Y696226D01*
X224192Y696304D01*
X224132Y696383D01*
X224075Y696465D01*
X224021Y696549D01*
X223971Y696635D01*
X223924Y696723D01*
X223880Y696813D01*
X223840Y696904D01*
X223804Y696997D01*
X223771Y697091D01*
X223742Y697187D01*
X223717Y697283D01*
X223696Y697380D01*
X223678Y697479D01*
X223665Y697577D01*
X223655Y697677D01*
X223649Y697776D01*
X223647Y697876D01*
X223649Y698009D01*
X223654Y698142D01*
X223664Y698275D01*
X223677Y698408D01*
X223694Y698540D01*
X223714Y698672D01*
X223738Y698803D01*
X223766Y698933D01*
X223797Y699063D01*
X223832Y699191D01*
X223871Y699319D01*
X223913Y699445D01*
X223959Y699570D01*
X224008Y699694D01*
X224060Y699817D01*
X224116Y699938D01*
X224176Y700057D01*
X224238Y700175D01*
X224304Y700290D01*
X224373Y700404D01*
X224446Y700516D01*
X224521Y700626D01*
X224600Y700734D01*
X228410Y696606D02*
X228358Y696522D01*
X228303Y696439D01*
X228244Y696359D01*
X228183Y696281D01*
X228119Y696206D01*
X228051Y696133D01*
X227981Y696062D01*
X227909Y695995D01*
X227834Y695930D01*
X227756Y695868D01*
X227676Y695809D01*
X227594Y695753D01*
X227510Y695701D01*
X227424Y695652D01*
X227336Y695606D01*
X227246Y695563D01*
X227155Y695524D01*
X227062Y695489D01*
X226968Y695457D01*
X226873Y695429D01*
X226777Y695404D01*
X226680Y695384D01*
X226582Y695366D01*
X226484Y695353D01*
X226385Y695344D01*
X226286Y695338D01*
X226187Y695336D01*
X230314Y700099D02*
X230366Y700183D01*
X230421Y700266D01*
X230480Y700346D01*
X230541Y700424D01*
X230605Y700499D01*
X230673Y700572D01*
X230743Y700643D01*
X230815Y700710D01*
X230890Y700775D01*
X230968Y700837D01*
X231048Y700896D01*
X231130Y700952D01*
X231214Y701004D01*
X231300Y701053D01*
X231388Y701099D01*
X231478Y701142D01*
X231569Y701181D01*
X231662Y701216D01*
X231756Y701248D01*
X231851Y701276D01*
X231947Y701301D01*
X232044Y701321D01*
X232142Y701339D01*
X232240Y701352D01*
X232339Y701361D01*
X232438Y701367D01*
X232537Y701369D01*
X230315Y700099D02*
X228410Y696606D01*
D13*
X114300Y679450D02*
X114300Y666750D01*
X114300Y679450D02*
X120650Y685800D01*
X133350Y685800D01*
X139700Y679450D01*
X120650Y685800D02*
X114300Y692150D01*
X114300Y704850D01*
X120650Y711200D01*
X133350Y711200D01*
X139700Y704850D01*
X139700Y692150D01*
X133350Y685800D01*
X133350Y660400D02*
X120650Y660400D01*
X114300Y666750D01*
X133350Y660400D02*
X139700Y666750D01*
X139700Y679450D01*
X120650Y711200D02*
X114300Y717550D01*
X114300Y730250D01*
X120650Y736600D01*
X133350Y736600D01*
X139700Y730250D01*
X139700Y717550D01*
X133350Y711200D01*
D11*
X108077Y660273D02*
X96647Y660273D01*
X108077Y660273D02*
X108077Y665353D01*
X108077Y670179D02*
X108077Y675259D01*
X108077Y670179D02*
X96647Y670179D01*
X96647Y675259D01*
X101727Y673989D02*
X101727Y670179D01*
X108077Y679044D02*
X96647Y682854D01*
X108077Y686664D01*
X105220Y685711D02*
X105220Y679996D01*
X108077Y691490D02*
X96647Y691490D01*
X108077Y697840D01*
X96647Y697840D01*
D13*
X50800Y679450D02*
X50800Y666750D01*
X50800Y679450D02*
X57150Y685800D01*
X69850Y685800D01*
X76200Y679450D01*
X57150Y685800D02*
X50800Y692150D01*
X50800Y704850D01*
X57150Y711200D01*
X69850Y711200D01*
X76200Y704850D01*
X76200Y692150D01*
X69850Y685800D01*
X69850Y660400D02*
X57150Y660400D01*
X50800Y666750D01*
X69850Y660400D02*
X76200Y666750D01*
X76200Y679450D01*
X57150Y711200D02*
X50800Y717550D01*
X50800Y730250D01*
X57150Y736600D01*
X69850Y736600D01*
X76200Y730250D01*
X76200Y717550D01*
X69850Y711200D01*
D11*
X44577Y660273D02*
X33147Y660273D01*
X33147Y663448D01*
X33149Y663559D01*
X33155Y663669D01*
X33164Y663780D01*
X33178Y663890D01*
X33195Y663999D01*
X33216Y664108D01*
X33241Y664216D01*
X33270Y664323D01*
X33302Y664429D01*
X33338Y664534D01*
X33378Y664637D01*
X33421Y664739D01*
X33468Y664840D01*
X33519Y664939D01*
X33572Y665036D01*
X33629Y665130D01*
X33690Y665223D01*
X33753Y665314D01*
X33820Y665403D01*
X33890Y665489D01*
X33963Y665572D01*
X34038Y665654D01*
X34116Y665732D01*
X34198Y665807D01*
X34281Y665880D01*
X34367Y665950D01*
X34456Y666017D01*
X34547Y666080D01*
X34640Y666141D01*
X34734Y666198D01*
X34831Y666251D01*
X34930Y666302D01*
X35031Y666349D01*
X35133Y666392D01*
X35236Y666432D01*
X35341Y666468D01*
X35447Y666500D01*
X35554Y666529D01*
X35662Y666554D01*
X35771Y666575D01*
X35880Y666592D01*
X35990Y666606D01*
X36101Y666615D01*
X36211Y666621D01*
X36322Y666623D01*
X36433Y666621D01*
X36543Y666615D01*
X36654Y666606D01*
X36764Y666592D01*
X36873Y666575D01*
X36982Y666554D01*
X37090Y666529D01*
X37197Y666500D01*
X37303Y666468D01*
X37408Y666432D01*
X37511Y666392D01*
X37613Y666349D01*
X37714Y666302D01*
X37813Y666251D01*
X37910Y666198D01*
X38004Y666141D01*
X38097Y666080D01*
X38188Y666017D01*
X38277Y665950D01*
X38363Y665880D01*
X38446Y665807D01*
X38528Y665732D01*
X38606Y665654D01*
X38681Y665572D01*
X38754Y665489D01*
X38824Y665403D01*
X38891Y665314D01*
X38954Y665223D01*
X39015Y665130D01*
X39072Y665036D01*
X39125Y664939D01*
X39176Y664840D01*
X39223Y664739D01*
X39266Y664637D01*
X39306Y664534D01*
X39342Y664429D01*
X39374Y664323D01*
X39403Y664216D01*
X39428Y664108D01*
X39449Y663999D01*
X39466Y663890D01*
X39480Y663780D01*
X39489Y663669D01*
X39495Y663559D01*
X39497Y663448D01*
X39497Y660273D01*
X39497Y664083D02*
X44577Y666623D01*
X41402Y671620D02*
X36322Y671620D01*
X36211Y671622D01*
X36101Y671628D01*
X35990Y671637D01*
X35880Y671651D01*
X35771Y671668D01*
X35662Y671689D01*
X35554Y671714D01*
X35447Y671743D01*
X35341Y671775D01*
X35236Y671811D01*
X35133Y671851D01*
X35031Y671894D01*
X34930Y671941D01*
X34831Y671992D01*
X34735Y672045D01*
X34640Y672102D01*
X34547Y672163D01*
X34456Y672226D01*
X34367Y672293D01*
X34281Y672363D01*
X34198Y672436D01*
X34116Y672511D01*
X34038Y672589D01*
X33963Y672671D01*
X33890Y672754D01*
X33820Y672840D01*
X33753Y672929D01*
X33690Y673020D01*
X33629Y673113D01*
X33572Y673208D01*
X33519Y673304D01*
X33468Y673403D01*
X33421Y673504D01*
X33378Y673606D01*
X33338Y673709D01*
X33302Y673814D01*
X33270Y673920D01*
X33241Y674027D01*
X33216Y674135D01*
X33195Y674244D01*
X33178Y674353D01*
X33164Y674463D01*
X33155Y674574D01*
X33149Y674684D01*
X33147Y674795D01*
X33149Y674906D01*
X33155Y675016D01*
X33164Y675127D01*
X33178Y675237D01*
X33195Y675346D01*
X33216Y675455D01*
X33241Y675563D01*
X33270Y675670D01*
X33302Y675776D01*
X33338Y675881D01*
X33378Y675984D01*
X33421Y676086D01*
X33468Y676187D01*
X33519Y676286D01*
X33572Y676383D01*
X33629Y676477D01*
X33690Y676570D01*
X33753Y676661D01*
X33820Y676750D01*
X33890Y676836D01*
X33963Y676919D01*
X34038Y677001D01*
X34116Y677079D01*
X34198Y677154D01*
X34281Y677227D01*
X34367Y677297D01*
X34456Y677364D01*
X34547Y677427D01*
X34640Y677488D01*
X34735Y677545D01*
X34831Y677598D01*
X34930Y677649D01*
X35031Y677696D01*
X35133Y677739D01*
X35236Y677779D01*
X35341Y677815D01*
X35447Y677847D01*
X35554Y677876D01*
X35662Y677901D01*
X35771Y677922D01*
X35880Y677939D01*
X35990Y677953D01*
X36101Y677962D01*
X36211Y677968D01*
X36322Y677970D01*
X41402Y677970D01*
X41513Y677968D01*
X41623Y677962D01*
X41734Y677953D01*
X41844Y677939D01*
X41953Y677922D01*
X42062Y677901D01*
X42170Y677876D01*
X42277Y677847D01*
X42383Y677815D01*
X42488Y677779D01*
X42591Y677739D01*
X42693Y677696D01*
X42794Y677649D01*
X42893Y677598D01*
X42990Y677545D01*
X43084Y677488D01*
X43177Y677427D01*
X43268Y677364D01*
X43357Y677297D01*
X43443Y677227D01*
X43526Y677154D01*
X43608Y677079D01*
X43686Y677001D01*
X43761Y676919D01*
X43834Y676836D01*
X43904Y676750D01*
X43971Y676661D01*
X44034Y676570D01*
X44095Y676477D01*
X44152Y676382D01*
X44205Y676286D01*
X44256Y676187D01*
X44303Y676086D01*
X44346Y675984D01*
X44386Y675881D01*
X44422Y675776D01*
X44454Y675670D01*
X44483Y675563D01*
X44508Y675455D01*
X44529Y675346D01*
X44546Y675237D01*
X44560Y675127D01*
X44569Y675016D01*
X44575Y674906D01*
X44577Y674795D01*
X44575Y674684D01*
X44569Y674574D01*
X44560Y674463D01*
X44546Y674353D01*
X44529Y674244D01*
X44508Y674135D01*
X44483Y674027D01*
X44454Y673920D01*
X44422Y673814D01*
X44386Y673709D01*
X44346Y673606D01*
X44303Y673504D01*
X44256Y673403D01*
X44205Y673304D01*
X44152Y673208D01*
X44095Y673113D01*
X44034Y673020D01*
X43971Y672929D01*
X43904Y672840D01*
X43834Y672754D01*
X43761Y672671D01*
X43686Y672589D01*
X43608Y672511D01*
X43526Y672436D01*
X43443Y672363D01*
X43357Y672293D01*
X43268Y672226D01*
X43177Y672163D01*
X43084Y672102D01*
X42989Y672045D01*
X42893Y671992D01*
X42794Y671941D01*
X42693Y671894D01*
X42591Y671851D01*
X42488Y671811D01*
X42383Y671775D01*
X42277Y671743D01*
X42170Y671714D01*
X42062Y671689D01*
X41953Y671668D01*
X41844Y671651D01*
X41734Y671637D01*
X41623Y671628D01*
X41513Y671622D01*
X41402Y671620D01*
X44577Y685463D02*
X33147Y685463D01*
X33147Y682288D02*
X33147Y688638D01*
X33147Y696131D02*
X44577Y692321D01*
X44577Y699941D02*
X33147Y696131D01*
X41720Y698989D02*
X41720Y693274D01*
X44577Y706799D02*
X33147Y706799D01*
X33147Y703624D02*
X33147Y709974D01*
D13*
X171450Y406400D02*
X165100Y400050D01*
X171450Y406400D02*
X184150Y406400D01*
X190500Y400050D01*
X190500Y387350D01*
X184150Y381000D01*
X171450Y381000D01*
X165100Y387350D01*
X133350Y406400D02*
X120650Y406400D01*
X133350Y406400D02*
X139700Y400050D01*
X139700Y387350D01*
X133350Y381000D01*
X139700Y400050D02*
X146050Y406400D01*
X158750Y406400D01*
X165100Y400050D01*
X165100Y387350D01*
X158750Y381000D01*
X146050Y381000D01*
X139700Y387350D01*
X95250Y406400D02*
X88900Y400050D01*
X95250Y406400D02*
X107950Y406400D01*
X114300Y400050D01*
X114300Y387350D01*
X107950Y381000D01*
X95250Y381000D01*
X88900Y387350D01*
X114300Y400050D02*
X120650Y406400D01*
X114300Y387350D02*
X120650Y381000D01*
X133350Y381000D01*
X57150Y406400D02*
X44450Y406400D01*
X57150Y406400D02*
X63500Y400050D01*
X63500Y387350D01*
X57150Y381000D01*
X63500Y400050D02*
X69850Y406400D01*
X82550Y406400D01*
X88900Y400050D01*
X88900Y387350D01*
X82550Y381000D01*
X69850Y381000D01*
X63500Y387350D01*
X38100Y387350D02*
X38100Y400050D01*
X44450Y406400D01*
X38100Y387350D02*
X44450Y381000D01*
X57150Y381000D01*
X196850Y406400D02*
X209550Y406400D01*
X215900Y400050D01*
X215900Y387350D01*
X209550Y381000D01*
X190500Y400050D02*
X196850Y406400D01*
X190500Y387350D02*
X196850Y381000D01*
X209550Y381000D01*
D11*
X37973Y412623D02*
X37973Y424053D01*
X41148Y424053D01*
X41259Y424051D01*
X41369Y424045D01*
X41480Y424036D01*
X41590Y424022D01*
X41699Y424005D01*
X41808Y423984D01*
X41916Y423959D01*
X42023Y423930D01*
X42129Y423898D01*
X42234Y423862D01*
X42337Y423822D01*
X42439Y423779D01*
X42540Y423732D01*
X42639Y423681D01*
X42736Y423628D01*
X42830Y423571D01*
X42923Y423510D01*
X43014Y423447D01*
X43103Y423380D01*
X43189Y423310D01*
X43272Y423237D01*
X43354Y423162D01*
X43432Y423084D01*
X43507Y423002D01*
X43580Y422919D01*
X43650Y422833D01*
X43717Y422744D01*
X43780Y422653D01*
X43841Y422560D01*
X43898Y422465D01*
X43951Y422369D01*
X44002Y422270D01*
X44049Y422169D01*
X44092Y422067D01*
X44132Y421964D01*
X44168Y421859D01*
X44200Y421753D01*
X44229Y421646D01*
X44254Y421538D01*
X44275Y421429D01*
X44292Y421320D01*
X44306Y421210D01*
X44315Y421099D01*
X44321Y420989D01*
X44323Y420878D01*
X44321Y420767D01*
X44315Y420657D01*
X44306Y420546D01*
X44292Y420436D01*
X44275Y420327D01*
X44254Y420218D01*
X44229Y420110D01*
X44200Y420003D01*
X44168Y419897D01*
X44132Y419792D01*
X44092Y419689D01*
X44049Y419587D01*
X44002Y419486D01*
X43951Y419387D01*
X43898Y419290D01*
X43841Y419196D01*
X43780Y419103D01*
X43717Y419012D01*
X43650Y418923D01*
X43580Y418837D01*
X43507Y418754D01*
X43432Y418672D01*
X43354Y418594D01*
X43272Y418519D01*
X43189Y418446D01*
X43103Y418376D01*
X43014Y418309D01*
X42923Y418246D01*
X42830Y418185D01*
X42735Y418128D01*
X42639Y418075D01*
X42540Y418024D01*
X42439Y417977D01*
X42337Y417934D01*
X42234Y417894D01*
X42129Y417858D01*
X42023Y417826D01*
X41916Y417797D01*
X41808Y417772D01*
X41699Y417751D01*
X41590Y417734D01*
X41480Y417720D01*
X41369Y417711D01*
X41259Y417705D01*
X41148Y417703D01*
X37973Y417703D01*
X52261Y412623D02*
X52361Y412625D01*
X52460Y412631D01*
X52560Y412641D01*
X52658Y412654D01*
X52757Y412672D01*
X52854Y412693D01*
X52950Y412718D01*
X53046Y412747D01*
X53140Y412780D01*
X53233Y412816D01*
X53324Y412856D01*
X53414Y412900D01*
X53502Y412947D01*
X53588Y412997D01*
X53672Y413051D01*
X53754Y413108D01*
X53833Y413168D01*
X53911Y413232D01*
X53985Y413298D01*
X54057Y413367D01*
X54126Y413439D01*
X54192Y413513D01*
X54256Y413591D01*
X54316Y413670D01*
X54373Y413752D01*
X54427Y413836D01*
X54477Y413922D01*
X54524Y414010D01*
X54568Y414100D01*
X54608Y414191D01*
X54644Y414284D01*
X54677Y414378D01*
X54706Y414474D01*
X54731Y414570D01*
X54752Y414667D01*
X54770Y414766D01*
X54783Y414864D01*
X54793Y414964D01*
X54799Y415063D01*
X54801Y415163D01*
X52261Y412623D02*
X52120Y412625D01*
X51979Y412630D01*
X51838Y412640D01*
X51697Y412653D01*
X51557Y412669D01*
X51417Y412690D01*
X51278Y412714D01*
X51139Y412742D01*
X51002Y412773D01*
X50865Y412808D01*
X50729Y412846D01*
X50594Y412888D01*
X50461Y412934D01*
X50328Y412983D01*
X50197Y413036D01*
X50068Y413092D01*
X49939Y413151D01*
X49813Y413214D01*
X49688Y413280D01*
X49565Y413349D01*
X49444Y413422D01*
X49325Y413498D01*
X49207Y413577D01*
X49092Y413658D01*
X48980Y413743D01*
X48869Y413831D01*
X48761Y413922D01*
X48655Y414015D01*
X48552Y414112D01*
X48451Y414211D01*
X48768Y421513D02*
X48770Y421613D01*
X48776Y421712D01*
X48786Y421812D01*
X48799Y421910D01*
X48817Y422009D01*
X48838Y422106D01*
X48863Y422202D01*
X48892Y422298D01*
X48925Y422392D01*
X48961Y422485D01*
X49001Y422576D01*
X49045Y422666D01*
X49092Y422754D01*
X49142Y422840D01*
X49196Y422924D01*
X49253Y423006D01*
X49313Y423085D01*
X49377Y423163D01*
X49443Y423237D01*
X49512Y423309D01*
X49584Y423378D01*
X49658Y423444D01*
X49736Y423508D01*
X49815Y423568D01*
X49897Y423625D01*
X49981Y423679D01*
X50067Y423729D01*
X50155Y423776D01*
X50245Y423820D01*
X50336Y423860D01*
X50429Y423896D01*
X50523Y423929D01*
X50619Y423958D01*
X50715Y423983D01*
X50812Y424004D01*
X50911Y424022D01*
X51009Y424035D01*
X51109Y424045D01*
X51208Y424051D01*
X51308Y424053D01*
X51308Y424054D02*
X51441Y424052D01*
X51574Y424047D01*
X51707Y424037D01*
X51840Y424024D01*
X51972Y424007D01*
X52104Y423987D01*
X52235Y423963D01*
X52365Y423935D01*
X52495Y423904D01*
X52623Y423869D01*
X52751Y423830D01*
X52877Y423788D01*
X53002Y423742D01*
X53126Y423693D01*
X53249Y423641D01*
X53370Y423585D01*
X53489Y423525D01*
X53607Y423463D01*
X53722Y423397D01*
X53836Y423328D01*
X53948Y423255D01*
X54058Y423180D01*
X54166Y423101D01*
X50038Y419290D02*
X49954Y419342D01*
X49871Y419397D01*
X49791Y419456D01*
X49713Y419517D01*
X49638Y419581D01*
X49565Y419649D01*
X49494Y419719D01*
X49427Y419791D01*
X49362Y419866D01*
X49300Y419944D01*
X49241Y420024D01*
X49185Y420106D01*
X49133Y420190D01*
X49084Y420276D01*
X49038Y420364D01*
X48995Y420454D01*
X48956Y420545D01*
X48921Y420638D01*
X48889Y420732D01*
X48861Y420827D01*
X48836Y420923D01*
X48816Y421020D01*
X48798Y421118D01*
X48785Y421216D01*
X48776Y421315D01*
X48770Y421414D01*
X48768Y421513D01*
X53531Y417386D02*
X53615Y417334D01*
X53698Y417279D01*
X53778Y417220D01*
X53856Y417159D01*
X53931Y417095D01*
X54004Y417027D01*
X54075Y416957D01*
X54142Y416885D01*
X54207Y416810D01*
X54269Y416732D01*
X54328Y416652D01*
X54384Y416570D01*
X54436Y416486D01*
X54485Y416400D01*
X54531Y416312D01*
X54574Y416222D01*
X54613Y416131D01*
X54648Y416038D01*
X54680Y415944D01*
X54708Y415849D01*
X54733Y415753D01*
X54753Y415656D01*
X54771Y415558D01*
X54784Y415460D01*
X54793Y415361D01*
X54799Y415262D01*
X54801Y415163D01*
X53531Y417386D02*
X50038Y419291D01*
X62992Y424054D02*
X63096Y424052D01*
X63201Y424046D01*
X63305Y424037D01*
X63408Y424024D01*
X63511Y424006D01*
X63613Y423986D01*
X63715Y423961D01*
X63815Y423933D01*
X63915Y423901D01*
X64013Y423865D01*
X64110Y423826D01*
X64205Y423784D01*
X64299Y423738D01*
X64391Y423688D01*
X64481Y423636D01*
X64569Y423580D01*
X64655Y423520D01*
X64739Y423458D01*
X64820Y423393D01*
X64899Y423325D01*
X64976Y423253D01*
X65049Y423180D01*
X65121Y423103D01*
X65189Y423024D01*
X65254Y422943D01*
X65316Y422859D01*
X65376Y422773D01*
X65432Y422685D01*
X65484Y422595D01*
X65534Y422503D01*
X65580Y422409D01*
X65622Y422314D01*
X65661Y422217D01*
X65697Y422119D01*
X65729Y422019D01*
X65757Y421919D01*
X65782Y421817D01*
X65802Y421715D01*
X65820Y421612D01*
X65833Y421509D01*
X65842Y421405D01*
X65848Y421300D01*
X65850Y421196D01*
X62992Y424053D02*
X62874Y424051D01*
X62755Y424045D01*
X62637Y424036D01*
X62520Y424023D01*
X62403Y424005D01*
X62286Y423985D01*
X62170Y423960D01*
X62055Y423932D01*
X61942Y423899D01*
X61829Y423864D01*
X61717Y423824D01*
X61607Y423782D01*
X61498Y423735D01*
X61390Y423685D01*
X61285Y423632D01*
X61181Y423575D01*
X61079Y423515D01*
X60979Y423452D01*
X60881Y423385D01*
X60785Y423316D01*
X60692Y423243D01*
X60601Y423167D01*
X60512Y423089D01*
X60426Y423007D01*
X60343Y422923D01*
X60262Y422837D01*
X60185Y422747D01*
X60110Y422656D01*
X60038Y422562D01*
X59969Y422465D01*
X59904Y422367D01*
X59841Y422266D01*
X59782Y422163D01*
X59726Y422059D01*
X59674Y421953D01*
X59625Y421845D01*
X59580Y421736D01*
X59538Y421625D01*
X59500Y421513D01*
X64897Y418974D02*
X64973Y419049D01*
X65048Y419128D01*
X65119Y419209D01*
X65188Y419293D01*
X65253Y419379D01*
X65315Y419467D01*
X65375Y419557D01*
X65431Y419649D01*
X65484Y419744D01*
X65533Y419840D01*
X65579Y419938D01*
X65622Y420037D01*
X65661Y420138D01*
X65696Y420240D01*
X65728Y420343D01*
X65756Y420447D01*
X65781Y420552D01*
X65802Y420659D01*
X65819Y420765D01*
X65832Y420872D01*
X65841Y420980D01*
X65847Y421088D01*
X65849Y421196D01*
X64897Y418973D02*
X59500Y412623D01*
X65850Y412623D01*
X70422Y411353D02*
X75502Y411353D01*
X82576Y412623D02*
X85116Y412623D01*
X82576Y412623D02*
X82476Y412625D01*
X82377Y412631D01*
X82277Y412641D01*
X82179Y412654D01*
X82080Y412672D01*
X81983Y412693D01*
X81887Y412718D01*
X81791Y412747D01*
X81697Y412780D01*
X81604Y412816D01*
X81513Y412856D01*
X81423Y412900D01*
X81335Y412947D01*
X81249Y412997D01*
X81165Y413051D01*
X81083Y413108D01*
X81004Y413168D01*
X80926Y413232D01*
X80852Y413298D01*
X80780Y413367D01*
X80711Y413439D01*
X80645Y413513D01*
X80581Y413591D01*
X80521Y413670D01*
X80464Y413752D01*
X80410Y413836D01*
X80360Y413922D01*
X80313Y414010D01*
X80269Y414100D01*
X80229Y414191D01*
X80193Y414284D01*
X80160Y414378D01*
X80131Y414474D01*
X80106Y414570D01*
X80085Y414667D01*
X80067Y414766D01*
X80054Y414864D01*
X80044Y414964D01*
X80038Y415063D01*
X80036Y415163D01*
X80036Y421513D01*
X80038Y421613D01*
X80044Y421712D01*
X80054Y421812D01*
X80067Y421910D01*
X80085Y422009D01*
X80106Y422106D01*
X80131Y422202D01*
X80160Y422298D01*
X80193Y422392D01*
X80229Y422485D01*
X80269Y422576D01*
X80313Y422666D01*
X80360Y422754D01*
X80410Y422840D01*
X80464Y422924D01*
X80521Y423006D01*
X80581Y423085D01*
X80645Y423163D01*
X80711Y423237D01*
X80780Y423309D01*
X80852Y423378D01*
X80926Y423444D01*
X81004Y423508D01*
X81083Y423568D01*
X81165Y423625D01*
X81249Y423679D01*
X81335Y423729D01*
X81423Y423776D01*
X81513Y423820D01*
X81604Y423860D01*
X81697Y423896D01*
X81791Y423929D01*
X81887Y423958D01*
X81983Y423983D01*
X82080Y424004D01*
X82179Y424022D01*
X82277Y424035D01*
X82377Y424045D01*
X82476Y424051D01*
X82576Y424053D01*
X85116Y424053D01*
X89598Y420878D02*
X89598Y415798D01*
X89598Y420878D02*
X89600Y420989D01*
X89606Y421099D01*
X89615Y421210D01*
X89629Y421320D01*
X89646Y421429D01*
X89667Y421538D01*
X89692Y421646D01*
X89721Y421753D01*
X89753Y421859D01*
X89789Y421964D01*
X89829Y422067D01*
X89872Y422169D01*
X89919Y422270D01*
X89970Y422369D01*
X90023Y422466D01*
X90080Y422560D01*
X90141Y422653D01*
X90204Y422744D01*
X90271Y422833D01*
X90341Y422919D01*
X90414Y423002D01*
X90489Y423084D01*
X90567Y423162D01*
X90649Y423237D01*
X90732Y423310D01*
X90818Y423380D01*
X90907Y423447D01*
X90998Y423510D01*
X91091Y423571D01*
X91186Y423628D01*
X91282Y423681D01*
X91381Y423732D01*
X91482Y423779D01*
X91584Y423822D01*
X91687Y423862D01*
X91792Y423898D01*
X91898Y423930D01*
X92005Y423959D01*
X92113Y423984D01*
X92222Y424005D01*
X92331Y424022D01*
X92441Y424036D01*
X92552Y424045D01*
X92662Y424051D01*
X92773Y424053D01*
X92884Y424051D01*
X92994Y424045D01*
X93105Y424036D01*
X93215Y424022D01*
X93324Y424005D01*
X93433Y423984D01*
X93541Y423959D01*
X93648Y423930D01*
X93754Y423898D01*
X93859Y423862D01*
X93962Y423822D01*
X94064Y423779D01*
X94165Y423732D01*
X94264Y423681D01*
X94361Y423628D01*
X94455Y423571D01*
X94548Y423510D01*
X94639Y423447D01*
X94728Y423380D01*
X94814Y423310D01*
X94897Y423237D01*
X94979Y423162D01*
X95057Y423084D01*
X95132Y423002D01*
X95205Y422919D01*
X95275Y422833D01*
X95342Y422744D01*
X95405Y422653D01*
X95466Y422560D01*
X95523Y422466D01*
X95576Y422369D01*
X95627Y422270D01*
X95674Y422169D01*
X95717Y422067D01*
X95757Y421964D01*
X95793Y421859D01*
X95825Y421753D01*
X95854Y421646D01*
X95879Y421538D01*
X95900Y421429D01*
X95917Y421320D01*
X95931Y421210D01*
X95940Y421099D01*
X95946Y420989D01*
X95948Y420878D01*
X95948Y415798D01*
X95946Y415687D01*
X95940Y415577D01*
X95931Y415466D01*
X95917Y415356D01*
X95900Y415247D01*
X95879Y415138D01*
X95854Y415030D01*
X95825Y414923D01*
X95793Y414817D01*
X95757Y414712D01*
X95717Y414609D01*
X95674Y414507D01*
X95627Y414406D01*
X95576Y414307D01*
X95523Y414210D01*
X95466Y414116D01*
X95405Y414023D01*
X95342Y413932D01*
X95275Y413843D01*
X95205Y413757D01*
X95132Y413674D01*
X95057Y413592D01*
X94979Y413514D01*
X94897Y413439D01*
X94814Y413366D01*
X94728Y413296D01*
X94639Y413229D01*
X94548Y413166D01*
X94455Y413105D01*
X94360Y413048D01*
X94264Y412995D01*
X94165Y412944D01*
X94064Y412897D01*
X93962Y412854D01*
X93859Y412814D01*
X93754Y412778D01*
X93648Y412746D01*
X93541Y412717D01*
X93433Y412692D01*
X93324Y412671D01*
X93215Y412654D01*
X93105Y412640D01*
X92994Y412631D01*
X92884Y412625D01*
X92773Y412623D01*
X92662Y412625D01*
X92552Y412631D01*
X92441Y412640D01*
X92331Y412654D01*
X92222Y412671D01*
X92113Y412692D01*
X92005Y412717D01*
X91898Y412746D01*
X91792Y412778D01*
X91687Y412814D01*
X91584Y412854D01*
X91482Y412897D01*
X91381Y412944D01*
X91282Y412995D01*
X91186Y413048D01*
X91091Y413105D01*
X90998Y413166D01*
X90907Y413229D01*
X90818Y413296D01*
X90732Y413366D01*
X90649Y413439D01*
X90567Y413514D01*
X90489Y413592D01*
X90414Y413674D01*
X90341Y413757D01*
X90271Y413843D01*
X90204Y413932D01*
X90141Y414023D01*
X90080Y414116D01*
X90023Y414211D01*
X89970Y414307D01*
X89919Y414406D01*
X89872Y414507D01*
X89829Y414609D01*
X89789Y414712D01*
X89753Y414817D01*
X89721Y414923D01*
X89692Y415030D01*
X89667Y415138D01*
X89646Y415247D01*
X89629Y415356D01*
X89615Y415466D01*
X89606Y415577D01*
X89600Y415687D01*
X89598Y415798D01*
X101409Y412623D02*
X101409Y424053D01*
X107759Y412623D01*
X107759Y424053D01*
X115633Y424053D02*
X115633Y412623D01*
X112458Y424053D02*
X118808Y424053D01*
X123590Y424053D02*
X123590Y412623D01*
X123590Y424053D02*
X126765Y424053D01*
X126876Y424051D01*
X126986Y424045D01*
X127097Y424036D01*
X127207Y424022D01*
X127316Y424005D01*
X127425Y423984D01*
X127533Y423959D01*
X127640Y423930D01*
X127746Y423898D01*
X127851Y423862D01*
X127954Y423822D01*
X128056Y423779D01*
X128157Y423732D01*
X128256Y423681D01*
X128353Y423628D01*
X128447Y423571D01*
X128540Y423510D01*
X128631Y423447D01*
X128720Y423380D01*
X128806Y423310D01*
X128889Y423237D01*
X128971Y423162D01*
X129049Y423084D01*
X129124Y423002D01*
X129197Y422919D01*
X129267Y422833D01*
X129334Y422744D01*
X129397Y422653D01*
X129458Y422560D01*
X129515Y422465D01*
X129568Y422369D01*
X129619Y422270D01*
X129666Y422169D01*
X129709Y422067D01*
X129749Y421964D01*
X129785Y421859D01*
X129817Y421753D01*
X129846Y421646D01*
X129871Y421538D01*
X129892Y421429D01*
X129909Y421320D01*
X129923Y421210D01*
X129932Y421099D01*
X129938Y420989D01*
X129940Y420878D01*
X129938Y420767D01*
X129932Y420657D01*
X129923Y420546D01*
X129909Y420436D01*
X129892Y420327D01*
X129871Y420218D01*
X129846Y420110D01*
X129817Y420003D01*
X129785Y419897D01*
X129749Y419792D01*
X129709Y419689D01*
X129666Y419587D01*
X129619Y419486D01*
X129568Y419387D01*
X129515Y419290D01*
X129458Y419196D01*
X129397Y419103D01*
X129334Y419012D01*
X129267Y418923D01*
X129197Y418837D01*
X129124Y418754D01*
X129049Y418672D01*
X128971Y418594D01*
X128889Y418519D01*
X128806Y418446D01*
X128720Y418376D01*
X128631Y418309D01*
X128540Y418246D01*
X128447Y418185D01*
X128352Y418128D01*
X128256Y418075D01*
X128157Y418024D01*
X128056Y417977D01*
X127954Y417934D01*
X127851Y417894D01*
X127746Y417858D01*
X127640Y417826D01*
X127533Y417797D01*
X127425Y417772D01*
X127316Y417751D01*
X127207Y417734D01*
X127097Y417720D01*
X126986Y417711D01*
X126876Y417705D01*
X126765Y417703D01*
X123590Y417703D01*
X127400Y417703D02*
X129940Y412623D01*
D13*
X111760Y434340D02*
X111860Y434342D01*
X111959Y434348D01*
X112059Y434358D01*
X112157Y434371D01*
X112256Y434389D01*
X112353Y434410D01*
X112449Y434435D01*
X112545Y434464D01*
X112639Y434497D01*
X112732Y434533D01*
X112823Y434573D01*
X112913Y434617D01*
X113001Y434664D01*
X113087Y434714D01*
X113171Y434768D01*
X113253Y434825D01*
X113332Y434885D01*
X113410Y434949D01*
X113484Y435015D01*
X113556Y435084D01*
X113625Y435156D01*
X113691Y435230D01*
X113755Y435308D01*
X113815Y435387D01*
X113872Y435469D01*
X113926Y435553D01*
X113976Y435639D01*
X114023Y435727D01*
X114067Y435817D01*
X114107Y435908D01*
X114143Y436001D01*
X114176Y436095D01*
X114205Y436191D01*
X114230Y436287D01*
X114251Y436384D01*
X114269Y436483D01*
X114282Y436581D01*
X114292Y436681D01*
X114298Y436780D01*
X114300Y436880D01*
X114300Y452120D02*
X114298Y452220D01*
X114292Y452319D01*
X114282Y452419D01*
X114269Y452517D01*
X114251Y452616D01*
X114230Y452713D01*
X114205Y452809D01*
X114176Y452905D01*
X114143Y452999D01*
X114107Y453092D01*
X114067Y453183D01*
X114023Y453273D01*
X113976Y453361D01*
X113926Y453447D01*
X113872Y453531D01*
X113815Y453613D01*
X113755Y453692D01*
X113691Y453770D01*
X113625Y453844D01*
X113556Y453916D01*
X113484Y453985D01*
X113410Y454051D01*
X113332Y454115D01*
X113253Y454175D01*
X113171Y454232D01*
X113087Y454286D01*
X113001Y454336D01*
X112913Y454383D01*
X112823Y454427D01*
X112732Y454467D01*
X112639Y454503D01*
X112545Y454536D01*
X112449Y454565D01*
X112353Y454590D01*
X112256Y454611D01*
X112157Y454629D01*
X112059Y454642D01*
X111959Y454652D01*
X111860Y454658D01*
X111760Y454660D01*
X66040Y454660D02*
X65940Y454658D01*
X65841Y454652D01*
X65741Y454642D01*
X65643Y454629D01*
X65544Y454611D01*
X65447Y454590D01*
X65351Y454565D01*
X65255Y454536D01*
X65161Y454503D01*
X65068Y454467D01*
X64977Y454427D01*
X64887Y454383D01*
X64799Y454336D01*
X64713Y454286D01*
X64629Y454232D01*
X64547Y454175D01*
X64468Y454115D01*
X64390Y454051D01*
X64316Y453985D01*
X64244Y453916D01*
X64175Y453844D01*
X64109Y453770D01*
X64045Y453692D01*
X63985Y453613D01*
X63928Y453531D01*
X63874Y453447D01*
X63824Y453361D01*
X63777Y453273D01*
X63733Y453183D01*
X63693Y453092D01*
X63657Y452999D01*
X63624Y452905D01*
X63595Y452809D01*
X63570Y452713D01*
X63549Y452616D01*
X63531Y452517D01*
X63518Y452419D01*
X63508Y452319D01*
X63502Y452220D01*
X63500Y452120D01*
X63500Y436880D02*
X63502Y436780D01*
X63508Y436681D01*
X63518Y436581D01*
X63531Y436483D01*
X63549Y436384D01*
X63570Y436287D01*
X63595Y436191D01*
X63624Y436095D01*
X63657Y436001D01*
X63693Y435908D01*
X63733Y435817D01*
X63777Y435727D01*
X63824Y435639D01*
X63874Y435553D01*
X63928Y435469D01*
X63985Y435387D01*
X64045Y435308D01*
X64109Y435230D01*
X64175Y435156D01*
X64244Y435084D01*
X64316Y435015D01*
X64390Y434949D01*
X64468Y434885D01*
X64547Y434825D01*
X64629Y434768D01*
X64713Y434714D01*
X64799Y434664D01*
X64887Y434617D01*
X64977Y434573D01*
X65068Y434533D01*
X65161Y434497D01*
X65255Y434464D01*
X65351Y434435D01*
X65447Y434410D01*
X65544Y434389D01*
X65643Y434371D01*
X65741Y434358D01*
X65841Y434348D01*
X65940Y434342D01*
X66040Y434340D01*
X114300Y436880D02*
X114300Y452120D01*
X111760Y434340D02*
X107950Y434340D01*
X106680Y435610D01*
X107950Y454660D02*
X111760Y454660D01*
X107950Y454660D02*
X106680Y453390D01*
X71120Y435610D02*
X69850Y434340D01*
X71120Y435610D02*
X106680Y435610D01*
X71120Y453390D02*
X69850Y454660D01*
X71120Y453390D02*
X106680Y453390D01*
X69850Y434340D02*
X66040Y434340D01*
X66040Y454660D02*
X69850Y454660D01*
X63500Y452120D02*
X63500Y436880D01*
D14*
X61595Y444500D03*
X116205Y444500D03*
D10*
X100003Y431038D02*
X100003Y422148D01*
X100003Y431038D02*
X102473Y431038D01*
X102571Y431036D01*
X102669Y431030D01*
X102767Y431020D01*
X102864Y431007D01*
X102961Y430989D01*
X103057Y430968D01*
X103151Y430943D01*
X103245Y430914D01*
X103338Y430882D01*
X103429Y430845D01*
X103519Y430806D01*
X103607Y430762D01*
X103693Y430715D01*
X103778Y430665D01*
X103860Y430612D01*
X103940Y430555D01*
X104018Y430495D01*
X104093Y430432D01*
X104166Y430366D01*
X104236Y430297D01*
X104303Y430226D01*
X104368Y430152D01*
X104429Y430075D01*
X104488Y429996D01*
X104543Y429915D01*
X104595Y429832D01*
X104643Y429746D01*
X104688Y429659D01*
X104730Y429570D01*
X104768Y429480D01*
X104802Y429388D01*
X104833Y429295D01*
X104860Y429200D01*
X104883Y429105D01*
X104903Y429008D01*
X104918Y428912D01*
X104930Y428814D01*
X104938Y428716D01*
X104942Y428618D01*
X104942Y428520D01*
X104938Y428422D01*
X104930Y428324D01*
X104918Y428226D01*
X104903Y428130D01*
X104883Y428033D01*
X104860Y427938D01*
X104833Y427843D01*
X104802Y427750D01*
X104768Y427658D01*
X104730Y427568D01*
X104688Y427479D01*
X104643Y427392D01*
X104595Y427306D01*
X104543Y427223D01*
X104488Y427142D01*
X104429Y427063D01*
X104368Y426986D01*
X104303Y426912D01*
X104236Y426841D01*
X104166Y426772D01*
X104093Y426706D01*
X104018Y426643D01*
X103940Y426583D01*
X103860Y426526D01*
X103778Y426473D01*
X103693Y426423D01*
X103607Y426376D01*
X103519Y426332D01*
X103429Y426293D01*
X103338Y426256D01*
X103245Y426224D01*
X103151Y426195D01*
X103057Y426170D01*
X102961Y426149D01*
X102864Y426131D01*
X102767Y426118D01*
X102669Y426108D01*
X102571Y426102D01*
X102473Y426100D01*
X102473Y426099D02*
X100003Y426099D01*
X102967Y426099D02*
X104942Y422148D01*
X108853Y429062D02*
X111323Y431038D01*
X111323Y422148D01*
X113792Y422148D02*
X108853Y422148D01*
M02*
