M48
;GenerationSoftware,Autodesk,EAGLE,9.3.0*%
;CreationDate,2019-02-24T14:41:37Z*%
FMAT,2
ICI,OFF
METRIC,TZ,000.000
T6C0.800
T5C0.813
T4C1.016
T3C2.800
T2C3.200
T1C4.000
%
G90
M71
T1
X57150Y38100
X57150Y72390
X33020Y72390
T2
X13600Y55880
T3
X7350Y55880
X10750Y51080
T4
X19050Y67310
X19050Y69850
X19050Y72390
X25400Y67310
X25400Y69850
X25400Y72390
X12700Y67310
X12700Y69850
X12700Y72390
X6350Y67310
X6350Y69850
X6350Y72390
X20320Y39370
X17780Y39370
X15240Y39370
X12700Y39370
X10160Y39370
X7620Y39370
X5080Y39370
T5
X5080Y44450
X12700Y44450
T6
X45720Y45720
X48260Y45720
X50800Y45720
X22860Y60960
X40640Y45720
X27940Y60960
X43180Y60960
X45720Y60960
X48260Y60960
X50800Y60960
X58420Y60960
X58420Y45720
X55880Y45720
X53340Y45720
X55880Y60960
X53340Y60960
X30480Y60960
X24130Y55880
X24130Y53340
X24130Y50800
X40640Y60960
X38100Y60960
X35560Y60960
X33020Y60960
X21590Y55880
X21590Y53340
X21590Y50800
X38100Y45720
X35560Y45720
X33020Y45720
X30480Y45720
X27940Y45720
X25400Y45720
X22860Y45720
X43180Y45720
X25400Y60960
M30